<svg width="40" height="40" viewBox="0 0 20 20" fill="none" xmlns="http://www.w3.org/2000/svg">
    <g clip-path="url(#clip0_182_11)">
        <path d="M10.0007 20.0013C15.5239 20.0013 20.0013 15.5239 20.0013 10.0007C20.0013 4.47745 15.5239 0 10.0007 0C4.47745 0 0 4.47745 0 10.0007C0 15.5239 4.47745 20.0013 10.0007 20.0013Z"
              fill="url(#paint0_linear_182_11)"/>
        <path d="M6.68999 10.8018L7.84107 13.9224L12.947 6.82983L6.68999 10.8018Z" fill="#C2DAEC"/>
        <path d="M7.96647 11.4949L7.85691 13.9541L10.5511 11.6678L7.96647 11.4949Z" fill="#9FCDE2"/>
        <path d="M14.1958 5.63137L4.13042 9.4595C4.06776 9.48299 4.01393 9.52533 3.97635 9.5807C3.93876 9.63607 3.91928 9.70173 3.92059 9.76863C3.92189 9.83554 3.94391 9.90039 3.98362 9.95425C4.02333 10.0081 4.07877 10.0483 4.1423 10.0694L6.73223 10.9432L12.6474 7.1283L7.96647 11.495L11.6164 14.2565C11.7035 14.3236 11.806 14.3679 11.9145 14.3854C12.0231 14.4028 12.1343 14.3928 12.238 14.3564C12.3418 14.3199 12.4348 14.2581 12.5085 14.1766C12.5823 14.0951 12.6346 13.9964 12.6606 13.8896L14.6301 6.01022C14.6441 5.95245 14.642 5.89194 14.624 5.83528C14.606 5.77862 14.5728 5.72799 14.528 5.68891C14.4832 5.64983 14.4285 5.6238 14.3699 5.61365C14.3113 5.6035 14.2511 5.60963 14.1958 5.63137V5.63137Z"
              fill="#ECF8FD"/>
    </g>
    <defs>
        <linearGradient id="paint0_linear_182_11" x1="2.92918" y1="2.92918" x2="17.0708" y2="17.0708"
                        gradientUnits="userSpaceOnUse">
            <stop stop-color="#00AFE5"/>
            <stop offset="1" stop-color="#0094D4"/>
        </linearGradient>
        <clipPath id="clip0_182_11">
            <rect width="20" height="20" fill="white"/>
        </clipPath>
    </defs>
</svg>
