<svg width="40" height="40" viewBox="0 0 20 20" fill="none" xmlns="http://www.w3.org/2000/svg">
    <path d="M10 0C8.02218 0 6.08879 0.58649 4.44429 1.6853C2.7998 2.78412 1.51808 4.34591 0.761202 6.17317C0.00432521 8.00043 -0.193708 10.0111 0.192144 11.9509C0.577996 13.8907 1.5304 15.6725 2.92893 17.0711C4.32745 18.4696 6.10928 19.422 8.04909 19.8079C9.9889 20.1937 11.9996 19.9957 13.8268 19.2388C15.6541 18.4819 17.2159 17.2002 18.3147 15.5557C19.4135 13.9112 20 11.9778 20 10C20 7.34784 18.9464 4.8043 17.0711 2.92893C15.1957 1.05357 12.6522 0 10 0V0Z"
          fill="#8E24AA"/>
    <path d="M9.835 3.36498C9.43899 3.36587 9.04336 3.38924 8.65 3.43498C7.87851 3.50578 7.12277 3.6964 6.41 3.99998C5.84069 4.23569 5.3401 4.61132 4.95464 5.09205C4.56919 5.57278 4.31134 6.14305 4.205 6.74998C4.10875 7.30286 4.04033 7.86023 4 8.41998C3.89167 9.51267 3.98488 10.616 4.275 11.675C4.4881 12.5423 5.02473 13.2954 5.775 13.78C6.09781 13.9424 6.43203 14.0811 6.775 14.195C6.80607 14.2065 6.83485 14.2234 6.86 14.245C6.86 14.245 6.86 14.245 6.86 14.325C6.86 15.015 6.86 16.35 6.86 16.35V16.64H7.36L7.445 16.555C7.445 16.555 8.755 15.295 9.23 14.78C9.315 14.685 9.355 14.635 9.365 14.63C9.375 14.625 9.365 14.63 9.45 14.63C10.07 14.63 10.69 14.595 11.31 14.565C12.1469 14.5518 12.9754 14.3962 13.76 14.105C14.4727 13.8259 15.0557 13.291 15.395 12.605C15.7386 11.8793 15.9438 11.0959 16 10.295C16.1486 8.95513 16.0503 7.59939 15.71 6.29498C15.506 5.52663 15.0366 4.85531 14.385 4.39998C13.6012 3.90337 12.713 3.59529 11.79 3.49998C11.2729 3.42441 10.7522 3.37601 10.23 3.35498C10.095 3.36498 9.965 3.35998 9.835 3.36498ZM10.21 3.94498C10.7122 3.95998 11.2131 4.00506 11.71 4.07998C12.5447 4.16107 13.3492 4.43493 14.06 4.87998C14.6044 5.25314 14.9952 5.81088 15.16 6.44998C15.4803 7.68798 15.5718 8.97409 15.43 10.245C15.3735 10.9762 15.1802 11.6902 14.86 12.35C14.5781 12.9124 14.0914 13.3454 13.5 13.56C12.7758 13.8254 12.0113 13.9641 11.24 13.97C10.625 14.005 10.01 14.03 9.395 14.04C9.24895 14.04 9.10621 14.0835 8.985 14.165C8.90175 14.2296 8.82773 14.3053 8.765 14.39C8.425 14.755 7.765 15.39 7.385 15.765C7.385 15.335 7.385 14.81 7.385 14.33C7.38842 14.1826 7.34654 14.0378 7.265 13.915C7.18542 13.8071 7.07838 13.7225 6.955 13.67C6.63 13.52 6.205 13.405 6.02 13.29C5.39966 12.8729 4.96576 12.2311 4.81 11.5C4.53994 10.5073 4.45352 9.47369 4.555 8.44998C4.60129 7.90996 4.67471 7.37262 4.775 6.83998C4.86208 6.32784 5.08066 5.84709 5.40933 5.44479C5.738 5.04249 6.16551 4.73244 6.65 4.54498C7.30726 4.2562 8.00575 4.0723 8.72 3.99998C9.21458 3.94426 9.71266 3.92587 10.21 3.94498V3.94498ZM10.335 5.38498C10.1013 5.38441 9.86821 5.40956 9.64 5.45998C9.60307 5.46822 9.56815 5.48373 9.53727 5.50561C9.5064 5.52749 9.48019 5.55529 9.46018 5.58741C9.44016 5.61952 9.42675 5.6553 9.42071 5.69266C9.41467 5.73001 9.41613 5.7682 9.425 5.80498C9.44174 5.87981 9.48743 5.94497 9.55209 5.9862C9.61674 6.02743 9.69509 6.04137 9.77 6.02498C9.95497 5.98032 10.1447 5.95849 10.335 5.95998C10.669 5.95932 10.9998 6.02454 11.3086 6.15189C11.6173 6.27924 11.8979 6.46623 12.1343 6.70216C12.3707 6.93809 12.5582 7.21831 12.6862 7.52681C12.8141 7.8353 12.88 8.166 12.88 8.49998C12.8815 8.69026 12.8597 8.88001 12.815 9.06498C12.7986 9.13989 12.8126 9.21824 12.8538 9.2829C12.895 9.34755 12.9602 9.39324 13.035 9.40998C13.0718 9.41885 13.11 9.42031 13.1473 9.41428C13.1847 9.40824 13.2205 9.39482 13.2526 9.3748C13.2847 9.35479 13.3125 9.32858 13.3344 9.29771C13.3563 9.26683 13.3718 9.23191 13.38 9.19498C13.4304 8.96677 13.4556 8.7337 13.455 8.49998C13.4524 7.67378 13.1226 6.88224 12.538 6.2985C11.9533 5.71475 11.1612 5.3863 10.335 5.38498V5.38498ZM7.455 5.95998C7.40692 5.95293 7.35808 5.95293 7.31 5.95998C7.02205 6.00308 6.75832 6.14575 6.56465 6.36316C6.37099 6.58057 6.25965 6.85898 6.25 7.14998C6.25442 7.24471 6.26951 7.33864 6.295 7.42998C6.47 7.84998 6.615 8.27998 6.83 8.67998C7.84741 10.5498 9.48461 12.0067 11.46 12.8C11.5753 12.8495 11.6995 12.875 11.825 12.875C11.9505 12.875 12.0747 12.8495 12.19 12.8C12.521 12.6779 12.8046 12.4537 13 12.16C13.26 11.735 13.265 11.445 12.84 11.13C12.56 10.925 12.285 10.715 12.005 10.515C11.575 10.21 11.11 10.155 10.79 10.69C10.7726 10.7184 10.7506 10.7437 10.725 10.765C10.655 10.8459 10.5608 10.9021 10.4564 10.9255C10.352 10.9489 10.2429 10.9382 10.145 10.895C9.34489 10.5898 8.69309 9.98816 8.325 9.21498C8.26589 9.13353 8.22531 9.04014 8.2061 8.94135C8.1869 8.84256 8.18954 8.74077 8.21383 8.64311C8.23813 8.54544 8.2835 8.45428 8.34675 8.376C8.41 8.29773 8.48961 8.23424 8.58 8.18998C8.62213 8.1611 8.66222 8.12936 8.7 8.09498C8.78796 8.02662 8.84845 7.92896 8.87047 7.81976C8.8925 7.71056 8.87458 7.59709 8.82 7.49998C8.57434 6.98682 8.23522 6.52392 7.82 6.13498C7.72157 6.03713 7.59293 5.97546 7.455 5.95998V5.95998ZM10.33 6.24998C10.2027 6.24983 10.0757 6.25986 9.95 6.27998C9.89934 6.28744 9.85149 6.30796 9.81116 6.33952C9.77083 6.37108 9.73942 6.4126 9.72 6.45998C9.70079 6.50873 9.69515 6.56178 9.70368 6.61349C9.7122 6.66519 9.73458 6.71362 9.76843 6.75362C9.80228 6.79362 9.84633 6.82371 9.89591 6.84067C9.94549 6.85764 9.99874 6.86086 10.05 6.84998C10.1432 6.84235 10.2368 6.84235 10.33 6.84998C10.7679 6.85504 11.1867 7.02989 11.4983 7.33768C11.8098 7.64547 11.9897 8.06217 12 8.49998C12.0051 8.59324 12.0051 8.68672 12 8.77998C11.9877 8.83118 11.9896 8.88476 12.0055 8.93497C12.0213 8.98518 12.0505 9.03012 12.09 9.06498C12.131 9.09757 12.1798 9.11887 12.2315 9.12676C12.2833 9.13466 12.3362 9.12887 12.385 9.10998C12.4327 9.09099 12.4744 9.0597 12.5061 9.01929C12.5377 8.97889 12.558 8.93081 12.565 8.87998C12.5851 8.75432 12.5952 8.62724 12.595 8.49998C12.5897 7.90228 12.3489 7.33077 11.9249 6.90952C11.5008 6.48827 10.9277 6.25127 10.33 6.24998V6.24998ZM10.29 7.11498C10.239 7.11429 10.1887 7.12683 10.144 7.15136C10.0994 7.1759 10.0618 7.2116 10.035 7.25498C10.0105 7.30028 9.99766 7.35098 9.99766 7.40248C9.99766 7.45399 10.0105 7.50468 10.035 7.54998C10.061 7.59407 10.0984 7.63033 10.1433 7.65497C10.1882 7.6796 10.2388 7.6917 10.29 7.68998C10.4038 7.68932 10.5166 7.71124 10.6218 7.75447C10.7271 7.79771 10.8227 7.8614 10.9031 7.94185C10.9836 8.02231 11.0473 8.11793 11.0905 8.22318C11.1337 8.32842 11.1557 8.4412 11.155 8.55498C11.1532 8.60674 11.1658 8.65797 11.1914 8.70299C11.217 8.74801 11.2546 8.78504 11.3 8.80998C11.344 8.83602 11.3942 8.84974 11.4453 8.84972C11.4964 8.8497 11.5466 8.83593 11.5905 8.80986C11.6345 8.78379 11.6707 8.74637 11.6952 8.70153C11.7197 8.65668 11.7317 8.60607 11.73 8.55498C11.7287 8.17347 11.5765 7.80797 11.3068 7.5382C11.037 7.26844 10.6715 7.1163 10.29 7.11498V7.11498Z"
          fill="white"/>
</svg>
