<svg width="40" height="40" viewBox="0 0 20 20" fill="none" xmlns="http://www.w3.org/2000/svg">
    <g clip-path="url(#clip0_182_21)">
        <path d="M10 0C8.02218 0 6.08878 0.58649 4.44429 1.6853C2.7998 2.78412 1.51808 4.34591 0.7612 6.17317C0.0043233 8.00043 -0.19371 10.0111 0.192142 11.9509C0.577994 13.8907 1.5304 15.6725 2.92893 17.0711C4.32745 18.4696 6.10928 19.422 8.04909 19.8079C9.9889 20.1937 11.9996 19.9957 13.8268 19.2388C15.6541 18.4819 17.2159 17.2002 18.3147 15.5557C19.4135 13.9112 20 11.9778 20 10C20 7.34784 18.9464 4.8043 17.0711 2.92893C15.1957 1.05357 12.6522 0 10 0V0Z"
              fill="#1976D2"/>
        <path d="M15.97 6.99993C15.9915 6.93206 16.0017 6.8611 16 6.78993C16 6.60993 15.87 6.47993 15.575 6.47993H14.265C14.1397 6.47672 14.0166 6.51386 13.914 6.58588C13.8114 6.6579 13.7346 6.76098 13.695 6.87993C13.206 7.86808 12.6162 8.80305 11.935 9.66993C11.63 9.98993 11.475 9.97993 11.31 9.97993C11.2172 9.9651 11.1335 9.9155 11.0759 9.84121C11.0183 9.76692 10.9912 9.6735 11 9.57993V6.99993C11 6.65493 10.915 6.49993 10.635 6.49993H8.31C8.26823 6.49919 8.22676 6.50704 8.18816 6.523C8.14955 6.53895 8.11463 6.56266 8.08557 6.59266C8.0565 6.62267 8.03391 6.65832 8.01919 6.69741C8.00447 6.73651 7.99794 6.77821 8 6.81993C8 7.15493 8.45 7.23493 8.5 8.16993V9.99993C8.5 10.4399 8.425 10.4999 8.26 10.4999C7.815 10.4999 6.94 8.99993 6.35 7.03493C6.225 6.64493 6.095 6.49993 5.765 6.49993H4.445C4.065 6.49993 4 6.68493 4 6.88493C4 7.24993 4.3 9.19493 5.94 11.4399C7.125 13.0599 8.69 13.9999 10.075 13.9999C10.915 13.9999 11 13.7849 11 13.4549V11.9549C11 11.5549 11.09 11.4899 11.36 11.4899C11.55 11.4899 11.94 11.6149 12.69 12.4899C13.55 13.4899 13.69 13.9899 14.19 13.9899H15.5C15.805 13.9899 16 13.8649 16 13.6149C16.0017 13.5438 15.9915 13.4728 15.97 13.4049C15.6836 12.802 15.3151 12.2417 14.875 11.7399C14.565 11.3699 14.265 10.9999 14.125 10.7999C14.0511 10.7166 14.0071 10.6111 14 10.4999C14.0168 10.3898 14.0596 10.2852 14.125 10.1949C14.125 10.1949 15.805 7.81993 15.97 6.99993Z"
              fill="white"/>
    </g>
    <defs>
        <clipPath id="clip0_182_21">
            <rect width="20" height="20" fill="white"/>
        </clipPath>
    </defs>
</svg>
