<svg width="40" height="40" viewBox="0 0 20 20" fill="none" xmlns="http://www.w3.org/2000/svg">
    <g clip-path="url(#clip0_182_16)">
        <path d="M10 19.999C8.24871 19.9992 6.52835 19.5375 5.01249 18.6605L1.11637 19.999L1.91951 15.8736C0.668254 14.1712 -0.00448208 12.1127 3.20235e-07 9.99992C-0.000176179 8.02207 0.586163 6.08859 1.68487 4.44398C2.78358 2.79937 4.3453 1.5175 6.17255 0.760489C7.99979 0.00347565 10.0105 -0.194685 11.9504 0.191066C13.8902 0.576818 15.6721 1.52916 17.0707 2.92765C18.4694 4.32614 19.4219 6.10796 19.8078 8.0478C20.1937 9.98763 19.9957 11.9983 19.2389 13.8257C18.482 15.653 17.2003 17.2148 15.5558 18.3137C13.9113 19.4125 11.9778 19.999 10 19.999V19.999Z"
              fill="#32BA46"/>
        <path d="M10 16.5321C8.8557 16.5316 7.73182 16.229 6.74193 15.6549L4.19418 16.5321L4.71712 13.8371C3.90193 12.7241 3.46415 11.3795 3.46779 9.99991C3.46779 8.70778 3.85095 7.44467 4.56881 6.37031C5.28668 5.29594 6.30701 4.45858 7.50078 3.9641C8.69455 3.46963 10.0081 3.34025 11.2754 3.59233C12.5427 3.84441 13.7068 4.46663 14.6205 5.3803C15.5342 6.29398 16.1564 7.45806 16.4085 8.72536C16.6606 9.99266 16.5312 11.3063 16.0367 12.5C15.5422 13.6938 14.7049 14.7141 13.6305 15.432C12.5561 16.1499 11.293 16.533 10.0009 16.533L10 16.5321ZM6.85883 14.5867L7.05604 14.7099C8.2365 15.4486 9.65093 15.718 11.0203 15.465C12.3896 15.212 13.6144 14.4549 14.453 13.3433C15.2916 12.2316 15.683 10.8459 15.5502 9.45978C15.4173 8.07362 14.7697 6.7876 13.7352 5.85546C12.7007 4.92331 11.3544 4.41274 9.96195 4.42448C8.56949 4.43623 7.232 4.96943 6.21336 5.91889C5.19473 6.86835 4.56894 8.16511 4.45946 9.55331C4.34999 10.9415 4.76478 12.3203 5.62199 13.4177L5.75852 13.5962L5.47296 15.0686L6.85883 14.5867Z"
              fill="white"/>
        <path d="M6.70177 7.48972C6.70177 7.48972 7.08549 6.81954 7.39782 6.78117C7.71016 6.7428 8.11173 6.7428 8.2206 6.94715C8.32947 7.15151 8.81403 8.33837 8.81403 8.33837C8.83723 8.40451 8.84527 8.47502 8.83754 8.54468C8.82982 8.61435 8.80653 8.68138 8.76941 8.74083C8.64467 8.91324 8.50619 9.07529 8.35534 9.2254C8.31067 9.28653 8.2866 9.36028 8.2866 9.436C8.2866 9.51171 8.31067 9.58547 8.35534 9.6466C8.62508 10.0507 8.93287 10.4282 9.2745 10.7737C9.78494 11.2859 10.7674 11.6509 10.7674 11.6509C10.8085 11.6556 10.85 11.6518 10.8895 11.6397C10.929 11.6275 10.9655 11.6073 10.9968 11.5804C11.086 11.4911 11.5715 10.8843 11.5715 10.8843C11.6212 10.8258 11.6893 10.7858 11.7646 10.7709C11.84 10.756 11.9182 10.767 11.9864 10.8022C12.2443 10.92 13.3643 11.4787 13.3643 11.4787C13.4087 11.5011 13.4452 11.5367 13.4687 11.5806C13.4922 11.6245 13.5015 11.6746 13.4954 11.7241C13.4954 11.9213 13.4151 12.4058 13.2518 12.5691C13.0885 12.7324 12.6093 13.2375 11.8901 13.2375C11.1708 13.2375 9.45922 12.6521 8.54631 11.7401C7.63341 10.8281 6.82313 9.90182 6.63216 9.06298C6.44119 8.22415 6.46618 7.83685 6.70177 7.48972Z"
              fill="white"/>
    </g>
    <defs>
        <clipPath id="clip0_182_16">
            <rect width="20" height="19.9991" fill="white"/>
        </clipPath>
    </defs>
</svg>
