<svg width="40" height="40" viewBox="0 0 40 40" fill="none" xmlns="http://www.w3.org/2000/svg">
<g clip-path="url(#clip0_24_3)">
<path d="M36.9986 14.3839L34.9334 12.5397L30.7255 14.1569L30.153 16.5196L27.9525 26.5019L35.0979 29.6147L35.9846 28.4699C37.2081 25.9607 37.8941 23.1412 37.8941 20.1611C37.8941 18.1469 37.5791 16.2062 36.9986 14.3839Z" fill="#FE7D43"/>
<path d="M29.6419 25.2907L27.1341 26.502L20.687 31.0432L23.5604 37.454L25.6118 37.9623V37.9631C30.196 36.2583 33.8848 32.7792 36.0102 28.4173L29.6419 25.2907Z" fill="#EE6161"/>
<path d="M23.1561 31.2263L21.7882 30.2675L13.6135 29.026L9.68591 35.3359L11.4938 37.6129V37.6137C13.7935 38.6028 16.3275 39.1505 18.9894 39.1505C21.3187 39.1505 23.5496 38.7315 25.6119 37.9631V37.9623L23.1561 31.2263Z" fill="#C2A1D5"/>
<path d="M13.9903 28.8646L9.44651 21.7268L1.51852 24.1797V27.6144C3.43201 32.0946 7.01911 35.6897 11.4938 37.6136V37.6128L14.3668 31.0431L13.9903 28.8646Z" fill="#8AC9FE"/>
<path d="M3.35696 11.1099L1.20423 13.4955H1.20343C0.425398 15.5697 0 17.8159 0 20.1611C0 22.8071 0.541342 25.3259 1.51848 27.6144H1.51928L8.13293 24.8445L8.99764 22.8583L9.51683 13.088L3.35696 11.1099Z" fill="#75CDD5"/>
<path d="M14.5464 3.06131H10.7213C6.35378 5.1771 2.91941 8.91612 1.20343 13.4955H1.20423L7.90104 16.0559L12.2798 13.8392L18.0704 8.63026L14.5464 3.06131Z" fill="#6CF5C2"/>
<path d="M30.2376 16.5197L29.8868 14.9599L25.564 16.0559L25.3311 18.0509C25.5526 18.7138 25.6718 19.4239 25.6718 20.1611C25.6718 21.1814 25.4431 22.1474 25.0345 23.0118L25.128 24.6036L27.9525 26.1066L29.6418 25.2907C30.3902 23.7394 30.81 21.9995 30.81 20.1611C30.8101 18.8905 30.6086 17.6671 30.2376 16.5197Z" fill="#FD6930"/>
<path d="M25.0345 23.0118C24.3044 24.5575 22.9995 25.7777 21.3954 26.3966L20.7788 27.5565L22.0641 30.8477L23.1562 31.2263C26.0052 30.1532 28.3297 28.0127 29.6419 25.2908L25.0345 23.0118Z" fill="#E94444"/>
<path d="M21.3954 26.3966C20.6494 26.6853 19.8378 26.8436 18.9894 26.8436C18.081 26.8436 17.2158 26.6629 16.4266 26.3334L15.078 26.4796L13.474 29.7497L14.3668 31.0432C15.7869 31.6477 17.3494 31.9819 18.9894 31.9819C20.4559 31.9819 21.86 31.7149 23.1562 31.2263L21.3954 26.3966Z" fill="#A274BF"/>
<path d="M12.8738 22.8583L11.8187 22.0954L8.37551 23.2886L8.1329 24.8445C9.33473 27.628 11.5753 29.8566 14.3667 31.0432L16.4266 26.3334C14.8425 25.6761 13.5655 24.4247 12.8738 22.8583Z" fill="#26A6FE"/>
<path d="M28.093 3.49308C25.3903 2.01378 22.2878 1.17178 18.9893 1.17178C16.0252 1.17178 13.2201 1.85066 10.7213 3.06128L13.8006 9.5382L16.8599 10.9102L26.4857 12.5398L29.2865 6.59624L28.093 3.49308Z" fill="#FEE97D"/>
<path d="M39.9715 12.9165C40.0667 13.1908 39.9148 13.489 39.6381 13.5754L37.0473 14.3838L32.1401 15.9151C31.043 12.5055 28.6617 9.67246 25.564 7.98687L28.0572 3.493L29.3766 1.11494C29.5157 0.863056 29.8356 0.774298 30.0842 0.919029C34.6709 3.57776 38.2188 7.82934 39.9715 12.9165Z" fill="#FEC165"/>
<path d="M12.3069 20.1611C12.3069 19.3639 12.4461 18.5995 12.7027 17.891L12.6437 15.1055H9.7783L7.90103 16.0559C7.42766 17.3345 7.16858 18.7178 7.16858 20.1611C7.16858 21.8251 7.51242 23.4084 8.13292 24.8445L12.8739 22.8582C12.5092 22.0338 12.3069 21.1215 12.3069 20.1611Z" fill="#2ABCC8"/>
<path d="M16.1993 10.3133L13.8006 9.53812C11.0875 10.8639 8.95807 13.1996 7.90097 16.0558L12.7027 17.8909C13.288 16.2709 14.481 14.9419 16.0075 14.1799V14.1791L17.1075 12.9406L16.1993 10.3133Z" fill="#00F2A6"/>
<path d="M24.6155 9.76206L24.6145 9.7619C22.9418 8.85521 21.0259 8.34033 18.9894 8.34033C17.1279 8.34033 15.3671 8.77053 13.8007 9.53816L16.0076 14.18C16.9048 13.7322 17.9179 13.4787 18.9894 13.4787C20.1217 13.4787 21.1875 13.7602 22.1215 14.2575L23.8033 14.3403L25.4488 12.1463L24.6155 9.76206Z" fill="#FEDF30"/>
<path d="M32.1401 15.9152L30.2018 16.5197L25.3312 18.0509C24.7866 16.4125 23.5971 15.0417 22.0938 14.2429L24.5797 9.76209L25.564 7.98694C28.6618 9.67254 31.043 12.5056 32.1401 15.9152Z" fill="#FDB441"/>
</g>
<defs>
<clipPath id="clip0_24_3">
<rect width="40" height="40" fill="white"/>
</clipPath>
</defs>
</svg>
