<svg width="135" height="43" viewBox="0 0 135 43" fill="none" xmlns="http://www.w3.org/2000/svg">
    <g clip-path="url(#clip0_5_7)">
        <path d="M36.9986 15.3839L34.9334 13.5397L30.7255 15.1569L30.153 17.5196L27.9525 27.5019L35.0979 30.6147L35.9846 29.4699C37.2081 26.9607 37.8941 24.1412 37.8941 21.1611C37.8941 19.1469 37.5791 17.2062 36.9986 15.3839Z"
              fill="#FE7D43"/>
        <path d="M29.6419 26.2907L27.1341 27.502L20.687 32.0432L23.5604 38.454L25.6118 38.9623V38.9631C30.196 37.2583 33.8848 33.7792 36.0102 29.4173L29.6419 26.2907Z"
              fill="#EE6161"/>
        <path d="M23.1561 32.2263L21.7882 31.2675L13.6135 30.026L9.68591 36.3359L11.4938 38.6129V38.6137C13.7935 39.6028 16.3275 40.1505 18.9894 40.1505C21.3187 40.1505 23.5496 39.7315 25.6119 38.9631V38.9623L23.1561 32.2263Z"
              fill="#C2A1D5"/>
        <path d="M13.9903 29.8646L9.44651 22.7268L1.51852 25.1797V28.6144C3.43201 33.0946 7.01911 36.6897 11.4938 38.6136V38.6128L14.3668 32.0431L13.9903 29.8646Z"
              fill="#8AC9FE"/>
        <path d="M3.35696 12.1099L1.20423 14.4955H1.20343C0.425398 16.5697 0 18.8159 0 21.1611C0 23.8071 0.541342 26.3259 1.51848 28.6144H1.51928L8.13293 25.8445L8.99764 23.8583L9.51683 14.088L3.35696 12.1099Z"
              fill="#75CDD5"/>
        <path d="M14.5464 4.06131H10.7213C6.35378 6.1771 2.91941 9.91612 1.20343 14.4955H1.20423L7.90104 17.0559L12.2798 14.8392L18.0704 9.63026L14.5464 4.06131Z"
              fill="#6CF5C2"/>
        <path d="M30.2376 17.5197L29.8868 15.9599L25.564 17.0559L25.3311 19.0509C25.5526 19.7138 25.6718 20.4239 25.6718 21.1611C25.6718 22.1814 25.4431 23.1474 25.0345 24.0118L25.128 25.6036L27.9525 27.1066L29.6418 26.2907C30.3902 24.7394 30.81 22.9995 30.81 21.1611C30.8101 19.8905 30.6086 18.6671 30.2376 17.5197Z"
              fill="#FD6930"/>
        <path d="M25.0345 24.0118C24.3044 25.5575 22.9995 26.7777 21.3954 27.3966L20.7788 28.5565L22.0641 31.8477L23.1562 32.2263C26.0052 31.1532 28.3297 29.0127 29.6419 26.2908L25.0345 24.0118Z"
              fill="#E94444"/>
        <path d="M21.3954 27.3966C20.6494 27.6853 19.8378 27.8436 18.9894 27.8436C18.081 27.8436 17.2158 27.6629 16.4266 27.3334L15.078 27.4796L13.474 30.7497L14.3668 32.0432C15.7869 32.6477 17.3494 32.9819 18.9894 32.9819C20.4559 32.9819 21.86 32.7149 23.1562 32.2263L21.3954 27.3966Z"
              fill="#A274BF"/>
        <path d="M12.8738 23.8583L11.8187 23.0954L8.37551 24.2886L8.1329 25.8445C9.33473 28.628 11.5753 30.8566 14.3667 32.0432L16.4266 27.3334C14.8425 26.6761 13.5655 25.4247 12.8738 23.8583Z"
              fill="#26A6FE"/>
        <path d="M28.093 4.49308C25.3903 3.01378 22.2878 2.17178 18.9893 2.17178C16.0252 2.17178 13.2201 2.85066 10.7213 4.06128L13.8006 10.5382L16.8599 11.9102L26.4857 13.5398L29.2865 7.59624L28.093 4.49308Z"
              fill="#FEE97D"/>
        <path d="M39.9715 13.9165C40.0667 14.1908 39.9148 14.489 39.6381 14.5754L37.0473 15.3838L32.1401 16.9151C31.043 13.5055 28.6617 10.6725 25.564 8.98687L28.0572 4.493L29.3766 2.11494C29.5157 1.86306 29.8356 1.7743 30.0842 1.91903C34.6709 4.57776 38.2188 8.82934 39.9715 13.9165Z"
              fill="#FEC165"/>
        <path d="M12.3069 21.1611C12.3069 20.3639 12.4461 19.5995 12.7027 18.891L12.6437 16.1055H9.7783L7.90103 17.0559C7.42766 18.3345 7.16858 19.7178 7.16858 21.1611C7.16858 22.8251 7.51242 24.4084 8.13292 25.8445L12.8739 23.8582C12.5092 23.0338 12.3069 22.1215 12.3069 21.1611Z"
              fill="#2ABCC8"/>
        <path d="M16.1993 11.3133L13.8006 10.5381C11.0875 11.8639 8.95807 14.1996 7.90097 17.0558L12.7027 18.8909C13.288 17.2709 14.481 15.9419 16.0075 15.1799V15.1791L17.1075 13.9406L16.1993 11.3133Z"
              fill="#00F2A6"/>
        <path d="M24.6155 10.7621L24.6145 10.7619C22.9418 9.85521 21.0259 9.34033 18.9894 9.34033C17.1279 9.34033 15.3671 9.77053 13.8007 10.5382L16.0076 15.18C16.9048 14.7322 17.9179 14.4787 18.9894 14.4787C20.1217 14.4787 21.1875 14.7602 22.1215 15.2575L23.8033 15.3403L25.4488 13.1463L24.6155 10.7621Z"
              fill="#FEDF30"/>
        <path d="M32.1401 16.9152L30.2018 17.5197L25.3312 19.0509C24.7866 17.4125 23.5971 16.0417 22.0938 15.2429L24.5797 10.7621L25.564 8.98694C28.6618 10.6725 31.043 13.5056 32.1401 16.9152Z"
              fill="#FDB441"/>
    </g>
    <path d="M69.0506 8.81818V35H65.8802V11.6307H52.687V35H49.5165V8.81818H69.0506ZM74.014 11.6307V8.81818H93.6504V11.6307H85.4174V35H82.247V11.6307H74.014ZM119.545 21.9091C119.545 24.6705 119.046 27.0568 118.049 29.0682C117.052 31.0795 115.684 32.6307 113.945 33.7216C112.206 34.8125 110.221 35.358 107.988 35.358C105.755 35.358 103.769 34.8125 102.03 33.7216C100.292 32.6307 98.9238 31.0795 97.9267 29.0682C96.9295 27.0568 96.4309 24.6705 96.4309 21.9091C96.4309 19.1477 96.9295 16.7614 97.9267 14.75C98.9238 12.7386 100.292 11.1875 102.03 10.0966C103.769 9.00568 105.755 8.46023 107.988 8.46023C110.221 8.46023 112.206 9.00568 113.945 10.0966C115.684 11.1875 117.052 12.7386 118.049 14.75C119.046 16.7614 119.545 19.1477 119.545 21.9091ZM116.476 21.9091C116.476 19.642 116.097 17.7287 115.339 16.169C114.589 14.6094 113.57 13.429 112.283 12.6278C111.005 11.8267 109.573 11.4261 107.988 11.4261C106.403 11.4261 104.966 11.8267 103.68 12.6278C102.401 13.429 101.383 14.6094 100.624 16.169C99.8741 17.7287 99.4991 19.642 99.4991 21.9091C99.4991 24.1761 99.8741 26.0895 100.624 27.6491C101.383 29.2088 102.401 30.3892 103.68 31.1903C104.966 31.9915 106.403 32.392 107.988 32.392C109.573 32.392 111.005 31.9915 112.283 31.1903C113.57 30.3892 114.589 29.2088 115.339 27.6491C116.097 26.0895 116.476 24.1761 116.476 21.9091Z"
          fill="url(#paint0_linear_5_7)"/>
    <path d="M69.0506 8.81818H70.0506V7.81818H69.0506V8.81818ZM69.0506 35V36H70.0506V35H69.0506ZM65.8801 35H64.8801V36H65.8801V35ZM65.8801 11.6307H66.8801V10.6307H65.8801V11.6307ZM52.687 11.6307V10.6307H51.687V11.6307H52.687ZM52.687 35V36H53.687V35H52.687ZM49.5165 35H48.5165V36H49.5165V35ZM49.5165 8.81818V7.81818H48.5165V8.81818H49.5165ZM68.0506 8.81818V35H70.0506V8.81818H68.0506ZM69.0506 34H65.8801V36H69.0506V34ZM66.8801 35V11.6307H64.8801V35H66.8801ZM65.8801 10.6307H52.687V12.6307H65.8801V10.6307ZM51.687 11.6307V35H53.687V11.6307H51.687ZM52.687 34H49.5165V36H52.687V34ZM50.5165 35V8.81818H48.5165V35H50.5165ZM49.5165 9.81818H69.0506V7.81818H49.5165V9.81818ZM74.014 11.6307H73.014V12.6307H74.014V11.6307ZM74.014 8.81818V7.81818H73.014V8.81818H74.014ZM93.6504 8.81818H94.6504V7.81818H93.6504V8.81818ZM93.6504 11.6307V12.6307H94.6504V11.6307H93.6504ZM85.4174 11.6307V10.6307H84.4174V11.6307H85.4174ZM85.4174 35V36H86.4174V35H85.4174ZM82.247 35H81.247V36H82.247V35ZM82.247 11.6307H83.247V10.6307H82.247V11.6307ZM75.014 11.6307V8.81818H73.014V11.6307H75.014ZM74.014 9.81818H93.6504V7.81818H74.014V9.81818ZM92.6504 8.81818V11.6307H94.6504V8.81818H92.6504ZM93.6504 10.6307H85.4174V12.6307H93.6504V10.6307ZM84.4174 11.6307V35H86.4174V11.6307H84.4174ZM85.4174 34H82.247V36H85.4174V34ZM83.247 35V11.6307H81.247V35H83.247ZM82.247 10.6307H74.014V12.6307H82.247V10.6307ZM118.049 29.0682L117.153 28.624L118.049 29.0682ZM113.945 33.7216L114.477 34.5687H114.477L113.945 33.7216ZM102.03 33.7216L101.499 34.5687L102.03 33.7216ZM97.9267 29.0682L98.8226 28.624L97.9267 29.0682ZM113.945 10.0966L114.477 9.24953H114.477L113.945 10.0966ZM118.049 14.75L117.153 15.1942L118.049 14.75ZM115.339 16.169L114.437 16.6024L114.439 16.6064L115.339 16.169ZM112.283 12.6278L111.752 13.4752L111.755 13.4768L112.283 12.6278ZM103.68 12.6278L103.151 11.7789L103.148 11.7805L103.68 12.6278ZM100.624 16.169L99.7248 15.7317L99.7229 15.7357L100.624 16.169ZM100.624 27.6491L99.7229 28.0825L99.7248 28.0865L100.624 27.6491ZM103.68 31.1903L103.148 32.0377L103.151 32.0393L103.68 31.1903ZM112.283 31.1903L111.755 30.3414L111.752 30.343L112.283 31.1903ZM115.339 27.6491L114.439 27.2118L114.437 27.2158L115.339 27.6491ZM118.545 21.9091C118.545 24.5511 118.068 26.7788 117.153 28.624L118.945 29.5124C120.024 27.3348 120.545 24.7898 120.545 21.9091H118.545ZM117.153 28.624C116.23 30.4861 114.981 31.8908 113.414 32.8745L114.477 34.5687C116.386 33.3706 117.874 31.673 118.945 29.5124L117.153 28.624ZM113.414 32.8745C111.848 33.8568 110.05 34.358 107.988 34.358V36.358C110.392 36.358 112.565 35.7682 114.477 34.5687L113.414 32.8745ZM107.988 34.358C105.926 34.358 104.127 33.8568 102.562 32.8745L101.499 34.5687C103.411 35.7682 105.584 36.358 107.988 36.358V34.358ZM102.562 32.8745C100.994 31.8908 99.7457 30.4861 98.8226 28.624L97.0307 29.5124C98.1019 31.673 99.5894 33.3706 101.499 34.5687L102.562 32.8745ZM98.8226 28.624C97.9078 26.7788 97.4309 24.5511 97.4309 21.9091H95.4309C95.4309 24.7898 95.9512 27.3348 97.0307 29.5124L98.8226 28.624ZM97.4309 21.9091C97.4309 19.267 97.9078 17.0394 98.8226 15.1942L97.0307 14.3058C95.9512 16.4834 95.4309 19.0284 95.4309 21.9091H97.4309ZM98.8226 15.1942C99.7457 13.3321 100.994 11.9274 102.562 10.9437L101.499 9.24953C99.5894 10.4476 98.1019 12.1451 97.0307 14.3058L98.8226 15.1942ZM102.562 10.9437C104.127 9.96142 105.926 9.46023 107.988 9.46023V7.46023C105.584 7.46023 103.411 8.04994 101.499 9.24953L102.562 10.9437ZM107.988 9.46023C110.05 9.46023 111.848 9.96142 113.414 10.9437L114.477 9.24953C112.565 8.04994 110.392 7.46023 107.988 7.46023V9.46023ZM113.414 10.9437C114.981 11.9274 116.23 13.3321 117.153 15.1942L118.945 14.3058C117.874 12.1451 116.386 10.4476 114.477 9.24953L113.414 10.9437ZM117.153 15.1942C118.068 17.0394 118.545 19.267 118.545 21.9091H120.545C120.545 19.0284 120.024 16.4834 118.945 14.3058L117.153 15.1942ZM117.476 21.9091C117.476 19.5352 117.08 17.4628 116.238 15.7317L114.439 16.6064C115.114 17.9946 115.476 19.7489 115.476 21.9091H117.476ZM116.24 15.7357C115.419 14.0298 114.282 12.694 112.812 11.7789L111.755 13.4768C112.859 14.164 113.758 15.189 114.437 16.6024L116.24 15.7357ZM112.814 11.7805C111.368 10.8744 109.751 10.4261 107.988 10.4261V12.4261C109.395 12.4261 110.641 12.779 111.752 13.4752L112.814 11.7805ZM107.988 10.4261C106.225 10.4261 104.604 10.8744 103.151 11.7789L104.208 13.4768C105.329 12.779 106.58 12.4261 107.988 12.4261V10.4261ZM103.148 11.7805C101.689 12.6953 100.553 14.0293 99.7248 15.7317L101.523 16.6064C102.213 15.1895 103.113 14.1627 104.211 13.4752L103.148 11.7805ZM99.7229 15.7357C98.891 17.4657 98.4991 19.5366 98.4991 21.9091H100.499C100.499 19.7475 100.857 17.9917 101.525 16.6024L99.7229 15.7357ZM98.4991 21.9091C98.4991 24.2816 98.891 26.3525 99.7229 28.0825L101.525 27.2158C100.857 25.8265 100.499 24.0707 100.499 21.9091H98.4991ZM99.7248 28.0865C100.553 29.7889 101.689 31.1229 103.148 32.0377L104.211 30.343C103.113 29.6555 102.213 28.6287 101.523 27.2118L99.7248 28.0865ZM103.151 32.0393C104.604 32.9438 106.225 33.392 107.988 33.392V31.392C106.58 31.392 105.329 31.0392 104.208 30.3414L103.151 32.0393ZM107.988 33.392C109.751 33.392 111.368 32.9438 112.814 32.0377L111.752 30.343C110.641 31.0392 109.395 31.392 107.988 31.392V33.392ZM112.812 32.0393C114.282 31.1242 115.419 29.7884 116.24 28.0825L114.437 27.2158C113.758 28.6292 112.859 29.6542 111.755 30.3414L112.812 32.0393ZM116.238 28.0865C117.08 26.3554 117.476 24.283 117.476 21.9091H115.476C115.476 24.0693 115.114 25.8236 114.439 27.2118L116.238 28.0865Z"
          fill="url(#paint1_linear_5_7)"/>
    <defs>
        <linearGradient id="paint0_linear_5_7" x1="84" y1="0" x2="84" y2="43" gradientUnits="userSpaceOnUse">
            <stop stop-color="#0999FF"/>
            <stop offset="1" stop-color="#52D4FF"/>
        </linearGradient>
        <linearGradient id="paint1_linear_5_7" x1="84" y1="0" x2="84" y2="43" gradientUnits="userSpaceOnUse">
            <stop stop-color="#0A9AFF"/>
            <stop offset="1" stop-color="#52D4FF"/>
        </linearGradient>
        <clipPath id="clip0_5_7">
            <rect width="40" height="40" fill="white" transform="translate(0 1)"/>
        </clipPath>
    </defs>
</svg>
