<svg width="600" xmlns="http://www.w3.org/2000/svg" viewBox="0 0 662.68 379.85">
    <defs>
        <style>
            .cls-1{fill:#ebebeb}.cls-2{fill:#e0e0e0}.cls-3{fill:#0068cc}.cls-4{opacity:.7}.cls-5{fill:#fff}.cls-6{fill:#263238}.cls-7{fill:#f4d3bd}.cls-8{fill:#eaae94}.cls-9{fill:#455a64}.cls-10{opacity:.6}.cls-11{isolation:isolate;opacity:.3}.cls-13{fill:#b78876}.cls-14{fill:#aa6550}
        </style>
    </defs>
    <g id="Слой_2">
        <g id="Слой_1-2">
            <path class="cls-1"
                  d="M24.15 280.24s-2.9 6.8 13 11.55 24.77 6 24.77 6 3.4 1.4 1.79 3.85-6.71 6.36-5.06 9.72 6.06 4 12 2.15 19-5.29 20.2-5.6 3 0 2.2 1.9-9.62 13.21-4 17.06 21.3-3.89 23-4.71 2.57-.6 3.18.19-2.71 4.32-5.08 7.65-4.53 7.61-1.09 9.56 16 .48 33.95-15l7.86-7.71-2.58-10.76c-6.94-22.67-16.76-30.61-20.71-30.8s-4.4 4.59-4.18 8.67 1.13 8.85.2 9.18-1.75.07-2.78-1.54-10.12-16.51-16.95-16.27-5.46 14.54-5.74 16.54-2.06 1.32-2.88.44-10.06-10.84-14.09-15.53-8-6.61-11.28-4.57-.95 8-.9 10.91-3.58 2.3-3.58 2.3-8.19-3.66-24.15-8.13-17.13 3-17.13 3"/>
            <path class="cls-2"
                  d="M153.13 318.27c-11.71-3.32-32.42-9.58-50.23-14.85S69 293.42 57.29 290l-13.85-4-3.77-1.08-1-.29-.33-.12.33.08 1 .26 3.78 1c3.29.89 8 2.22 13.88 3.88 11.71 3.33 27.85 8 45.65 13.33s38.54 11.63 50.22 15"/>
            <path class="cls-2"
                  d="M66 306.23a3.4 3.4 0 0 1 .69-.41l1.93-1c1.64-.81 3.94-1.86 6.49-3l6.55-2.82 2-.87a3.67 3.67 0 0 1 .74-.29 3.62 3.62 0 0 1-.68.41l-1.94 1c-1.65.79-4 1.82-6.51 2.94l-6.53 2.89-2 .88a3.38 3.38 0 0 1-.74.27Zm18.39-9.41c-.08 0-2.47-4.6-5.33-10.36s-5.1-10.47-5-10.52 2.47 4.6 5.33 10.36 5.13 10.47 5 10.52Zm27 9.33a3.62 3.62 0 0 1-.18-.79c-.1-.58-.24-1.31-.39-2.17-.33-1.84-.8-4.37-1.42-7.15s-1.25-5.27-1.73-7.07c-.23-.85-.42-1.57-.57-2.14a3.68 3.68 0 0 1-.17-.8 5 5 0 0 1 .3.76c.17.5.4 1.21.67 2.11.54 1.79 1.22 4.28 1.84 7.07s1 5.33 1.32 7.18c.13.92.23 1.67.28 2.19a3.16 3.16 0 0 1 .05.81Zm-14.78 12.18a2.66 2.66 0 0 1 .53-.53c.41-.38.92-.83 1.52-1.37 1.3-1.13 3.1-2.69 5.11-4.39s3.84-3.22 5.18-4.31l1.59-1.28a3.32 3.32 0 0 1 .62-.44 3.87 3.87 0 0 1-.53.54l-1.52 1.36c-1.3 1.14-3.11 2.69-5.12 4.39s-3.83 3.23-5.17 4.32l-1.6 1.28a3.2 3.2 0 0 1-.61.43Zm22.77 11.27a4.37 4.37 0 0 1 .68-.68l2-1.75c1.65-1.47 4-3.48 6.5-5.68s4.88-4.19 6.58-5.61l2-1.67a5.48 5.48 0 0 1 .77-.57 5.38 5.38 0 0 1-.68.67l-1.95 1.76c-1.65 1.46-3.95 3.47-6.5 5.68s-4.88 4.18-6.57 5.6l-2 1.67a5.16 5.16 0 0 1-.83.58Zm17.94-15.71a5.85 5.85 0 0 1-.25-1c-.16-.71-.35-1.63-.6-2.74-.5-2.32-1.21-5.51-2.09-9s-1.75-6.65-2.4-8.93c-.31-1.09-.57-2-.76-2.7a5.85 5.85 0 0 1-.25-1 7 7 0 0 1 .37 1c.22.62.52 1.53.88 2.66.7 2.26 1.62 5.41 2.5 8.92s1.55 6.71 2 9c.22 1.16.39 2.11.49 2.76a5.07 5.07 0 0 1 .11 1Z"/>
            <path class="cls-1"
                  d="M475.52 104.8c-14-9.39-17.4-27.21-17.14-43.3 0-2.68-.3-5.51.93-7.88s4.19-4 6.61-2.95c2 .9 2.92 3.2 4.07 5.1a15.63 15.63 0 0 0 6.4 5.9c1.72.86 3.84 1.36 5.51.4 2.3-1.32 2.51-4.52 2.45-7.19L484 40a24.67 24.67 0 0 1 .67-7.94c.78-2.55 2.57-4.93 5.1-5.69s5.69.65 6.27 3.26a26.26 26.26 0 0 1 .14 3.32 2.8 2.8 0 0 0 1.69 2.61c1.07.3 2.12-.48 2.91-1.27 2.7-2.75 4.51-6.25 6.2-9.73s3.31-7 5.76-10 5.86-5.38 9.68-5.66 7.93 2 9 5.74-1.1 7.6-3.43 10.68a59.75 59.75 0 0 1-12.19 12 4.93 4.93 0 0 0-2 2.26c-.55 1.79 1.17 3.53 2.94 4.08 2 .63 4.15.39 6.24.59s4.35 1.09 5.18 3c1.14 2.71-1.09 5.61-3.31 7.52a51 51 0 0 1-14.94 9 17 17 0 0 0-5.57 2.83c-1.56 1.4-2.47 3.82-1.48 5.68s3.46 2.42 5.51 2 3.87-1.57 5.81-2.34c3.65-1.45 8.39-1.28 10.79 1.84a8.47 8.47 0 0 1 1 7.46 19.44 19.44 0 0 1-3.97 6.67 51.31 51.31 0 0 1-21.69 15.77c-8.46 3.1-16.33 4-24.84 1.09"/>
            <path class="cls-2"
                  d="M479.52 94.68a239.77 239.77 0 0 1 9-25.91c.92-2.25 1.82-4.48 2.72-6.67s1.76-4.36 2.76-6.42a118.62 118.62 0 0 1 6.44-11.56c2.22-3.57 4.46-6.89 6.58-10s4.16-5.91 6.13-8.41a94.44 94.44 0 0 1 10.16-11.11c1.29-1.21 2.33-2.12 3-2.72l.81-.69a2 2 0 0 1 .29-.22 2.13 2.13 0 0 1-.26.26l-.78.72c-.69.63-1.7 1.56-3 2.79a98.3 98.3 0 0 0-10 11.19c-1.94 2.51-4 5.34-6.07 8.43s-4.32 6.4-6.53 10a118.64 118.64 0 0 0-6.38 11.52c-1 2.06-1.87 4.21-2.77 6.4L488.9 69a243.46 243.46 0 0 0-9 25.85"/>
            <path class="cls-2"
                  d="M494.15 55.62a4.92 4.92 0 0 1-.28-1.13c-.15-.74-.34-1.81-.55-3.13-.42-2.65-.88-6.33-1.38-10.39s-1-7.73-1.46-10.36c-.23-1.32-.43-2.39-.57-3.12a5.08 5.08 0 0 1-.17-1.16 5.4 5.4 0 0 1 .35 1.12c.21.72.45 1.78.73 3.09.55 2.63 1.12 6.3 1.61 10.37s.91 7.63 1.24 10.4c.15 1.25.29 2.3.39 3.15a5 5 0 0 1 .09 1.16Z"/>
            <path class="cls-2"
                  d="M528.35 48.6a7 7 0 0 1-1.36.19c-.88.1-2.16.23-3.72.44-3.14.39-7.45 1.09-12.18 2.06s-9 2.06-12 2.93c-1.53.42-2.75.8-3.6 1.05a6.15 6.15 0 0 1-1.34.35 8.42 8.42 0 0 1 1.28-.53c.83-.31 2-.74 3.56-1.21 3-1 7.26-2.08 12-3.07a117.56 117.56 0 0 1 12.24-1.93c1.58-.17 2.86-.25 3.74-.28a8 8 0 0 1 1.38 0ZM479.88 94a2.86 2.86 0 0 1-.24-.42c-.16-.33-.36-.74-.61-1.23-.52-1.07-1.24-2.64-2.1-4.59-1.72-3.9-3.94-9.37-6.3-15.43s-4.52-11.54-6.16-15.47c-.8-1.91-1.47-3.49-2-4.65L462 51a1.93 1.93 0 0 1-.16-.46 4.25 4.25 0 0 1 .25.42l.61 1.23c.52 1.07 1.24 2.64 2.1 4.59 1.72 3.9 3.94 9.36 6.3 15.43s4.56 11.51 6.2 15.51c.8 1.91 1.46 3.48 2 4.65l.52 1.27a1.19 1.19 0 0 1 .11.42Z"/>
            <path class="cls-2"
                  d="M525.22 78.51a1.51 1.51 0 0 1-.45.2l-1.32.47-4.85 1.66c-4.1 1.41-9.74 3.43-16 5.66s-11.89 4.19-16 5.52c-2.06.66-3.74 1.18-4.9 1.52l-1.35.38a2.73 2.73 0 0 1-.48.1 1.51 1.51 0 0 1 .45-.2l1.32-.47c1.22-.41 2.86-1 4.85-1.67 4.1-1.4 9.74-3.42 16-5.65s11.89-4.19 16-5.52c2.06-.66 3.74-1.18 4.9-1.52l1.35-.38a2.4 2.4 0 0 1 .48-.1Z"/>
            <path class="cls-1"
                  d="M628.43 171.91a10.19 10.19 0 0 1-3.73 7 18 18 0 0 1-7.31 3.48c-5.11 1.28-11.11.35-16.15-1.19 2.06-5.47 8-8.78 11.1-10.26 4.92-2.35 15.25-3.61 16.09 1M595 189a8.64 8.64 0 0 1 8.68-.26 11.52 11.52 0 0 1 5.46 7 4.84 4.84 0 0 1-.26 4.07 3.71 3.71 0 0 1-3.5 1.37 7.51 7.51 0 0 1-3.53-1.64c-3.59-2.74-6.55-6.05-6.85-10.55"/>
            <path class="cls-2"
                  d="M581.78 188.4a16.51 16.51 0 0 1 3.42-.64 16.19 16.19 0 0 1 3.81 0 33.94 33.94 0 0 1 4.59.71 17.29 17.29 0 0 1 7.52 3.78 13 13 0 0 1 1.71 1.92 2.78 2.78 0 0 1 .47.82c-.09.06-.82-1.07-2.45-2.42a18.74 18.74 0 0 0-7.39-3.53 43.24 43.24 0 0 0-4.51-.74 18.4 18.4 0 0 0-3.71-.12 23.56 23.56 0 0 1-3.46.22Z"/>
            <path class="cls-2"
                  d="M620.66 173.56a11.71 11.71 0 0 1-1.59.78c-1 .46-2.53 1.12-4.4 1.91-3.72 1.58-8.9 3.71-14.67 5.93s-11.06 4.06-14.91 5.32c-1.93.63-3.49 1.12-4.58 1.44a9.34 9.34 0 0 1-1.71.44 9.37 9.37 0 0 1 1.64-.66l4.51-1.61c3.81-1.36 9.07-3.28 14.84-5.49l14.73-5.76 4.47-1.73a10 10 0 0 1 1.67-.57Z"/>
            <path class="cls-1"
                  d="M590.73 183.52a20.25 20.25 0 0 0 7.79-16.78c-.08-1.64-.59-3.55-2.13-4.09s-3.15.63-4.2 1.88a17.28 17.28 0 0 0-1.88 19.1"/>
            <path class="cls-2"
                  d="M594.9 169.87a2.9 2.9 0 0 1 0 .93 23.75 23.75 0 0 1-.23 2.51 22.94 22.94 0 0 1-2.47 7.95 14.68 14.68 0 0 1-2.89 3.62 14.11 14.11 0 0 1-5.52 3 2.83 2.83 0 0 1-.91.18c0-.12 1.24-.47 3.09-1.44a14.94 14.94 0 0 0 3-2.12 14.53 14.53 0 0 0 2.74-3.5 25.69 25.69 0 0 0 2.57-7.73 30.31 30.31 0 0 1 .62-3.4Z"/>
            <path class="cls-1"
                  d="M60.79 0a12 12 0 0 1 8.85 3.2 21.21 21.21 0 0 1 5.32 8c2.37 5.76 2.3 12.94 1.36 19.1-6.76-1.47-11.64-7.85-13.91-11.25-3.59-5.36-6.82-17.23-1.62-19m25.73 36.26a10.26 10.26 0 0 1-1.79-10.13A13.58 13.58 0 0 1 92 18.6c1.52-.69 3.32-1.13 4.81-.39A4.38 4.38 0 0 1 99 22.07a8.87 8.87 0 0 1-1.32 4.42c-2.59 4.66-6 8.7-11.18 9.82"/>
            <path class="cls-2"
                  d="M88.06 51.84a20 20 0 0 1-1.34-3.9 18.71 18.71 0 0 1-.66-4.46 41.91 41.91 0 0 1 0-5.49 20.42 20.42 0 0 1 3.15-9.45 15.56 15.56 0 0 1 1.99-2.34c.54-.48.85-.71.89-.68a25.75 25.75 0 0 0-2.41 3.28 21.92 21.92 0 0 0-2.88 9.25 48.84 48.84 0 0 0-.09 5.41 20.59 20.59 0 0 0 .49 4.36 29 29 0 0 1 .86 4.02Z"/>
            <path class="cls-2"
                  d="M64.05 8.85a11.29 11.29 0 0 1 1.18 1.71c.73 1.13 1.75 2.78 3 4.83 2.49 4.1 5.87 9.79 9.44 16.18s6.65 12.25 8.78 16.55c1.07 2.14 1.91 3.89 2.47 5.11a11.12 11.12 0 0 1 .8 1.92 12.44 12.44 0 0 1-1-1.8l-2.66-5c-2.24-4.23-5.38-10.06-9-16.43L67.8 15.68c-1.14-2-2.08-3.66-2.8-4.94a11.93 11.93 0 0 1-.95-1.89Z"/>
            <path class="cls-1"
                  d="M80.81 42.19a23.92 23.92 0 0 0-21-6.25c-1.9.37-4 1.29-4.42 3.19s1.27 3.57 2.91 4.6a20.47 20.47 0 0 0 22.72-1"/>
            <path class="cls-2"
                  d="M64.13 39.68a3.26 3.26 0 0 1 1.08-.18c.7-.08 1.72-.13 3-.15a27.06 27.06 0 0 1 9.73 1.53 16.74 16.74 0 0 1 4.72 2.77 16.23 16.23 0 0 1 4.44 6 3.54 3.54 0 0 1 .37 1c-.13.06-.75-1.38-2.21-3.38a17.73 17.73 0 0 0-3-3.12 17.23 17.23 0 0 0-4.56-2.61 30.15 30.15 0 0 0-9.49-1.69 34.69 34.69 0 0 1-4.08-.12Z"/>
            <path class="cls-1"
                  d="M298 368.26a10.65 10.65 0 0 1 .05-8.38 18.8 18.8 0 0 1 5.15-6.88c4.14-3.7 10.19-5.77 15.66-6.82.76 6.13-3.15 12.13-5.33 15-3.44 4.62-12.46 10.86-15.5 7m22.86-32.4a9.11 9.11 0 0 1-8 4.51 12.12 12.12 0 0 1-8.54-3.87 5.07 5.07 0 0 1-1.75-3.93 3.88 3.88 0 0 1 2.59-3 7.82 7.82 0 0 1 4.1-.2c4.7.79 9.09 2.42 11.58 6.48"/>
            <path class="cls-2"
                  d="M333.52 329.94a17.61 17.61 0 0 1-2.88 2.28 16.78 16.78 0 0 1-3.55 1.88 38.33 38.33 0 0 1-4.63 1.59 18.32 18.32 0 0 1-8.89.16 13.34 13.34 0 0 1-2.54-.94c-.56-.31-.85-.5-.83-.54a23.09 23.09 0 0 0 3.47 1.05 19.55 19.55 0 0 0 8.64-.33q2.32-.64 4.57-1.52a18.5 18.5 0 0 0 3.52-1.72 29.25 29.25 0 0 1 3.12-1.91Z"/>
            <path class="cls-2"
                  d="M304.52 362.9a10.78 10.78 0 0 1 1.1-1.51c.73-.94 1.82-2.29 3.17-3.94 2.7-3.31 6.49-7.84 10.8-12.75s8.33-9.22 11.31-12.29c1.48-1.54 2.7-2.77 3.56-3.6a11 11 0 0 1 1.38-1.25 10.86 10.86 0 0 1-1.2 1.42c-.89 1-2 2.22-3.42 3.73-2.9 3.14-6.86 7.51-11.17 12.41l-10.92 12.61-3.33 3.82a10.92 10.92 0 0 1-1.28 1.35Z"/>
            <path class="cls-1"
                  d="M327.52 338.9a21.34 21.34 0 0 0 1 19.49c.87 1.49 2.29 3 4 2.77s2.63-2.13 3-3.82a18.28 18.28 0 0 0-7.63-18.76"/>
            <path class="cls-2"
                  d="M330.35 353.68a5.94 5.94 0 0 1-.48-.86c-.27-.57-.61-1.4-1-2.45a24.1 24.1 0 0 1-1.6-8.64 15.42 15.42 0 0 1 .92-4.8 14.14 14.14 0 0 1 1.92-3.49 13.48 13.48 0 0 1 1.78-2c.46-.43.73-.65.76-.62s-.93 1-2.18 2.86a14.88 14.88 0 0 0-2.58 8.05 26.93 26.93 0 0 0 1.4 8.49 32.12 32.12 0 0 1 1.06 3.46Z"/>
            <path class="cls-3"
                  d="M1.06 144.84c-4.21-24.3 4.24-51.14 23.63-66.36S74.22 62.13 93 78.09c13.21 11.23 19.39 28.37 27.26 43.82s19.79 31.09 36.92 33.76c14.78 2.3 29.64-5.78 44.47-3.84 14.48 1.89 26.6 13.73 30.77 27.72s1 29.54-6.42 42.08-19 22.31-31.55 29.71c-40.49 23.81-94.22 23-134-1.93s-63.84-73-60-119.83"/>
            <g class="cls-4">
                <path class="cls-5"
                      d="M1.06 144.84c-4.21-24.3 4.24-51.14 23.63-66.36S74.22 62.13 93 78.09c13.21 11.23 19.39 28.37 27.26 43.82s19.79 31.09 36.92 33.76c14.78 2.3 29.64-5.78 44.47-3.84 14.48 1.89 26.6 13.73 30.77 27.72s1 29.54-6.42 42.08-19 22.31-31.55 29.71c-40.49 23.81-94.22 23-134-1.93s-63.84-73-60-119.83"/>
            </g>
            <path class="cls-3"
                  d="M235.63 362.34c13.15-9 19.33-28.76 11.11-42.39-8.32-12.4-21.24-22.29-36-24.38s-31.15 4.9-37.73 18.31c-4.15 8.44-4.16 18.64-.72 27.39a43.48 43.48 0 0 0 18.19 20.91c13.59 8.22 32 9.14 45.15.16Z"/>
            <g class="cls-4">
                <path class="cls-5"
                      d="M235.63 362.34c13.15-9 19.33-28.76 11.11-42.39-8.32-12.4-21.24-22.29-36-24.38s-31.15 4.9-37.73 18.31c-4.15 8.44-4.16 18.64-.72 27.39a43.48 43.48 0 0 0 18.19 20.91c13.59 8.22 32 9.14 45.15.16Z"/>
            </g>
            <path class="cls-3"
                  d="M662.63 279.51c-.81-21.05-11.24-41.92-28.7-53.7s-41.77-13.39-59.76-2.44c-11.21 6.82-19.34 17.68-26.11 28.92-3.71 6.16-7.58 13-14.25 15.64-8.67 3.51-18.2-1.27-27.37-3.1a43.06 43.06 0 0 0-50 30.94c-8 33.19 15.27 56.88 40.15 71.26 27.81 16.08 63 16.06 93.24 5.34 19.85-7 38.35-18.6 51.87-34.75s21.75-37.06 20.93-58.11Z"/>
            <g class="cls-4">
                <path class="cls-5"
                      d="M662.63 279.51c-.81-21.05-11.24-41.92-28.7-53.7s-41.77-13.39-59.76-2.44c-11.21 6.82-19.34 17.68-26.11 28.92-3.71 6.16-7.58 13-14.25 15.64-8.67 3.51-18.2-1.27-27.37-3.1a43.06 43.06 0 0 0-50 30.94c-8 33.19 15.27 56.88 40.15 71.26 27.81 16.08 63 16.06 93.24 5.34 19.85-7 38.35-18.6 51.87-34.75s21.75-37.06 20.93-58.11Z"/>
            </g>
            <path class="cls-3"
                  d="M614.83 99.68c-2.57-16.8-18.77-31.9-35.68-30.28-15.79 2.29-31.28 10.16-40.15 23.44s-9.67 32.25.2 44.78c6.21 7.89 16 12.62 26 13.35a46.46 46.46 0 0 0 28.53-7.86c14.25-9.3 23.64-26.61 21.07-43.43Z"/>
            <g class="cls-4">
                <path class="cls-5"
                      d="M614.83 99.68c-2.57-16.8-18.77-31.9-35.68-30.28-15.79 2.29-31.28 10.16-40.15 23.44s-9.67 32.25.2 44.78c6.21 7.89 16 12.62 26 13.35a46.46 46.46 0 0 0 28.53-7.86c14.25-9.3 23.64-26.61 21.07-43.43Z"/>
            </g>
            <path class="cls-6"
                  d="M419 103.91c2.18-.27 3.91-1.87 5.89-2.8a10.22 10.22 0 0 1 9.42.47c2.81 1.68 4.81 3.7 5 7l-3.67 4"/>
            <path class="cls-7"
                  d="m442.28 124.35-5.9 35.41c-1 6-3.7 14.67-13.15 12.65-8.07-2.37-8.86-10.55-7.92-16.17.45-2.67.82-4.89.84-5.17 0 0-8.87-2.35-8-11.38.41-4.36 2-13.29 3.48-21.34A16.89 16.89 0 0 1 430 104.68l.87.09c9.29 1.52 13.2 10.29 11.41 19.58Z"/>
            <path class="cls-8" d="M416.15 150.94a21.14 21.14 0 0 0 12.11-2.11s-3.46 6.2-12.37 4.45Z"/>
            <path class="cls-6"
                  d="M412.41 123.75c.18.16 1.4-.3 3.07-.1s2.84.93 3 .8-.08-.33-.59-.66a5.76 5.76 0 0 0-2.41-.82 5.26 5.26 0 0 0-2.46.26c-.5.21-.7.45-.61.52Zm13.7 1.53c.18.16 1.4-.29 3.06-.09s2.83.92 3 .8-.08-.33-.59-.66a6.05 6.05 0 0 0-2.4-.81 5.35 5.35 0 0 0-2.45.25c-.52.23-.73.44-.62.51Zm-.31 2.22a1 1 0 0 0 .85 1.1 1 1 0 1 0 .27-1.89 1 1 0 0 0-1.12.79Zm-12.95-1.42a1 1 0 0 0 .85 1.11 1 1 0 1 0 .27-1.9 1 1 0 0 0-1.12.79Zm7.67 8.34a9 9 0 0 0-2.21-.64c-.35-.08-.68-.18-.71-.43a1.73 1.73 0 0 1 .35-1c.42-.82.86-1.68 1.33-2.58a50.11 50.11 0 0 0 3.09-6.8c-.15-.08-1.78 2.85-3.63 6.53l-1.22 2.58a2 2 0 0 0-.33 1.37.9.9 0 0 0 .53.58 3 3 0 0 0 .59.15 9.08 9.08 0 0 0 2.21.24Zm7.26-15.19c.09.36 1.32.32 2.74.65s2.53.86 2.76.57-.07-.49-.5-.87a4.61 4.61 0 0 0-2-1 4.55 4.55 0 0 0-2.2 0c-.58.24-.83.48-.8.65Zm-14.65.22c.11.3 1.33.21 2.74.42s2.56.6 2.76.34-.1-.4-.56-.7a5.34 5.34 0 0 0-4.18-.58c-.53.16-.8.38-.76.52Z"/>
            <path class="cls-7" d="M440.84 131c.16 0 6.39-1.19 5.55 5s-6.84 4-6.83 3.85 1.28-8.85 1.28-8.85Z"/>
            <path class="cls-8"
                  d="M441.76 137.68a1.72 1.72 0 0 0 .26.2 1.11 1.11 0 0 0 .8.13 2.67 2.67 0 0 0 1.55-2.21 3.51 3.51 0 0 0-.09-1.58 1.23 1.23 0 0 0-.69-.93.55.55 0 0 0-.67.21c-.11.16-.08.29-.12.29s-.12-.12 0-.37a.67.67 0 0 1 .29-.35.79.79 0 0 1 .62-.07 1.52 1.52 0 0 1 1 1.1 3.67 3.67 0 0 1 .14 1.77 2.83 2.83 0 0 1-1.93 2.44 1.18 1.18 0 0 1-1-.3c-.17-.17-.19-.33-.16-.33Z"/>
            <path class="cls-6"
                  d="M409.87 116.27a13.09 13.09 0 0 0 11.85-1.39c2.39-1.63 4.36-4.13 7.2-4.68a7.36 7.36 0 0 1 5.52 1.35 14.3 14.3 0 0 1 3.84 4.35c-2.22 4.4-1.59 9.64-.9 14.52a2.43 2.43 0 0 0 .57 1.5 2 2 0 0 0 2.51-.28 7.66 7.66 0 0 0 2.1-3.85 25.61 25.61 0 0 0 1-10 17.37 17.37 0 0 0-3.83-9.21 16.46 16.46 0 0 0-11-5.54 20.16 20.16 0 0 0-12.09 2.96 11.87 11.87 0 0 0-4.24 4"/>
            <path class="cls-6"
                  d="M410.41 124.8c.58-2.48.85-5.61 1.43-8.09a15.12 15.12 0 0 0 11.16-2.77c1.64-1.27 3.06-3 5-3.56 2.57-.74 5.23.61 7.56 1.92l-.09-.11a11.21 11.21 0 0 1 3 3.1 35.23 35.23 0 0 0-1.13 15 2.54 2.54 0 0 0 1.17 1.85c1.27.77 2.22-.1 3.18-.69.7-.44 1.7-.72 2.3-.15a35.12 35.12 0 0 0 4.06-10 2.52 2.52 0 0 0 4.44 2.22 5.26 5.26 0 0 1-1.19-2.52 3.27 3.27 0 0 0 4.6-.31l.05-.06-1.95-2 2.78.15a14.81 14.81 0 0 1-5.28-4.57 23.05 23.05 0 0 0-4.91-5c-2-1.28-4.64-1.8-6.68-.62.14-3.25-2.19-6.26-5.14-7.63a21.11 21.11 0 0 0-11.18-1.11c-2.46.52-5 2-8.21 4.31a29.85 29.85 0 0 0-4.26 3.68c-1.94 2-5.81 5.41-9.52 4.41l.33 3.82c2 1.91 6.13.23 6.13.23s-2.38 2.37-4.61 2.31l.6 3.28s3.37.59 4.85-2Z"/>
            <path class="cls-9"
                  d="M438.28 115.9s-.29-.48-.9-1.29a11.42 11.42 0 0 0-3.1-2.86 12 12 0 0 0-2.72-1 5.89 5.89 0 0 0-3.25-.08c-2.26.68-3.91 3-6.33 4.43a13.93 13.93 0 0 1-7.52 2.23 17.54 17.54 0 0 1-1.78-.08 1.54 1.54 0 0 0-.74 0 4.8 4.8 0 0 0-2.61 2.48 5.39 5.39 0 0 1-3.7 2.19 5.82 5.82 0 0 1-1.18 0 1.34 1.34 0 0 1-.4-.07s.57 0 1.55-.15a5.32 5.32 0 0 0 3.45-2.21 6.85 6.85 0 0 1 2-2.28 6.73 6.73 0 0 1 .76-.38 2.19 2.19 0 0 1 .92-.08 16.57 16.57 0 0 0 1.73.06 13.8 13.8 0 0 0 7.27-2.2 25 25 0 0 0 3.17-2.45 9.51 9.51 0 0 1 3.29-2 6.34 6.34 0 0 1 3.48.11 11.87 11.87 0 0 1 2.79 1.14 10.82 10.82 0 0 1 3.08 3.06 6.79 6.79 0 0 1 .6 1c.11.29.16.42.14.43Zm9.71 5.41a1.22 1.22 0 0 1-.17.51 4.53 4.53 0 0 1-.78 1.28 2.39 2.39 0 0 1-2.14.87 1.66 1.66 0 0 1-1.21-.86 2.45 2.45 0 0 1-.27-1.55l.46.12a2 2 0 0 1-1.74 1.17 2.4 2.4 0 0 1-1.82-.68 3.78 3.78 0 0 1-1-1.49 9.63 9.63 0 0 1-.41-2.87 13.91 13.91 0 0 0-.33-2.57 4.75 4.75 0 0 1 .67 2.55 10.12 10.12 0 0 0 .5 2.73 3.29 3.29 0 0 0 .86 1.29 2 2 0 0 0 1.47.55 1.54 1.54 0 0 0 1.32-.86l.83-2.07-.37 2.19a1.61 1.61 0 0 0 1.08 1.94 2.13 2.13 0 0 0 1.84-.67 6.56 6.56 0 0 0 .87-1.15c.21-.29.32-.44.34-.43Zm-2.26 6.76a2.66 2.66 0 0 1-1.73.45 5.93 5.93 0 0 1-3.93-1.72 11.07 11.07 0 0 1-2.35-3.58 5.47 5.47 0 0 1-.58-1.66 7.88 7.88 0 0 1 .89 1.51 13.77 13.77 0 0 0 2.38 3.38 6.18 6.18 0 0 0 3.61 1.72 14 14 0 0 0 1.71-.1Z"/>
            <path class="cls-9"
                  d="M445.44 129.22a3.26 3.26 0 0 1-1.52.11 8.33 8.33 0 0 1-3.49-1.18 8.14 8.14 0 0 1-2.64-2.58 2.94 2.94 0 0 1-.59-1.41 11.68 11.68 0 0 1 .88 1.21A9.46 9.46 0 0 0 444 129a9.19 9.19 0 0 1 1.47.24Zm4-23a10 10 0 0 1-1.54-.21 10.42 10.42 0 0 0-3.65.22 10.2 10.2 0 0 0-3.34 1.51c-.77.54-1.2 1-1.26.91a3.43 3.43 0 0 1 1.05-1.19 8.8 8.8 0 0 1 3.43-1.71 8.64 8.64 0 0 1 3.82-.08 3.5 3.5 0 0 1 1.49.55Z"/>
            <path class="cls-9"
                  d="M441.06 100.85a7.8 7.8 0 0 1-1.28 8.19 19.37 19.37 0 0 0 1.33-4 18.94 18.94 0 0 0-.05-4.19Z"/>
            <path class="cls-9"
                  d="M405.14 112a4.25 4.25 0 0 0 1.29.74 7.12 7.12 0 0 0 4-.47c.82-.27 1.71-.63 2.68-1a17.42 17.42 0 0 0 2.93-1.38c2-1.14 4-2.77 6.47-3.88a11.13 11.13 0 0 1 3.84-1 7 7 0 0 1 3.63.75c2.11 1.1 3.6 2.62 5.2 3.25a5.15 5.15 0 0 0 3.93.18 4.24 4.24 0 0 0 1.19-.87 1.93 1.93 0 0 1-.21.34 3 3 0 0 1-.9.71 5.31 5.31 0 0 1-4.14 0c-1.71-.64-3.25-2.16-5.27-3.17a6.68 6.68 0 0 0-3.4-.68 11.19 11.19 0 0 0-3.67 1c-2.41 1.07-4.41 2.68-6.45 3.82a16.61 16.61 0 0 1-3 1.38c-1 .34-1.86.69-2.7.94a7 7 0 0 1-4.15.32 2.7 2.7 0 0 1-1-.61 1.41 1.41 0 0 1-.27-.37Z"/>
            <path class="cls-9"
                  d="M440 108.52a33.54 33.54 0 0 0-2.37-2.4 14.12 14.12 0 0 0-7.32-3.19 24.71 24.71 0 0 0-4.47 0 24.33 24.33 0 0 1-3.72.08 8 8 0 0 1-2.46-.54 2.28 2.28 0 0 1-.81-.44 12.28 12.28 0 0 0 3.29.63 28.19 28.19 0 0 0 3.67-.18 21.72 21.72 0 0 1 4.56-.09 13.68 13.68 0 0 1 7.49 3.42 11.88 11.88 0 0 1 1.67 1.87 3.3 3.3 0 0 1 .47.79Z"/>
            <path class="cls-6"
                  d="M421.23 138.9a10.57 10.57 0 0 0 2.26-1.28 6.84 6.84 0 0 0 1.13-1.44c.26-.41.45-.67.51-.63s0 .32-.2.79a4.56 4.56 0 0 1-1.1 1.64 3.78 3.78 0 0 1-1.77.92c-.54.1-.82.06-.83 0Z"/>
            <path class="cls-3" d="m582.14 310.74 16.38-9.28s14.93 13.53 18.13 12.11l-16.86-32.39-26.11 13.41Z"/>
            <g class="cls-10">
                <path class="cls-5"
                      d="M591.9 292.18a1.5 1.5 0 0 1 1-1.7 1.44 1.44 0 0 1 1.7 1 1.56 1.56 0 0 1-1.08 1.8 1.47 1.47 0 0 1-1.64-1.24"/>
            </g>
            <g class="cls-10">
                <path class="cls-5" d="m599.79 281.18-2.58 1.5 17.12 30.52s1.38 1.11 2.31.42Z"/>
            </g>
            <path class="cls-6"
                  d="M598.62 302.07c.16-.08-.18-.91-.08-1.95s.55-1.81.42-1.92-.93.6-1 1.86.56 2.12.66 2Zm3.18 2.67c.17 0 .08-.87.47-1.75s1-1.41.93-1.56-1 .21-1.5 1.32-.06 2.07.1 2Zm5.06-.18c0-.17-.94 0-1.6.88s-.61 1.78-.44 1.78.39-.7.94-1.4 1.17-1.14 1.1-1.26Zm-12.2-.78c.11-.15-.49-.76-.89-1.68s-.49-1.77-.67-1.78-.39.95.1 2 1.37 1.6 1.46 1.46Z"/>
            <path class="cls-11" d="m585.38 308.9 2.92-1.65-8.42-15.84-2.69 1.37Z"/>
            <path class="cls-6"
                  d="M591.32 305.59a3.53 3.53 0 0 0-.85-1.62 8.67 8.67 0 0 0-1.41-1.43 8.3 8.3 0 0 0-1-.67 2.12 2.12 0 0 0-.63-.29.78.78 0 0 0-.88.36 1 1 0 0 0 0 .88 2 2 0 0 0 .4.57 6.6 6.6 0 0 0 2.63 1.83 3 3 0 0 0 1.81.27c0-.1-.67-.21-1.64-.67a8 8 0 0 1-1.57-1 6.3 6.3 0 0 1-.77-.78c-.27-.29-.42-.58-.32-.75s.07-.08.2-.06a2.18 2.18 0 0 1 .47.21 9.43 9.43 0 0 1 .94.61 10.42 10.42 0 0 1 1.41 1.25c.76.75 1.12 1.38 1.21 1.29Z"/>
            <path class="cls-6"
                  d="M591.44 305.26a2.87 2.87 0 0 0-1.79.39 6.13 6.13 0 0 0-1.66 1.14 5.29 5.29 0 0 0-.77.93 1.51 1.51 0 0 0-.28 1.46.84.84 0 0 0 .8.44 2.29 2.29 0 0 0 .68-.14 4.21 4.21 0 0 0 2.41-2.13 2.35 2.35 0 0 0 .3-1.81 16.67 16.67 0 0 1-.68 1.6 4.22 4.22 0 0 1-1.26 1.3 3.63 3.63 0 0 1-1 .46c-.37.13-.72.15-.75 0a1 1 0 0 1 .24-.85 5.45 5.45 0 0 1 .67-.85 6.55 6.55 0 0 1 1.45-1.16c.93-.54 1.61-.68 1.59-.78Z"/>
            <path class="cls-3" d="m535.52 336.25 18.57-3.05s9.34 17.86 12.82 17.63l-4.61-36.22-29.13 3.56Z"/>
            <g class="cls-10">
                <path class="cls-5"
                      d="M551.06 322.21a1.47 1.47 0 0 1 1.55-1.24 1.43 1.43 0 0 1 1.24 1.53 1.56 1.56 0 0 1-1.65 1.3 1.48 1.48 0 0 1-1.12-1.74"/>
            </g>
            <g class="cls-10">
                <path class="cls-5" d="m562.26 314.61-2.92.47 5.51 34.6s.91 1.52 2 1.2Z"/>
            </g>
            <path class="cls-6"
                  d="M553.94 333.82c.18 0 .15-.93.6-1.87s1.15-1.5 1.06-1.66-1.08.24-1.62 1.4-.19 2.18-.04 2.13Zm2.06 3.59c.18 0 .38-.78 1-1.48s1.44-1 1.41-1.14-1-.16-1.86.72-.72 1.92-.55 1.9Zm4.82 1.58c0-.16-.9-.3-1.81.28s-1.19 1.45-1 1.51.61-.52 1.36-1 1.46-.61 1.45-.78ZM549.63 334c.16-.09-.19-.87-.25-1.88s.16-1.83 0-1.9-.7.75-.61 1.94.75 1.98.86 1.84Z"/>
            <path class="cls-11" d="m539.16 335.64 3.31-.53-2.47-17.78-3 .35Z"/>
            <path class="cls-6"
                  d="M545.88 334.59a3.54 3.54 0 0 0-.24-1.82 9.08 9.08 0 0 0-.83-1.82 9.77 9.77 0 0 0-.68-1 2.32 2.32 0 0 0-.5-.49.76.76 0 0 0-1 0 1 1 0 0 0-.31.83 2.55 2.55 0 0 0 .18.67 6.36 6.36 0 0 0 .5 1.04 6.85 6.85 0 0 0 1.31 1.53 3.17 3.17 0 0 0 1.61.88c0-.09-.55-.43-1.31-1.2a7.37 7.37 0 0 1-1.11-1.5 7.52 7.52 0 0 1-.46-1c-.15-.37-.19-.7 0-.82s.08-.05.21 0a2.53 2.53 0 0 1 .36.37 9.85 9.85 0 0 1 .67.89 10.17 10.17 0 0 1 .89 1.66 11.84 11.84 0 0 0 .68 1.74Z"/>
            <path class="cls-6"
                  d="M546.1 334.32a3 3 0 0 0-1.81-.25 6 6 0 0 0-2 .5 6.31 6.31 0 0 0-1 .6 1.52 1.52 0 0 0-.77 1.27.85.85 0 0 0 .6.7 2.61 2.61 0 0 0 .69.1 4.28 4.28 0 0 0 1.23-.15 4.33 4.33 0 0 0 1.77-1c.85-.83 1-1.59.9-1.6a10.09 10.09 0 0 1-1.19 1.27 4.19 4.19 0 0 1-1.63.79 3.78 3.78 0 0 1-1 .1c-.39 0-.72-.11-.7-.26a1.3 1.3 0 0 1 .51-.71 5.52 5.52 0 0 1 .93-.57 6.88 6.88 0 0 1 1.76-.59c1.01-.2 1.7-.1 1.71-.2Zm-86.85-98.26c-.58.23 8.79 9.25 10.3 15.36 1.81 7.37 6.75 15.8 6.75 15.8l34.62 33.16 65.2-9.54 11 20.09-78.6 21.31a14.3 14.3 0 0 1-12.27-2.32l-50.73-37.7-29.08-36Z"/>
            <path class="cls-6"
                  d="m411.62 259 4.2 15.44C427.6 298.74 450 344.83 456 347.8c8.26 4.13 84.23-11 84.23-11l-1.69-20.94-63.75 5.51-42.64-74.91Z"/>
            <path class="cls-9"
                  d="M582.09 312.3s-.14.06-.43.15l-1.28.39-4.93 1.44-18.18 5.2-27 7.66-15.89 4.54c-1.39.38-2.76.8-4.19 1.16a19.84 19.84 0 0 1-13.26-1.45 21.93 21.93 0 0 1-3.87-2.44l-3.54-2.78q-3.51-2.76-6.83-5.5c-4.42-3.66-8.65-7.24-12.59-10.75-7.92-7-14.8-13.56-20.4-19.25s-9.88-10.54-12.68-14l-1.85-2.32c-.49-.7-.92-1.29-1.26-1.77l-.78-1.09c-.17-.25-.24-.38-.24-.38s.1.11.29.35l.81 1.06c.35.45.79 1.06 1.3 1.74l1.88 2.29c2.84 3.44 7.15 8.25 12.78 13.9s12.57 12.17 20.45 19.13c4 3.49 8.17 7.07 12.6 10.72 2.21 1.83 4.49 3.65 6.82 5.49l3.54 2.73a20.22 20.22 0 0 0 3.79 2.4 19.41 19.41 0 0 0 12.92 1.42c1.4-.35 2.8-.78 4.18-1.16l15.94-4.5 27-7.55 18.21-5.06 5-1.35 1.3-.34Zm-149.18-52.37c0 .06-.42.28-.51.95a1.3 1.3 0 0 0 .29 1 1.16 1.16 0 0 0 1.62-.16 1.2 1.2 0 0 0 .26-.66 1.29 1.29 0 0 0-.55-.91c-.56-.39-1-.2-1-.28s.08-.11.3-.17a1.37 1.37 0 0 1 .93.16 1.5 1.5 0 1 1-1.85 2.32 1.54 1.54 0 0 1-.29-1.4 1.35 1.35 0 0 1 .52-.78c.19-.09.32-.1.33-.07Zm33.21-9a3 3 0 0 1-.57.61 16.15 16.15 0 0 1-1.83 1.37 15.83 15.83 0 0 1-7.15 2.36 15.55 15.55 0 0 1-7.41-1.24 11.64 11.64 0 0 1-2-1.07 2.62 2.62 0 0 1-.67-.52c.05-.08 1 .59 2.82 1.27a16.53 16.53 0 0 0 14.25-1.1c1.63-.91 2.5-1.75 2.56-1.68Z"/>
            <path class="cls-9"
                  d="M525 195.55s-45.33-17-48.08-19.46-14.72-16-19.7-17.75c0 0-8.08-2.12-13.58-1.81l-5.81.69v-4.41l-23.87.39-.66 5.88-4.07 1.54s-9.56 20-9.56 29.12-4.72 62.51 4.58 72.77c1.43 1.57 7 .56 7 .56s26.84-2.86 53.52-21.52L455 230.26s-3.44-23.58.56-40.52c.09-.37.17-.74.26-1.1 11.55 5.7 29.33 14 34.55 14 0 0 29.24 9.87 34.64 3.55.61-.71 0-10.64 0-10.64Z"/>
            <path class="cls-9"
                  d="M413.83 159.74s-9.35.37-15.44 7.94-16 39.86-16 39.86l-13.64-14-13 7.21s18.38 25.62 22 28.59a19.37 19.37 0 0 0 6.64 2.83c8.73.76 14.63-8.13 16.42-15.46l6-30.13"/>
            <path class="cls-7"
                  d="m359.7 198.53-14-8.31s-4.23-10-2.61-10.47 3 5.57 3 5.57l2 1s-2.73-5.08-1.78-5.56 2.28 1 3 2.17c.56.88 2.37 4.57 2.37 4.57l.94-1.3-.74-3.41s-1-2.28.11-2.3 1.11-.1 1.94 1.79 1.4 3.3 1.4 3.3 4.08 2.42 4.95 2.15a5.11 5.11 0 0 1 4 .31s3.87 2 2.94 6.15"/>
            <path class="cls-6"
                  d="M454.4 161.05c.07 0-.3 1-.75 2.52A28 28 0 0 0 453 176c.26 1.59.53 2.56.45 2.59a9.74 9.74 0 0 1-.8-2.52 23.89 23.89 0 0 1-.5-6.37 23.14 23.14 0 0 1 1.21-6.27 9.38 9.38 0 0 1 1.04-2.38Zm-37.47-1.24a9.28 9.28 0 0 1-.25-3.4 9.18 9.18 0 0 1 .52-3.37 17.45 17.45 0 0 1 0 3.39 17.39 17.39 0 0 1-.27 3.38Zm5.59.87a14.8 14.8 0 0 1 .08-3.82 15.5 15.5 0 0 1 .58-3.77 14.37 14.37 0 0 1-.09 3.82 15.49 15.49 0 0 1-.57 3.77Zm7.44-.23c-.14 0 .21-1.67.34-3.7s0-3.69.18-3.71a12.36 12.36 0 0 1-.48 7.41Zm5.46-1.37c-.14 0 .08-1.41.05-3.11a30.15 30.15 0 0 1-.15-3.1A5.9 5.9 0 0 1 436 156a6.32 6.32 0 0 1-.58 3.08ZM400.12 172c.13 0 0 13.06-.3 29.16s-.66 29.16-.8 29.16 0-13.06.31-29.17.67-29.15.79-29.15Z"/>
            <path d="M399.22 202.68a12.58 12.58 0 0 1-2-1.11 27.59 27.59 0 0 0-4.78-2.44 12.24 12.24 0 0 0-5.22-.76c-1.36.12-2.16.47-2.19.39a4.73 4.73 0 0 1 2.15-.74 11.18 11.18 0 0 1 5.43.65 21.47 21.47 0 0 1 4.8 2.61 9.12 9.12 0 0 1 1.81 1.4Zm54.66-9.17a4.66 4.66 0 0 1-.47.3l-1.38.81c-.6.35-1.35.76-2.24 1.19s-1.88 1-3 1.44-2.38 1.05-3.76 1.55-2.85 1-4.41 1.52a73.87 73.87 0 0 1-21.08 3.29c-1.65 0-3.21 0-4.67-.11s-2.82-.2-4.06-.33-2.34-.31-3.32-.46-1.81-.3-2.49-.45l-1.56-.35a2.39 2.39 0 0 1-.54-.15 2.12 2.12 0 0 1 .56.05l1.58.26c.68.12 1.51.26 2.49.37s2.08.3 3.32.38 2.58.23 4 .27 3 .06 4.64.06a77.89 77.89 0 0 0 21-3.26c1.56-.5 3.05-.94 4.4-1.47s2.63-1 3.77-1.49 2.15-1 3-1.37 1.65-.79 2.27-1.11l1.42-.72a1.91 1.91 0 0 1 .53-.22ZM480.19 179c.05.07-.8.63-2 1.7a25.57 25.57 0 0 0-4.26 4.68 26.47 26.47 0 0 0-3 5.6c-.58 1.52-.83 2.51-.91 2.49a2.13 2.13 0 0 1 .08-.71 14 14 0 0 1 .5-1.9 22 22 0 0 1 7.34-10.43 12.78 12.78 0 0 1 1.61-1.11c.4-.24.62-.35.64-.32Zm5.07 1.56c0 .08-1 .54-2.47 1.51a21.88 21.88 0 0 0-8.53 10.65c-.63 1.67-.85 2.76-.93 2.74s0-.28.07-.78a13.67 13.67 0 0 1 .53-2.07 19.87 19.87 0 0 1 8.67-10.84 15.07 15.07 0 0 1 1.91-1 2.47 2.47 0 0 1 .75-.18Zm-31 8.81a2.38 2.38 0 0 1-.51.24l-1.47.6c-.64.26-1.43.57-2.36.88s-2 .72-3.17 1.07c-2.36.76-5.21 1.53-8.4 2.26a102.21 102.21 0 0 1-10.5 1.78 105.41 105.41 0 0 1-10.63.68c-3.27.06-6.23-.08-8.7-.28-1.23-.07-2.34-.21-3.32-.31s-1.82-.21-2.5-.32l-1.58-.24a2.25 2.25 0 0 1-.58-.08 2.62 2.62 0 0 1 .56 0l1.58.15c.69.08 1.53.17 2.51.24s2.08.19 3.32.23c2.46.16 5.4.22 8.66.17s6.84-.29 10.58-.71 7.25-1.03 10.44-1.73 6-1.44 8.4-2.15c1.19-.33 2.24-.7 3.18-1s1.73-.57 2.38-.8l1.51-.51a2.28 2.28 0 0 1 .58-.17Zm-54.52 5.67a36.1 36.1 0 0 0-5.33-2.89 37.16 37.16 0 0 0-5.87-1.5 5 5 0 0 1 1.81 0 16.86 16.86 0 0 1 4.25 1 16.05 16.05 0 0 1 3.82 2.12 4.83 4.83 0 0 1 1.32 1.27Z"
                  style="fill:#fafafa"/>
            <path class="cls-7"
                  d="m539.88 191.79-9.9 3.32-5 .44v10.66l5.14 1.75 13.79-.75s7.9 4 9.91 3.76 2-.86 2-.86l-9.77-5.91a5.57 5.57 0 0 1 3.76.5c2.25 1 6.14 3.26 7.52 2.64s1.13-1.13 1.13-1.13l-7.65-4.82s6.55 2.94 7.67 2.44a2 2 0 0 0 1.23-1.48l-4.26-3.79-6.4-5Z"/>
            <path class="cls-8"
                  d="M534.38 196.18a5.36 5.36 0 0 1 1.08.45c.67.31 1.64.78 2.83 1.38s2.6 1.31 4.15 2.19a3.49 3.49 0 0 1 1.11.88 2.61 2.61 0 0 1 .59 1.41 2.51 2.51 0 0 1-.34 1.56 2.32 2.32 0 0 1-1.38.89 4.51 4.51 0 0 1-2.19 0 16.11 16.11 0 0 1-1.91-.69c-1.2-.5-2.3-1-3.3-1.53l.26-.06a6 6 0 0 1-2.3 1.83 5.14 5.14 0 0 1-2.22.42 5.28 5.28 0 0 1-1.42-.24c-.31-.1-.47-.19-.46-.21a10 10 0 0 0 1.89.21 5.32 5.32 0 0 0 2.07-.49 5.82 5.82 0 0 0 2.11-1.77l.1-.14.15.08c1 .47 2.11 1 3.3 1.47a15 15 0 0 0 1.85.65 4.24 4.24 0 0 0 1.94 0 1.87 1.87 0 0 0 1.1-.69 2 2 0 0 0 .27-1.24 2.52 2.52 0 0 0-1.46-1.95c-1.5-.89-2.91-1.63-4.07-2.27l-2.76-1.52a5 5 0 0 1-1-.62Zm16.88 5.24a19.22 19.22 0 0 1-4.38-2.72 10.92 10.92 0 0 1-.89-.77h.3a6.23 6.23 0 0 1-2.77.75 2.1 2.1 0 0 1-1.14-.11c0-.07.42-.08 1.11-.2a7.4 7.4 0 0 0 2.58-.85l.17-.11.14.14c.25.24.55.48.85.73a46.83 46.83 0 0 1 4 3.14Z"/>
            <path class="cls-3"
                  d="M568.15 278.05a20.29 20.29 0 0 1-5.9-.85c-19-5.69-18-19.4-17.23-30.42.74-10.27.77-16.73-7.7-19.91-11.21-4.2-15.82-.12-22.81 6.06-8.32 7.36-18.66 16.52-43.76 12.8-13-1.93-34-8.8-59.71-30.58a204.63 204.63 0 0 1-25.33-25.4l3.88-3.12c.39.48 38.78 47.79 81.89 54.17 22.8 3.38 31.79-4.58 39.73-11.6 7.12-6.3 13.84-12.25 27.86-7 12.38 4.65 11.61 15.42 10.92 24.93-.8 11.13-1.49 20.74 13.69 25.29 17.1 5.12 39.59-22 53-38.16 4.8-5.77 8.13-9.95 10.79-12.12l3.76 3c-1.66 2-6.28 7-10.72 12.31-13.66 16.49-33.68 40.6-52.36 40.6Z"/>
            <path class="cls-5"
                  d="M497.66 238.68a4.1 4.1 0 0 1-.6.44 15.18 15.18 0 0 1-1.75 1 26.9 26.9 0 0 1-6.29 2.16 26.28 26.28 0 0 1-6.62.51c-.67 0-1.34-.11-2-.21a2.52 2.52 0 0 1-.72-.17 24.69 24.69 0 0 1 2.74 0 31.42 31.42 0 0 0 12.75-2.64 12.57 12.57 0 0 1 2.49-1.09Zm29.24-15.09a11.06 11.06 0 0 1-1.63-.06 11.18 11.18 0 0 0-7.19 2.48 11.39 11.39 0 0 1-1.25 1.05 3.67 3.67 0 0 1 1-1.31 9.54 9.54 0 0 1 7.44-2.56 3.57 3.57 0 0 1 1.63.4Zm31.85 47.23a6.54 6.54 0 0 1-2.25-.69 14.5 14.5 0 0 1-7.56-8.18 6.46 6.46 0 0 1-.51-2.29c.08 0 .28.85.84 2.16a16.42 16.42 0 0 0 3 4.64 16.15 16.15 0 0 0 4.39 3.35c1.26.66 2.12.93 2.09 1ZM628.38 224a61 61 0 0 1-7.88 7.86 64.29 64.29 0 0 1 7.88-7.86Z"/>
            <path class="cls-3"
                  d="M390.12 190.85a5.75 5.75 0 0 1-8.12.39l-8.78-8 7.74-8.51 8.77 8a5.75 5.75 0 0 1 .39 8.12Z"/>
            <path class="cls-6"
                  d="M390.12 190.85c.29-.43.56-.88.81-1.34a5.68 5.68 0 0 0 .27-4.17 5.61 5.61 0 0 0-1.59-2.47L387 180.5c-1.87-1.7-3.95-3.57-6.16-5.56h.34l-3.87 4.26-3.87 4.25v-.34l6.12 5.57 2.62 2.41a5.61 5.61 0 0 0 2.6 1.35 5.69 5.69 0 0 0 4.13-.67 12.88 12.88 0 0 0 1.26-.94 4.3 4.3 0 0 1-1.17 1.08 5.72 5.72 0 0 1-4.28.83 5.88 5.88 0 0 1-2.79-1.38c-.83-.74-1.71-1.54-2.65-2.37l-6.17-5.57-.18-.16.17-.18 3.86-4.26 3.87-4.24.16-.18.18.16 6.12 5.61 2.62 2.41a5.91 5.91 0 0 1 1.64 2.65 5.77 5.77 0 0 1-.42 4.33 4.25 4.25 0 0 1-1 1.29Z"/>
            <path class="cls-3"
                  d="m345.76 142.81-15.14-12.52a2.78 2.78 0 0 1-.37-3.93 2.79 2.79 0 0 1 3.93-.37l15.13 12.52Zm-14.24 18.29-15.12-12.52a2.79 2.79 0 0 1-.38-3.93 2.77 2.77 0 0 1 3.91-.38l15.14 12.51Z"/>
            <g class="cls-10">
                <path class="cls-5"
                      d="m345.76 142.81-15.14-12.52a2.78 2.78 0 0 1-.37-3.93 2.79 2.79 0 0 1 3.93-.37l15.13 12.52Z"/>
            </g>
            <g class="cls-10">
                <path class="cls-5"
                      d="m331.52 161.1-15.12-12.52a2.79 2.79 0 0 1-.38-3.93 2.77 2.77 0 0 1 3.91-.38l15.14 12.51Z"/>
            </g>
            <path class="cls-6"
                  d="M345.76 142.81a1.94 1.94 0 0 1 .23-.33l.68-.88 2.53-3.19v.21l-7.11-5.78-4.45-3.66-2.39-2-1.23-1a2.54 2.54 0 0 0-1.33-.58 2.5 2.5 0 0 0-2.24.86 2.55 2.55 0 0 0-.54 2.28 2.27 2.27 0 0 0 .54 1 7.1 7.1 0 0 0 .91.82l1.88 1.56 6.48 5.45 4.39 3.74 1.2 1a5.36 5.36 0 0 1 .43.4 3.19 3.19 0 0 1-.42-.3l-1.2-1c-1.11-.89-2.63-2.1-4.47-3.59l-6.65-5.41-1.92-1.57a10.39 10.39 0 0 1-1-.87 3 3 0 0 1 .16-4.24 3 3 0 0 1 2.51-.76 3.16 3.16 0 0 1 1.59.69l1.22 1 2.38 2 4.43 3.69 7 5.89.12.1-.1.11-2.71 3.16-.72.8a1.84 1.84 0 0 1-.2.4Zm-14.24 18.29a2 2 0 0 1 .24-.33c.18-.24.4-.53.68-.88l2.56-3.19v.21l-7.11-5.79-4.45-3.65-2.39-2-1.23-1a2.56 2.56 0 0 0-3.58.29 2.52 2.52 0 0 0-.53 2.28 2.31 2.31 0 0 0 .53 1 8 8 0 0 0 .92.81l1.87 1.57 6.49 5.45 4.39 3.74 1.2 1a3.16 3.16 0 0 1 .42.4s-.14-.09-.41-.3l-1.21-1-4.47-3.59-6.65-5.41-1.92-1.58a7.51 7.51 0 0 1-1-.87 2.89 2.89 0 0 1-.64-1.24 3 3 0 0 1 .63-2.71 3.06 3.06 0 0 1 2.67-1 3.16 3.16 0 0 1 1.59.69c.41.35.82.68 1.23 1l2.38 2 4.43 3.68 7 5.9.11.1-.09.11c-1.14 1.31-2 2.37-2.72 3.15l-.71.81a.73.73 0 0 1-.2.3Z"/>
            <path class="cls-3"
                  d="m380.16 158.68.4-.48a5.35 5.35 0 0 0-7.44-7.61L351 132.13l-25.35 30.33 22.68 18a5.34 5.34 0 0 0 8.53 6.38 15.41 15.41 0 0 0 21.31-2.67l3.64-4.54a15.42 15.42 0 0 0-1.61-20.95Z"/>
            <path class="cls-6"
                  d="m380.16 158.68.19.17.53.51a8.45 8.45 0 0 1 .81.88l.49.6.5.73a14.71 14.71 0 0 1 2 4.17 15.42 15.42 0 0 1-2.23 13.33c-.81 1.15-1.75 2.24-2.67 3.43a29.54 29.54 0 0 1-3.07 3.53 15.4 15.4 0 0 1-9.26 4.1 15.69 15.69 0 0 1-10.73-3.06h.28a5.64 5.64 0 0 1-3.65 1.89 5.52 5.52 0 0 1-4.11-1.24 5.6 5.6 0 0 1-1.14-7.32l.05.31-17.59-14-5.13-4.08-.2-.15.16-.2c9.24-11 17.87-21.34 25.38-30.3l.14-.17.16.14 22.11 18.51H373a5.45 5.45 0 0 1 8.82 4.35 5.29 5.29 0 0 1-1 3 7.91 7.91 0 0 1-.52.63l-.19.21s.24-.3.65-.88a5.42 5.42 0 0 0 .9-3 5.3 5.3 0 0 0-2.23-4.29 5.14 5.14 0 0 0-3-1 5.23 5.23 0 0 0-3.31 1.13l-.09.07-.09-.07-22.2-18.4h.3l-25.28 30.4v-.35l5.12 4.08 17.55 14 .17.13-.12.18a5.1 5.1 0 0 0 8.13 6.12l.14-.15.16.12a15.24 15.24 0 0 0 19.47-1 29.27 29.27 0 0 0 3-3.48c.93-1.18 1.89-2.28 2.69-3.4a15.34 15.34 0 0 0 .42-17.23c-.17-.26-.33-.51-.49-.74l-.48-.6a9.73 9.73 0 0 0-.78-.92l-.51-.53-.11-.1Z"/>
            <path class="cls-2" d="m339.15 146.33 15.64 12.93-2.53 3.06-15.64-12.93Z"/>
            <path class="cls-6"
                  d="M380.16 158.68a9 9 0 0 1-.84 1.18c-.56.75-1.39 1.81-2.43 3.11-2.07 2.61-5 6.16-8.27 10.05s-6.18 7.34-8.39 9.95l-2.54 3a8.36 8.36 0 0 1-1 1.06 8.15 8.15 0 0 1 .84-1.18c.56-.75 1.39-1.81 2.43-3.11 2.07-2.61 5-6.16 8.27-10l8.39-10 2.55-3a7.63 7.63 0 0 1 1-1.06Zm-7-8.13a8.33 8.33 0 0 1-.9 1.24c-.61.78-1.51 1.9-2.62 3.27-2.24 2.74-5.38 6.48-8.88 10.58s-6.64 7.74-9 10.49c-1.12 1.28-2 2.35-2.74 3.16a9.36 9.36 0 0 1-1.06 1.12 9.18 9.18 0 0 1 .91-1.24c.61-.78 1.5-1.9 2.62-3.27 2.24-2.74 5.38-6.48 8.88-10.58l9-10.48 2.74-3.17a10.09 10.09 0 0 1 1.05-1.12Z"/>
            <path class="cls-13"
                  d="M273.52 70.15c-.14.33-11.17 8.71-11.17 8.71l-.21 7.14 5.7.8 8.1-4.6 5.49-.28s3.35 1.77 4 2a1.94 1.94 0 0 0 2.25-.93l-5-3.64s5.54 3.09 6.07 2.68a1.72 1.72 0 0 0-.17-2.43 2.25 2.25 0 0 0-.36-.24s1.72.91 2.81.18.7-1.6.7-1.6l-7.32-6.57a5 5 0 0 0-3.41-1.3Z"/>
            <path class="cls-14"
                  d="M274.4 73.24a4.8 4.8 0 0 1-.08.85c-.1.62-.22 1.4-.37 2.34l-.14-.17L278 76a5.43 5.43 0 0 1 2.67.36 2.6 2.6 0 0 1 1.1 1.08 1.83 1.83 0 0 1 .07 1.63v.06h-.06c-1.33.79-3 .61-4.45.71a5.14 5.14 0 0 0-3.1 1.13 19.55 19.55 0 0 0-2.31 2.24 10.17 10.17 0 0 1-2.3 1.94 5.17 5.17 0 0 1-2.54.71 9.9 9.9 0 0 1-3.68-.77 5.58 5.58 0 0 1-1.24-.57 8.87 8.87 0 0 1 1.31.38 10.48 10.48 0 0 0 3.6.61 5 5 0 0 0 2.34-.71 10.67 10.67 0 0 0 2.18-1.9 20.43 20.43 0 0 1 2.41-2.33 5.67 5.67 0 0 1 3.37-1.24c1.55-.09 3.09 0 4.24-.63l-.1.1a1.73 1.73 0 0 0-.94-2.1 5 5 0 0 0-2.45-.35l-4.22.16h-.18v-.17c.2-.93.37-1.7.5-2.32a3 3 0 0 1 .23-.78Z"/>
            <path class="cls-14"
                  d="M288.57 79.48a5.12 5.12 0 0 1-1.88-1.11c-1.08-.83-2.26-2.28-3.87-3.45a2.84 2.84 0 0 0-1.24-.52 12.16 12.16 0 0 0-1.35 0h-2.35a9.77 9.77 0 0 1-2.16-.14 8.7 8.7 0 0 1 2.16-.21l2.34-.09a11.06 11.06 0 0 1 1.41 0 3 3 0 0 1 1.47.6 40.36 40.36 0 0 1 3.81 3.59c.97.85 1.7 1.26 1.66 1.33Z"/>
            <path class="cls-3" d="m289.08 291.15-.27 17.53s17.69 6.15 17.95 9.39l-33.93.69-.7-27.27Z"/>
            <g class="cls-10">
                <path class="cls-5"
                      d="M278.28 307.39a1.38 1.38 0 0 0-.92 1.6 1.33 1.33 0 0 0 1.58.93 1.46 1.46 0 0 0 1-1.7 1.39 1.39 0 0 0-1.75-.79"/>
            </g>
            <g class="cls-10">
                <path class="cls-5" d="M272.83 318.68v-2.75l32.53.37s1.52.62 1.37 1.69Z"/>
            </g>
            <path class="cls-6"
                  d="M289.35 308.46c0 .16-.82.26-1.63.81s-1.22 1.25-1.38 1.19.08-1 1.06-1.67 1.99-.48 1.95-.33Zm3.59 1.4c.05.16-.67.45-1.22 1.17s-.69 1.45-.86 1.45-.29-.94.41-1.81 1.67-1 1.67-.81Zm2.11 4.22c-.15 0-.39-.79 0-1.7s1.18-1.3 1.25-1.16-.4.63-.72 1.39-.36 1.45-.53 1.47Zm-6.05-9.61c-.06.15-.83-.07-1.76 0s-1.66.39-1.75.25.6-.75 1.7-.83 1.86.44 1.81.58Z"/>
            <path class="cls-11" d="M289 294.61v3.12l-16.69.19-.08-2.81Z"/>
            <path class="cls-6"
                  d="M289 300.94a3.27 3.27 0 0 1-1.7 0 7.81 7.81 0 0 1-1.79-.51 7.18 7.18 0 0 1-1-.5 1.82 1.82 0 0 1-.52-.39.73.73 0 0 1-.1-.88.92.92 0 0 1 .72-.39 2 2 0 0 1 .64.08 5.69 5.69 0 0 1 1.06.34 6.27 6.27 0 0 1 1.59 1c.8.72 1.09 1.33 1 1.36s-.47-.45-1.28-1a6.71 6.71 0 0 0-1.54-.82 6 6 0 0 0-1-.28c-.36-.09-.66-.08-.75.08s0 .08 0 .19a1.78 1.78 0 0 0 .38.28c.31.19.61.35.91.5a8.86 8.86 0 0 0 1.66.59 11.16 11.16 0 0 1 1.72.35Z"/>
            <path class="cls-6"
                  d="M288.75 301.18a2.74 2.74 0 0 1-.48-1.64 5.29 5.29 0 0 1 .19-1.86 5.87 5.87 0 0 1 .42-1 1.37 1.37 0 0 1 1.06-.88.79.79 0 0 1 .72.46 2.13 2.13 0 0 1 .19.62 3.63 3.63 0 0 1 0 1.14 3.89 3.89 0 0 1-.69 1.77c-.64.9-1.33 1.11-1.34 1a6.94 6.94 0 0 0 1-1.27 4.11 4.11 0 0 0 .51-1.61 4.2 4.2 0 0 0-.06-1c-.06-.36-.2-.64-.33-.61a1.25 1.25 0 0 0-.59.57 6.36 6.36 0 0 0-.4.93 5.84 5.84 0 0 0-.29 1.71c0 1 .18 1.59.09 1.62Z"/>
            <path class="cls-6"
                  d="M227.32 192.25c.83 1.25 37.67 39.47 37.67 39.47s-4.58 17.61-2.93 32.92 6.62 39.71 6.62 39.71l26.71-2.13-7.27-83L259 180.68Z"/>
            <path class="cls-3" d="m298.31 271.81 3.28 17.19s18.57 2.44 19.49 5.56L288 302.11l-6.2-26.57Z"/>
            <g class="cls-10">
                <path class="cls-5"
                      d="M291 289.9a1.37 1.37 0 0 0-.58 1.76 1.34 1.34 0 0 0 1.73.59 1.47 1.47 0 0 0 .61-1.86 1.37 1.37 0 0 0-1.87-.42"/>
            </g>
            <g class="cls-10">
                <path class="cls-5" d="m288 302.11-.52-2.7 31.93-6.23s1.62.3 1.69 1.38Z"/>
            </g>
            <path class="cls-6"
                  d="M302.09 288.68c0 .16-.76.42-1.44 1.12s-.94 1.48-1.1 1.45-.14-1 .69-1.86 1.85-.84 1.85-.71Zm3.8.67c.07.15-.57.59-1 1.39s-.39 1.57-.55 1.6-.47-.86 0-1.86 1.51-1.28 1.55-1.13Zm2.92 3.71c-.14.07-.55-.69-.34-1.67s.89-1.5 1-1.39-.26.7-.42 1.51-.09 1.49-.24 1.55Zm-7.9-8.18c0 .16-.83.1-1.73.38s-1.54.72-1.66.6.44-.86 1.5-1.16 1.98.03 1.89.18Z"/>
            <path class="cls-11" d="m299 275.22.59 3.06-16.3 3.57-.65-2.74Z"/>
            <path class="cls-6"
                  d="M300.18 281.42a3.21 3.21 0 0 1-1.66.37 8.27 8.27 0 0 1-2.92-.42 2.13 2.13 0 0 1-.59-.28.7.7 0 0 1-.27-.84.89.89 0 0 1 .62-.53 2.35 2.35 0 0 1 .65-.06 7 7 0 0 1 1.11.12 5.87 5.87 0 0 1 1.75.65c.93.54 1.33 1.08 1.29 1.13s-.55-.35-1.47-.76a6.56 6.56 0 0 0-1.67-.5 5.61 5.61 0 0 0-1-.07c-.37 0-.67 0-.72.23s0 .09.08.17a1.4 1.4 0 0 0 .43.2 5.76 5.76 0 0 0 1 .3 8.49 8.49 0 0 0 1.74.25 11.1 11.1 0 0 1 1.63 0Z"/>
            <path class="cls-6"
                  d="M300 281.68a2.86 2.86 0 0 1-.81-1.5 5.62 5.62 0 0 1-.19-1.87 5.91 5.91 0 0 1 .2-1.1 1.4 1.4 0 0 1 .86-1.08.81.81 0 0 1 .8.31 2.42 2.42 0 0 1 .31.57 3.82 3.82 0 0 1 .26 1.11 4.17 4.17 0 0 1-.32 1.88c-.45 1-1.08 1.35-1.11 1.3a15.12 15.12 0 0 0 .73-1.45 4.14 4.14 0 0 0 .17-1.68 3.8 3.8 0 0 0-.25-.95c-.13-.34-.33-.59-.45-.53a1.24 1.24 0 0 0-.46.68 5.69 5.69 0 0 0-.15 2.72c.18 1 .49 1.59.41 1.59Z"/>
            <path class="cls-6"
                  d="M161.42 166.1s-2.47 15.81 7.11 26.15 19.91 14.89 38.11 14.07 57.49.09 57.49.09 1.66 21 6.21 38.17 13.63 43 13.63 43l17.8-1.7S297 192.3 295.72 184s-15-12.46-22.49-14.94S223.07 158 223.07 158l-38.77-5.4Z"/>
            <path class="cls-9"
                  d="M301.77 285.84h-.31l-.93.07-3.62.26-13.63.9h-.12V287c-2.39-7.66-5.49-17.61-9.08-29.09-1.79-5.75-3.69-11.89-5.69-18.31-1-3.2-2.07-6.49-2.8-9.93A66.46 66.46 0 0 1 264.1 219a50.34 50.34 0 0 1 .67-12.5l.23.3c-10.85-.22-21.07-.33-30.29-.36-4.61 0-9 0-13 .07s-7.84.21-11.29.21c-6.88 0-12.39-.35-16.18-.68-1.89-.16-3.36-.32-4.34-.43l-1.13-.15-.38-.06h.39l1.12.1 4.35.35c3.79.27 9.3.58 16.17.52 3.43 0 7.21-.2 11.28-.27s8.44-.11 13-.11c9.23 0 19.45.09 30.3.31h.29l-.06.3a50.58 50.58 0 0 0-.65 12.35 66.88 66.88 0 0 0 1.47 10.53c.74 3.41 1.8 6.67 2.79 9.88 2 6.43 3.87 12.57 5.65 18.32 3.53 11.51 6.59 21.47 8.95 29.15l-.15-.11 13.64-.76 3.62-.18h.93a1.45 1.45 0 0 1 .29 0Z"/>
            <path class="cls-9"
                  d="M273.52 195.68c.1.1-2.11 2.24-4.37 5.25s-3.7 5.73-3.84 5.66a7.11 7.11 0 0 1 .82-1.85A32.89 32.89 0 0 1 272 197a6.2 6.2 0 0 1 1.52-1.32Z"/>
            <path class="cls-9"
                  d="M278.35 197.36a38.18 38.18 0 0 0-7 3.58 39.85 39.85 0 0 0-5.84 5.32 8.31 8.31 0 0 1 1.35-1.92 22 22 0 0 1 9.26-6.4 7.8 7.8 0 0 1 2.23-.58ZM198.91 71.17c1.31.65 28.62 17.35 29.92 17.35s33.61-11.79 33.61-11.79L269.06 87s-28.33 21.82-37.61 22.14-24-7.13-24-7.13Zm-56.82 9.17s-34 34.56-33.57 43.34 4.64 13.63 7.34 14.77c3.77 1.6 46.33-3.64 46.33-3.64l2.52-16.56c-7-1.39-15.87-2.44-25.48-3.36 4.31-4.51 9.1-7.93 15-8.93l10.18-11.07s-12.72-16.71-22.32-14.55Z"/>
            <path class="cls-9"
                  d="M140.33 90.68s-1.63-7.46 2-10.45c6-5 11.12-7.27 15.48-9.44 5-2.49 10.29-5.37 10.29-5.37l30.9 5.74s16.47 26.3 16.12 32.77a17.22 17.22 0 0 1-4.45 10.54 39.69 39.69 0 0 0 2.25 21.1c3.69 9.17 10.24 22.42 10.24 22.42s-35.36-5.74-52.13 2.47c-9 4.4-9.81 11.41-9.81 11.41l-1.31-38.52-6.93-23.59Z"/>
            <path class="cls-6"
                  d="M163.7 118a3.23 3.23 0 0 0-.47-.12c-.31-.06-.76-.15-1.36-.24-1.2-.18-2.93-.39-5.08-.64-4.3-.49-10.25-1.09-16.82-1.72l-1.13-.11-.61-.06.48-.38q3.73-3 7-5.53a17.51 17.51 0 0 1 6.65-2.93 17 17 0 0 1 4.87-.32c.44 0 .87.1 1.31.18a1.36 1.36 0 0 1 .44.11 21.19 21.19 0 0 0-6.55.36 17.56 17.56 0 0 0-6.45 3l-7 5.56-.13-.44 1.14.11c6.57.63 12.52 1.29 16.81 1.87s7 1.08 6.9 1.3Z"/>
            <path class="cls-6"
                  d="M127.18 115.68a4 4 0 0 1 1.38-1.22 8.91 8.91 0 0 1 4.25-1.35 8.66 8.66 0 0 1 4.36.91 4.09 4.09 0 0 1 1.5 1.07c0 .07-.62-.33-1.65-.76a9.55 9.55 0 0 0-8.28.43c-1 .49-1.51.92-1.56.92Zm32.34-21.14c-.09 0-.39-1.26-1.13-3.24a22.43 22.43 0 0 0-4.14-7 14.21 14.21 0 0 0-3.5-2.77l-.9-.45c-.29-.13-.6-.22-.89-.32a9.54 9.54 0 0 0-1.65-.43 12.06 12.06 0 0 0-2.47-.2 3.62 3.62 0 0 1-.93 0 2.86 2.86 0 0 1 .92-.15 10.43 10.43 0 0 1 4.26.43c.3.1.62.18.93.31l1 .45a14.18 14.18 0 0 1 3.65 2.83 21 21 0 0 1 4.1 7.25 20.43 20.43 0 0 1 .66 2.44 4 4 0 0 1 .09.84Zm50.13 20.93s.41-.46 1.08-1.34a15.43 15.43 0 0 0 2.29-4 16.84 16.84 0 0 0 1.18-6.73 15.76 15.76 0 0 0-2.45-7.94 61.31 61.31 0 0 0-5.17-6.73 30.78 30.78 0 0 1-4-5.78 13.67 13.67 0 0 1-1.45-4.49 7.79 7.79 0 0 1-.08-1.28 1.14 1.14 0 0 1 0-.45 8.73 8.73 0 0 0 .24 1.7 14.69 14.69 0 0 0 1.57 4.36 31.4 31.4 0 0 0 4 5.65 58.12 58.12 0 0 1 5.24 6.76 16 16 0 0 1 2.48 8.19 16.68 16.68 0 0 1-1.31 6.87 14.57 14.57 0 0 1-2.46 4 8.67 8.67 0 0 1-.89.93 1.69 1.69 0 0 1-.32.28Z"/>
            <path class="cls-11"
                  d="M155.9 116.68a4.62 4.62 0 0 1 2.83-5.63 23.23 23.23 0 0 1 3.72-.48c.78-.13 1.65-.52 1.81-1.3.2-1-.81-1.72-1.71-2.11a15.8 15.8 0 0 0-11.67-.28 18.54 18.54 0 0 1 3.65 9.66m48.13-34.1c-1.59-3.19 4.18 5.77 6.87 8.11a59.27 59.27 0 0 1 7.76 7.35c2.23 2.78 3.88 5.86 3.57 9.42l-6.42-2.26s.81-5.19-2-9-9.14-12.38-9.78-13.62Zm-63.93 32.24c-1.77-1.92-4.48-2.7-7.08-3a10.91 10.91 0 0 0-4.72.31 5.09 5.09 0 0 0-3.32 3.17 1.5 1.5 0 0 0 .12 1.38 1.33 1.33 0 0 0 1.46.34 5.2 5.2 0 0 0 1.37-.84 12.18 12.18 0 0 1 12-1.27"/>
            <path class="cls-6"
                  d="M149.24 90.14a2.11 2.11 0 1 1-2.11-2.14 2.1 2.1 0 0 1 2.1 2.1Zm11.33-13.94a2.11 2.11 0 1 1-2.11-2.11 2.11 2.11 0 0 1 2.11 2.11Zm22.06.87a2.11 2.11 0 1 1-2.12-2.1 2.1 2.1 0 0 1 2.1 2.1Zm17.06-1.32a2.11 2.11 0 1 1-2.11-2.11 2.11 2.11 0 0 1 2.11 2.11Zm28.22 25a2.11 2.11 0 1 1-2.11-2.11 2.1 2.1 0 0 1 2.1 2.1Zm-17.22-2.11a2.11 2.11 0 1 1-2.12-2.1 2.1 2.1 0 0 1 2.11 2.09Zm3.63-14a2.11 2.11 0 1 1-2.11-2.11 2.1 2.1 0 0 1 2.1 2.1Z"/>
            <circle class="cls-6" cx="238" cy="90.34" r="2.11"/>
            <path class="cls-6"
                  d="M254.71 92.24a2.11 2.11 0 1 1-2.12-2.1 2.11 2.11 0 0 1 2.12 2.1Zm-52.83 22.54a2.11 2.11 0 1 1-2.12-2.1 2.1 2.1 0 0 1 2.11 2.09Zm7.64 12a2.11 2.11 0 1 1-2.12-2.1 2.1 2.1 0 0 1 2.11 2.09Zm-15.71 8a2.11 2.11 0 1 1-2.11-2.11 2.1 2.1 0 0 1 2.1 2.1ZM183.62 148a2.11 2.11 0 1 1-2.12-2.1 2.1 2.1 0 0 1 2.1 2.1Zm25-2.24a2.11 2.11 0 1 1-2.12-2.1h.06a2.1 2.1 0 0 1 2.02 2.12Zm-40.84 11.9a2.11 2.11 0 1 1-2.11-2.11 2.1 2.1 0 0 1 2.1 2.1Zm8.78-33a2.11 2.11 0 1 1-2.11-2.11 2.1 2.1 0 0 1 2.1 2.1ZM169.44 140a2.11 2.11 0 1 1-2.11-2.11 2.11 2.11 0 0 1 2.11 2.11Zm25.7-47a2.11 2.11 0 1 1-2.14-2.06 2.1 2.1 0 0 1 2.1 2.1ZM182 109.87a2.11 2.11 0 1 1-2.11-2.11 2.11 2.11 0 0 1 2.11 2.11Zm-12.56-13.35a2.11 2.11 0 1 1-2.11-2.11 2.11 2.11 0 0 1 2.11 2.11Zm-51.92 32.59a2.11 2.11 0 1 1-2.12-2.1 2.12 2.12 0 0 1 2.12 2.1Zm9.76-26.64a2.11 2.11 0 1 1-2.11-2.11 2.1 2.1 0 0 1 2.1 2.1ZM146 132.09a2.11 2.11 0 1 1-2.12-2.1 2.11 2.11 0 0 1 2.12 2.1Zm12.83-9.84a2.11 2.11 0 1 1-2.12-2.1 2.11 2.11 0 0 1 2.12 2.1ZM133.22 120a2.11 2.11 0 1 1-2.11-2.11 2.1 2.1 0 0 1 2.1 2.1Zm10.95-13.92a2.11 2.11 0 1 1-2.11-2.11 2.1 2.1 0 0 1 2.1 2.1Z"/>
            <path class="cls-3"
                  d="M135.3 227.61a60.45 60.45 0 0 1-12.93-1.4c-8.82-1.94-15.73-4.79-21-8.69a66.6 66.6 0 0 1-20.45 3.71c-22.68.61-43.21-6.48-68.38-26.85q-1.9-4.06-3.66-8.59c24.23 19.61 50.46 31 71.91 30.46A62.46 62.46 0 0 0 97 213.68c-5.85-6.1-8.8-14.07-8.76-23.75 0-10.61 4.56-15.42 8.34-17.58 5.35-3.07 12.67-2.65 19.09 1.09 7.08 4.13 11.29 11.11 11.26 18.68a20.53 20.53 0 0 1-8.08 16 61.83 61.83 0 0 1-11.89 7.15 59.2 59.2 0 0 0 39.6 6.24c21.31-4.23 39.11-11.79 52.9-22.47a85.91 85.91 0 0 0 33.52-70.76v-.09c-1.23-24.65-15.62-48.73-36.68-61.35-18.26-11-41.66-14-65.88-8.45-15 3.42-35.53 11.53-47.6 30.76-13 20.72-9.48 46.43 1.25 58.38 7.65 8.53 22.31 5.45 34.1 3l3.88-.8c12.67-2.52 64.08-26.63 64.28-26.7l1.09 4.1c-.83.29-51.38 24.9-64.4 27.49-1.24.24-2.52.51-3.83.79-13 2.73-29.26 6.13-38.83-4.53-6.96-7.72-10.81-18.88-10.88-31.37a62.9 62.9 0 0 1 9.08-33c13-20.67 34.75-29.34 50.72-33 25.47-5.78 50.17-2.58 69.54 9 22.4 13.5 37.7 39.17 39.06 65.39.11 1.34 1.45 20.46-8.78 42.1a90.35 90.35 0 0 1-26.66 33c-14.41 11.16-32.9 19-55 23.42a62.69 62.69 0 0 1-12.14 1.19Zm-30.71-52.31a11.22 11.22 0 0 0-5.59 1.39c-3.79 2.17-5.8 6.76-5.83 13.28 0 9.33 2.89 16.54 9 21.9a56.85 56.85 0 0 0 13.56-7.7 15.54 15.54 0 0 0 6.15-12c0-5.77-3.26-11.13-8.79-14.35a17.07 17.07 0 0 0-8.5-2.52Z"/>
            <path class="cls-6"
                  d="M105.35 220.1a5.81 5.81 0 0 1-1.87-.91 33.92 33.92 0 0 1-4-3 31.42 31.42 0 0 1-3.61-3.5 5.35 5.35 0 0 1-1.22-1.69c.06 0 .53.6 1.43 1.5s2.18 2.1 3.66 3.35 2.89 2.33 3.93 3.06a14.47 14.47 0 0 1 1.68 1.23Zm5.24-2.92a6 6 0 0 1-2.25-.57 18.7 18.7 0 0 1-4.8-2.87 23.86 23.86 0 0 1-3.91-4 7.45 7.45 0 0 1-1.22-2c.06 0 .56.68 1.49 1.75a30.12 30.12 0 0 0 4 3.82 22.82 22.82 0 0 0 4.63 2.94c1.22.64 2.08.85 2.06.93Z"/>
            <path class="cls-5"
                  d="M90.63 200a2.59 2.59 0 0 1-.32-.81 20.37 20.37 0 0 1-.58-2.3 29.59 29.59 0 0 1 1.09-15.44 18.94 18.94 0 0 1 .89-2.19 2.83 2.83 0 0 1 .42-.76c.08 0-.41 1.17-1 3.06a33.85 33.85 0 0 0-1.07 15.27c.32 2 .65 3.15.57 3.17Zm-12.45 17.9a9 9 0 0 1-2.41.42 26.24 26.24 0 0 1-11.61-1.65 8.62 8.62 0 0 1-2.2-1.07 19 19 0 0 1 2.32.74 33.22 33.22 0 0 0 5.66 1.32 34.19 34.19 0 0 0 5.81.31 19.73 19.73 0 0 1 2.43-.12Zm137.87-33.17a12.38 12.38 0 0 1-1.46 2.18 52.83 52.83 0 0 1-8.82 9 11.81 11.81 0 0 1-2.14 1.51 17.24 17.24 0 0 1 1.89-1.74c1.2-1.07 2.83-2.58 4.55-4.33s3.18-3.44 4.22-4.67a17.61 17.61 0 0 1 1.76-2ZM73.42 133.77a6.3 6.3 0 0 1-.51-1.33 34.17 34.17 0 0 1-1-3.73 47.57 47.57 0 0 1-1-5.66 50.87 50.87 0 0 1 .37-14 46.94 46.94 0 0 1 1.28-5.61 36.88 36.88 0 0 1 1.25-3.67 6.88 6.88 0 0 1 .58-1.3 9.34 9.34 0 0 1-.4 1.37c-.3.86-.68 2.12-1.09 3.69a53.35 53.35 0 0 0-1.17 5.59 63.2 63.2 0 0 0-.63 7 58.44 58.44 0 0 0 .27 7 53.72 53.72 0 0 0 .87 5.64c.33 1.59.64 2.87.89 3.74a8.39 8.39 0 0 1 .29 1.27Zm6-44.89a8.82 8.82 0 0 1-1.21 2.67A8.77 8.77 0 0 1 76.6 94a8.85 8.85 0 0 1 1.22-2.67 9.28 9.28 0 0 1 1.64-2.45Z"/>
            <path class="cls-6"
                  d="M200.52 44.78c-1.19 1.9-.17 4.41 1.16 6.21s3 3.53 3.3 5.75c.35 3-2.23 5.72-5 7a5.4 5.4 0 0 0-2.36 1.47c-.78 1.08-.46 2.56-.49 3.89a6.46 6.46 0 0 1-3.32 5.57 5.38 5.38 0 0 1-6.27-1 7.76 7.76 0 0 1-1.62-3.6 16.35 16.35 0 0 1 3.57-14.18c1.69-1.86 3.82-3.26 5.67-5s3.46-3.9 3.62-6.41m1.4-22.48c-1.39-3.58-5-5.79-8.66-7.06a24.49 24.49 0 0 0-16.25-.35c-7.62 2.76-12.74 9.86-16.68 16.94-1.71 3.08-3.63 6.52-7 7.55-1.8.54-3.73.29-5.6.5a11.48 11.48 0 0 0-7.48 4c-2.24 2.72-3.4 6.63-6.62 8.06-2.08.92-4.47.53-6.74.6-4.73.15-9.71 3-10.75 7.61-.69 3 .35 6.38-1 9.13-.5 1-1.3 1.84-1.78 2.85a5.19 5.19 0 0 0 7.55 6.55 13.31 13.31 0 0 1 2.07-1.38c1.64-.69 3.51.22 4.94 1.28s2.84 2.36 4.61 2.56c3.62.4 6.43-4 10.07-3.72 2 .14 3.65 1.67 5.4 2.72 3.06 1.84 4.6.19 7.19-2.26s4 7.87 10 5.18c5.58-2.52.06-12.07 2.1-11.85s7.4-.11 8.54-1.82"/>
            <path class="cls-6"
                  d="M200.88 32.68a13.58 13.58 0 0 0-1.58-12.31 17.84 17.84 0 0 0-7.64-5.82 19.13 19.13 0 0 0-12.75-1.18c-4.18 1.22-7.85 4.57-8.78 8.82-.42 1.93-.3 4-1.14 5.79a4.27 4.27 0 0 0-.78 2.41 2 2 0 0 0 1.6 1.54 4.47 4.47 0 0 0 2.32-.2 24.54 24.54 0 0 0 7-3.89"/>
            <path class="cls-13"
                  d="M187 70.38c.47-3.69.64-5.2.64-5.17s7.93-.41 10.69-10.38c1.38-5 2.06-13.27 2.41-20.09.3-6.13-2.89-14.07-9-14.11l-19.5 2.64a3.59 3.59 0 0 0-3.61 3.26l-3.08 44.4s8.8 10.42 16.44 9 5.01-9.55 5.01-9.55Z"/>
            <path class="cls-6"
                  d="M197.45 41.58a1.32 1.32 0 0 1-1.4 1.17 1.25 1.25 0 0 1-1.21-1.29 1.31 1.31 0 0 1 1.4-1.17 1.25 1.25 0 0 1 1.21 1.29Zm1-2.73c-.18.15-1.08-.69-2.49-.85s-2.51.43-2.64.24.14-.37.62-.65a3.6 3.6 0 0 1 2.14-.4 3.41 3.41 0 0 1 1.95.89c.4.38.52.7.42.77Zm-13.77 1.4a1.33 1.33 0 0 1-1.41 1.18 1.26 1.26 0 0 1-1.27-1.31 1.31 1.31 0 0 1 1.41-1.17 1.25 1.25 0 0 1 1.21 1.29Zm0-2.71c-.18.16-1.08-.69-2.48-.84s-2.51.43-2.65.24.14-.37.62-.65a3.6 3.6 0 0 1 2.14-.4 3.5 3.5 0 0 1 2 .88c.35.38.46.71.37.77Zm3.91 11a9 9 0 0 1 2.32-.16c.37 0 .71 0 .8-.26a1.85 1.85 0 0 0-.12-1.09q-.36-1.35-.75-2.85a46.72 46.72 0 0 1-1.57-7.39 47.9 47.9 0 0 1 2.09 7.21c.25 1 .48 1.95.71 2.86a2 2 0 0 1 0 1.42.92.92 0 0 1-.64.46 3.21 3.21 0 0 1-.62 0 9.79 9.79 0 0 1-2.29-.24Z"/>
            <path class="cls-14"
                  d="M187.61 65.21A26 26 0 0 1 174.42 60s2.62 7.42 12.89 7.62Zm-.09-13.38a2.52 2.52 0 0 0-2.15-1.2 2.28 2.28 0 0 0-1.69.68 1.43 1.43 0 0 0-.3 1.65 1.69 1.69 0 0 0 1.78.68 5.35 5.35 0 0 0 1.91-.87 1.46 1.46 0 0 0 .45-.37.49.49 0 0 0 .06-.52"/>
            <path class="cls-6"
                  d="M185.28 32.46c-.18.36-1.56 0-3.22 0s-3 .31-3.23-.05c-.08-.18.19-.51.77-.82a5.59 5.59 0 0 1 4.92 0c.57.36.84.69.76.87Zm13.43.22c-.28.29-1.21-.15-2.37-.3s-2.17 0-2.36-.38c-.08-.18.11-.48.58-.73a3.47 3.47 0 0 1 3.8.55c.38.36.48.71.35.86Z"/>
            <path class="cls-13"
                  d="M169.52 43.87c.08-.76-.59-2.64-1.32-2.84-2-.54-5.58-.79-6.18 4.28-.84 6.91 6.28 6.32 6.32 6.13s.89-4.96 1.18-7.57Z"/>
            <path class="cls-14"
                  d="M166.52 48.56a2.24 2.24 0 0 1-.35.14 1.17 1.17 0 0 1-.9-.09 3 3 0 0 1-1.06-2.84 3.88 3.88 0 0 1 .55-1.69 1.37 1.37 0 0 1 1-.81.62.62 0 0 1 .67.41.5.5 0 0 1 0 .35s.16-.09.14-.39a.8.8 0 0 0-.22-.46.86.86 0 0 0-.64-.26 1.69 1.69 0 0 0-1.39.92 4.07 4.07 0 0 0-.65 1.88c-.12 1.4.43 2.79 1.4 3.2a1.26 1.26 0 0 0 1.12-.05c.33-.14.33-.29.33-.31Z"/>
            <path class="cls-6"
                  d="M192.77 19.54a9.52 9.52 0 0 1-7.11 6.64c-1.79.37-3.9.31-5.07 1.71s-.79 3.7-1.92 5.18c-1.57 2.06-5.27 1.6-6.52 3.86-.54 1-.42 2.24-1 3.22a3.22 3.22 0 0 1-4 1.13 5.14 5.14 0 0 1-2.73-3.4 14 14 0 0 1-.33-4.47 24.75 24.75 0 0 1 1.55-8.68c2.42-5.7 11.71-13 17.82-12m16.28 34.12c1.58-1.87 3.08-4 4.67-5.83s3.05-3.68 3.24-6A9.69 9.69 0 0 0 206 29.5a69.93 69.93 0 0 0-6.59-9 9.12 9.12 0 0 0-1.85-1.82 4.6 4.6 0 0 0-2.09-.7 2.5 2.5 0 0 0-1.74.42 1.39 1.39 0 0 0-.51 1.61 2.58 2.58 0 0 0 1.32 1c2.88 1.47 4.73 4.48 5.55 7.61s.59 6.15.52 9.39c-.06 2.53-.4 5.22-.66 7.55"/>
            <path class="cls-6"
                  d="M183.52 12.93A21 21 0 0 0 164.33 21c-2.41 3.24-4.19 7.46-8 8.82-3.11 1.11-6.6-.13-9.86.45a9.1 9.1 0 0 0-6.69 5.3c-.93 2.18-1 4.8-2.67 6.52-2.14 2.27-6 2-8.23 4.25-1.8 1.84-1.86 4.8-1.14 7.28a4.08 4.08 0 0 0 1.7 2.61 4.2 4.2 0 0 0 2.73.21 31.12 31.12 0 0 0 8.92-3.53c6.37-3.42 12.5-7.27 18.63-11.11a38.11 38.11 0 0 0 8-6.07c3-3.26 4.75-7.43 6.85-11.34s4.79-7.77 8.81-9.62"/>
            <path class="cls-9"
                  d="M114.82 78.87a.92.92 0 0 1-.28-.09 3.25 3.25 0 0 1-.77-.38 5 5 0 0 1-1.89-2.65 6.16 6.16 0 0 1 .64-5.07 10.49 10.49 0 0 1 5.48-4.13 52.26 52.26 0 0 1 8.12-1.78 19.12 19.12 0 0 0 4.36-1.34 8.72 8.72 0 0 0 5.5-7.55 36.94 36.94 0 0 1 .9-5.32 13.66 13.66 0 0 1 7.36-8.4 13 13 0 0 1 5.66-1.22c1.91 0 3.76.34 5.56.46a12.4 12.4 0 0 0 5.2-.55 6.53 6.53 0 0 0 2.15-1.28 7.83 7.83 0 0 0 1.47-2c.79-1.44 1.31-3 2.17-4.4a11 11 0 0 1 3.31-3.31 26.6 26.6 0 0 1 7.75-3 48.36 48.36 0 0 0 6.54-2 16.44 16.44 0 0 0 4.42-2.57 9.83 9.83 0 0 0 2.07-2.47c.37-.64.51-1 .54-1a7.46 7.46 0 0 1-.45 1 9.09 9.09 0 0 1-2 2.56 16 16 0 0 1-4.44 2.68 45.4 45.4 0 0 1-6.55 2 26.73 26.73 0 0 0-7.61 3 10.37 10.37 0 0 0-3.17 3.19c-.83 1.32-1.33 2.89-2.14 4.39a7.82 7.82 0 0 1-1.56 2.09 6.72 6.72 0 0 1-2.29 1.38 12.85 12.85 0 0 1-5.4.59c-1.84-.12-3.67-.43-5.53-.45a12.5 12.5 0 0 0-5.45 1.18 13.19 13.19 0 0 0-7.11 8.08 39.06 39.06 0 0 0-.9 5.26 10.46 10.46 0 0 1-1.83 4.87 10.23 10.23 0 0 1-3.95 3 19.45 19.45 0 0 1-4.51 1.36 52.76 52.76 0 0 0-8.08 1.71 10.15 10.15 0 0 0-5.31 4 6 6 0 0 0-.67 4.87 5 5 0 0 0 1.77 2.62 10.41 10.41 0 0 0 .92.68Z"/>
            <path class="cls-9"
                  d="M115.44 57.62a2.66 2.66 0 0 1 .7-.68 4.73 4.73 0 0 1 2.67-.83 13.34 13.34 0 0 1 4.38.74 17.22 17.22 0 0 0 2.67.61 5.79 5.79 0 0 0 3-.29 6.25 6.25 0 0 0 2.56-2.05 11.58 11.58 0 0 0 1.66-3.22c.43-1.19.76-2.47 1.21-3.76a23.93 23.93 0 0 1 1.71-3.87 14.58 14.58 0 0 1 6.35-6.39 11.67 11.67 0 0 1 4.73-1c1.63-.05 3.26.06 4.89-.09a7.17 7.17 0 0 0 4.34-1.72 13.09 13.09 0 0 0 2.59-3.86 19.47 19.47 0 0 1 2.38-4 11.27 11.27 0 0 1 3.53-2.75 22.29 22.29 0 0 1 7.94-2c2.55-.25 4.93-.34 7.07-.65a18.75 18.75 0 0 0 5.57-1.57 12.24 12.24 0 0 0 3.61-2.52 8.66 8.66 0 0 0 1.59-2.25c.28-.57.39-.9.41-.89a4.45 4.45 0 0 1-.32.93 8.48 8.48 0 0 1-1.54 2.34 12.11 12.11 0 0 1-3.59 2.63 18.61 18.61 0 0 1-5.64 1.67c-2.16.34-4.55.45-7.08.71a21.82 21.82 0 0 0-7.77 2 10.78 10.78 0 0 0-3.38 2.65 18.91 18.91 0 0 0-2.31 3.9 13.41 13.41 0 0 1-2.69 4 7.72 7.72 0 0 1-4.68 1.85c-1.69.15-3.33 0-4.93.09a11.09 11.09 0 0 0-4.54.94 14.23 14.23 0 0 0-6.16 6.17 26.32 26.32 0 0 0-1.71 3.79c-.46 1.27-.79 2.55-1.24 3.76-.83 2.41-2.33 4.62-4.47 5.45a6.22 6.22 0 0 1-3.14.28 17.7 17.7 0 0 1-2.7-.65 13.17 13.17 0 0 0-4.3-.82 5 5 0 0 0-2.63.72c-.55.38-.76.69-.78.63Zm30.43 21.06a.81.81 0 0 0 .42-.19 1.81 1.81 0 0 0 .78-1 2.17 2.17 0 0 0-.32-2 5.32 5.32 0 0 0-2.17-1.67 10.87 10.87 0 0 1-3-1.75 6 6 0 0 1-1.68-3.68 7.56 7.56 0 0 1 .9-4.37 9.88 9.88 0 0 1 3.33-3.44 23.32 23.32 0 0 1 8.66-2.91 37.52 37.52 0 0 0 7.21-1.79 12.93 12.93 0 0 0 4.19-2.6c.85-.82 1.19-1.38 1.23-1.35s-.06.15-.23.41a8.06 8.06 0 0 1-.86 1.07 12.31 12.31 0 0 1-4.19 2.79 35.33 35.33 0 0 1-7.21 1.91c-2.73.54-5.8 1.14-8.48 2.88a9.45 9.45 0 0 0-3.18 3.26 7.23 7.23 0 0 0-.87 4.1 5.51 5.51 0 0 0 1.52 3.42 10.7 10.7 0 0 0 2.9 1.74 5.43 5.43 0 0 1 2.18 1.83 2.37 2.37 0 0 1 .27 2.16 1.86 1.86 0 0 1-.91 1 1 1 0 0 1-.51.18Z"/>
            <path class="cls-13"
                  d="M158.43 130.86s-1.15-1.25-.77-2.41 1.06-2 1.35-1.92.19-6.26 1.35-6.74a16.8 16.8 0 0 1 2.5-.77s1.35-3.46 2.12-3.37 9.33 1.64 9.33 1.64 6.74 7.22 6.35 7.89-.77 1.44-1.83 1.06a12.24 12.24 0 0 1-2.07-1.06l3.59 3.93s-.69 3-3.63.88l1.44 1.83s-.87 3.76-5.1.58l-4.33-2.6h-2.79l6.35 3.88s.67 1.91-1.25 1.9-6.76-2.56-6.76-2.56-2.88 1.7-3.85 1.7-1.23-1.07-1.23-1.07Z"/>
            <path class="cls-14"
                  d="M176.88 130.2a16.48 16.48 0 0 1-1.49-1.28 32.27 32.27 0 0 1-3.52-3.19 3 3 0 0 0-2.16-1 14.57 14.57 0 0 0-2.09.13 4 4 0 0 1-2-.09c0-.07.75 0 1.93-.25a11.17 11.17 0 0 1 2.16-.25 3.68 3.68 0 0 1 1.31.26 3.22 3.22 0 0 1 1.18.82c1.23 1.38 2.53 2.41 3.4 3.29a5.22 5.22 0 0 1 1.28 1.56Zm3.47-1.09a11.79 11.79 0 0 1-1.75-1.71c-1-1.09-2.5-2.59-4.14-4.2-.83-.79-1.6-1.6-2.35-2.19a4.37 4.37 0 0 0-2.35-.85 15.66 15.66 0 0 0-2.43 0 2 2 0 0 1 .67-.16 10 10 0 0 1 1.81-.13 4.64 4.64 0 0 1 2.6.83 29.89 29.89 0 0 1 2.43 2.21 56.83 56.83 0 0 1 4 4.31 11.23 11.23 0 0 1 1.54 1.9Z"/>
            <path class="cls-6"
                  d="M183.39 49.78c.26-.11.85.81 1.76 1.73s1.85 1.49 1.7 1.79-1.34 0-2.4-1.1-1.31-2.34-1.06-2.42Z"/>
            <path class="cls-3"
                  d="m257.2 130-8.89-45.7a3.43 3.43 0 0 0-6.73 1.31l.41 2.08-18.39 4.48a12.26 12.26 0 0 0-8.6 7.67l-11.09 2.73a7.18 7.18 0 0 0-5.25 8.67l1 4-10.85 2.68a5.64 5.64 0 1 0 2.7 11l10.86-2.67.77 3.13a7.17 7.17 0 0 0 8.67 5.25l11.29-2.78v-.09a12.25 12.25 0 0 0 10.9 2.54l16.32-4 .19 1a3.43 3.43 0 0 0 6.73-1.31Z"/>
            <path class="cls-6"
                  d="M257.2 130a2.5 2.5 0 0 1 .09.77 3.5 3.5 0 0 1-.78 2.12 3.54 3.54 0 0 1-3.38 1.2 3.49 3.49 0 0 1-2.61-2.37c-.13-.44-.19-.89-.29-1.35l.13.08-12 3-3.59.9a13.62 13.62 0 0 1-3.91.54 12.52 12.52 0 0 1-7.88-3l.3-.19v.08l.05.19h-.19c-3.81.93-7.8 2-12.09 2.95a7.4 7.4 0 0 1-6.27-2.2 7.28 7.28 0 0 1-1.77-3.05c-.31-1.14-.57-2.28-.86-3.43l.27.17-9.16 2.31c-.79.17-1.54.41-2.39.54a5.86 5.86 0 0 1-5.77-8.77 6.15 6.15 0 0 1 4.29-2.89l10.22-2.51-.18.29c-.2-.83-.41-1.69-.63-2.56a16.93 16.93 0 0 1-.55-2.73 7.39 7.39 0 0 1 1.69-5.26 7.23 7.23 0 0 1 2.15-1.77 9.9 9.9 0 0 1 2.6-.9L215 99.6l-.16.15a12.58 12.58 0 0 1 5.16-6.31 12.72 12.72 0 0 1 3.74-1.53l3.8-.94 14.44-3.53-.16.25c-.11-.54-.21-1.09-.32-1.63a4.57 4.57 0 0 1-.11-1.69 3.63 3.63 0 0 1 5.17-2.69 3.58 3.58 0 0 1 2 2.45l2.19 11.31c1.36 7.1 2.55 13.3 3.53 18.43s1.73 9.13 2.26 11.9c.25 1.36.44 2.41.57 3.14.06.35.11.61.14.81a1.31 1.31 0 0 1 0 .28.9.9 0 0 1-.07-.27 5.56 5.56 0 0 0-.17-.8l-.65-3.14C255.77 123 255 119 254 113.92s-2.23-11.32-3.63-18.41q-1-5.33-2.23-11.29a3.22 3.22 0 0 0-6-.66 3.28 3.28 0 0 0-.27.91 3.85 3.85 0 0 0 .1 1.55c.11.54.22 1.08.32 1.63v.2l-.2.05-14.43 3.57c-2.49.69-5.17 1-7.4 2.41a12.19 12.19 0 0 0-5 6.08l-.05.12H215l-10.26 2.53a9.1 9.1 0 0 0-2.48.85 6.92 6.92 0 0 0-2 1.65 6.85 6.85 0 0 0-1.58 4.91 15 15 0 0 0 .54 2.65c.21.88.43 1.74.63 2.57l.06.23-.24.06-10.15 2.47a5.6 5.6 0 0 0-4 2.66 5.37 5.37 0 0 0 5.29 8c.76-.1 1.56-.35 2.34-.53l9.15-2.24.22-.05v.21c.29 1.15.55 2.31.85 3.42a6.86 6.86 0 0 0 1.66 2.87 7 7 0 0 0 5.9 2.09c4.21-.94 8.27-2 12.06-2.91l-.13.23v-.08l-.14-.57.44.38a12.08 12.08 0 0 0 7.65 2.91 13.34 13.34 0 0 0 3.82-.52l3.59-.87 12-2.91h.11v.11c.1.46.16.93.28 1.34a3.19 3.19 0 0 0 .58 1.11 3.49 3.49 0 0 0 1.91 1.18 3.38 3.38 0 0 0 4-2.64 3 3 0 0 0 .07-.52v-.75Z"/>
            <path class="cls-6"
                  d="M250.68 130.2c-.13 0-2.27-9.46-4.78-21.18s-4.45-21.26-4.31-21.29 2.27 9.45 4.79 21.18 4.44 21.26 4.3 21.29Zm-27.61 1.48c-.13 0-2-7.09-4.26-15.9s-3.91-16-3.78-16 2 7.09 4.26 15.92 3.91 15.98 3.78 15.98Zm-20.71-5.48a24.26 24.26 0 0 1-1.59-5.4 45.29 45.29 0 0 1-1.1-5.52 24.87 24.87 0 0 1 1.58 5.41 46.73 46.73 0 0 1 1.11 5.51Z"/>
            <path class="cls-5"
                  d="M212.22 102.47c0 .07-1.07.23-2.79.59-.86.18-1.88.41-3 .72a15.19 15.19 0 0 0-3.46 1.36 4.76 4.76 0 0 0-2.45 2.54 7.23 7.23 0 0 0-.06 3c.22 1.73.51 2.79.44 2.81a8.83 8.83 0 0 1-.79-2.76 7.32 7.32 0 0 1 0-3.16 3.61 3.61 0 0 1 1-1.65 7.71 7.71 0 0 1 1.63-1.2 14.27 14.27 0 0 1 3.58-1.38c1.14-.29 2.18-.48 3-.62a10.84 10.84 0 0 1 2.9-.25Zm26.3-12.13a3.49 3.49 0 0 1-1 .29c-.61.15-1.51.36-2.62.6l-8.66 1.82a18.52 18.52 0 0 0-4.52 1.58 9.39 9.39 0 0 0-3 2.46 8.21 8.21 0 0 0-1.49 3.26 2.26 2.26 0 0 1 .07-1 6.94 6.94 0 0 1 1.17-2.47 9.34 9.34 0 0 1 3-2.64 16.88 16.88 0 0 1 4.63-1.67c3.4-.73 6.47-1.27 8.71-1.68 1.11-.2 2-.35 2.65-.45a4.41 4.41 0 0 1 1-.1Zm-40.75 27.43a4.84 4.84 0 0 1-1.93.77c-1.25.34-3 .48-4.89.88a9.73 9.73 0 0 0-2.51.88 6.2 6.2 0 0 0-1.71 1.3 8.94 8.94 0 0 0-1.09 1.7 3.07 3.07 0 0 1 .82-1.92 6 6 0 0 1 1.76-1.48 9 9 0 0 1 2.62-1c1.93-.41 3.69-.49 4.92-.74a10.56 10.56 0 0 1 2-.39ZM246 82.56c0 .08-.37.07-.9.21a3.56 3.56 0 0 0-1.75 1.08 3.46 3.46 0 0 0-.79 1.91c-.06.54 0 .9-.07.91s-.25-.31-.28-.92a3.21 3.21 0 0 1 .76-2.22 3.28 3.28 0 0 1 2.07-1.1c.61-.07 1 .07 1 .13Z"/>
            <path class="cls-6"
                  d="M391.7 75.82a.94.94 0 0 1-.18.12l-.57.31-2.21 1.15-8.2 4.19L353 95.45l-.18.1-.13-.17c-.76-1.09-1.57-2.24-2.4-3.4l-3.41-4.84.32.07L321.57 102l-7.64 4.36-2.08 1.15c-.22.12-.39.22-.54.29s-.19.1-.19.09l.17-.13.52-.33 2-1.23 7.57-4.48 25.56-14.95.19-.12.13.19c1.1 1.54 2.25 3.18 3.43 4.83.82 1.17 1.63 2.32 2.4 3.4l-.31-.08 27.58-13.72 8.27-4.05 2.25-1.08.58-.26Zm-7.29 36.12a2.72 2.72 0 0 1-.54.15l-1.58.35-5.86 1.24-19.61 3.8h-.24v-.24l-.44-2.43c-.09-.55-.19-1.1-.28-1.6l.28.2c-7.95 1.36-15 3-20 4.36-2.53.66-4.55 1.23-6 1.62l-1.61.45a2.9 2.9 0 0 1-.57.12 3.21 3.21 0 0 1 .54-.22l1.58-.53c1.39-.45 3.4-1.07 5.92-1.77a204.56 204.56 0 0 1 20.05-4.44h.24v.24c.09.51.19 1.06.29 1.6.15.84.29 1.66.43 2.43l-.29-.2 19.64-3.65 5.88-1 1.6-.26a1.91 1.91 0 0 1 .57-.19Zm-67-34.71c.12.06-2.42 5.56-5.69 12.28s-6 12.12-6.13 12.06S308 96 311.24 89.29s6.01-12.12 6.13-12.06Zm29.86 27c0 .13-6.29 2.09-14.13 4.38s-14.24 4-14.27 3.91 6.28-2.09 14.13-4.38 14.19-4.08 14.23-3.95ZM298.29 60a5.13 5.13 0 0 1 .41 1c.26.74.6 1.72 1 2.92.87 2.58 2.05 6.14 3.45 10.33l.1.3h-.32l-7.81-.16.25-.29c.18 1 .38 2 .58 3.11 1.28 7 2.43 13.42 3.29 18.12.39 2.27.71 4.13.94 5.5.09.6.17 1.1.23 1.5a1.87 1.87 0 0 1 0 .53 2.15 2.15 0 0 1-.15-.51c-.08-.4-.19-.89-.32-1.49l-1.09-5.47c-.89-4.69-2.1-11.06-3.44-18.1-.19-1.06-.39-2.1-.57-3.1l-.06-.29h.3l7.81.2-.21.3-3.23-10.4c-.37-1.22-.67-2.21-.89-3a8.85 8.85 0 0 1-.27-1Zm-34.53 75.35c-.06-.12 5-2.62 11.33-5.58s11.48-5.26 11.54-5.14-5 2.63-11.33 5.59-11.48 5.27-11.54 5.15Zm23.58 7.25a50.67 50.67 0 0 1 4.32-5.58 52.17 52.17 0 0 1 4.71-5.26 49.83 49.83 0 0 1-4.33 5.58 52.2 52.2 0 0 1-4.7 5.28Zm12.71 34.4c-.13 0 .73-9.75 1.94-21.75s2.29-21.72 2.43-21.7-.74 9.75-1.94 21.75-2.29 21.7-2.43 21.7ZM282.7 90.8a22.87 22.87 0 0 1 2.3 4.09 22.53 22.53 0 0 1 1.86 4.31 22.22 22.22 0 0 1-2.3-4.09 22.56 22.56 0 0 1-1.86-4.31Z"/>
        </g>
    </g>
</svg>