<svg width="21" height="21" viewBox="0 0 21 21" fill="none" xmlns="http://www.w3.org/2000/svg">
    <g clip-path="url(#clip0_20_1386)">
        <path d="M16.5966 13.0088C16.1667 12.5611 15.6481 12.3218 15.0985 12.3218C14.5534 12.3218 14.0304 12.5567 13.5827 13.0043L12.1821 14.4005C12.0669 14.3384 11.9517 14.2808 11.8409 14.2232C11.6813 14.1434 11.5306 14.0681 11.4021 13.9883C10.0901 13.155 8.89788 12.0691 7.75438 10.6641C7.20035 9.96384 6.82805 9.37436 6.55768 8.77601C6.92112 8.4436 7.25797 8.09789 7.58595 7.76547C7.71006 7.64137 7.83416 7.51284 7.95826 7.38874C8.88902 6.45798 8.88902 5.25242 7.95826 4.32166L6.74827 3.11167C6.61087 2.97427 6.46904 2.83244 6.33608 2.69061C6.07014 2.41582 5.79092 2.13216 5.50282 1.86622C5.0729 1.44073 4.55877 1.21469 4.01804 1.21469C3.47731 1.21469 2.95431 1.44073 2.51109 1.86622C2.50666 1.87066 2.50666 1.87066 2.50223 1.87509L0.995282 3.39533C0.427962 3.96265 0.104412 4.65407 0.0334966 5.4563C-0.072876 6.7505 0.308293 7.95606 0.600817 8.74499C1.31883 10.6819 2.39142 12.4769 3.99145 14.4005C5.93275 16.7185 8.26851 18.549 10.9367 19.8388C11.9561 20.3219 13.3168 20.8936 14.837 20.9911C14.9301 20.9956 15.0276 21 15.1163 21C16.1401 21 16.9999 20.6321 17.6736 19.9008C17.6781 19.892 17.6869 19.8875 17.6914 19.8787C17.9218 19.5994 18.1878 19.3468 18.467 19.0764C18.6576 18.8947 18.8526 18.7041 19.0432 18.5047C19.482 18.0482 19.7124 17.5163 19.7124 16.9711C19.7124 16.4215 19.4775 15.8941 19.0299 15.4509L16.5966 13.0088ZM18.1833 17.6759C18.1789 17.6759 18.1789 17.6803 18.1833 17.6759C18.0105 17.862 17.8332 18.0304 17.6426 18.2166C17.3545 18.4914 17.062 18.7795 16.7872 19.103C16.3395 19.5817 15.8121 19.8077 15.1207 19.8077C15.0542 19.8077 14.9833 19.8077 14.9168 19.8033C13.6004 19.7191 12.3772 19.205 11.4597 18.7662C8.95107 17.5518 6.74827 15.8276 4.91777 13.6426C3.4064 11.8209 2.39586 10.1367 1.72659 8.32836C1.3144 7.22475 1.16371 6.3649 1.23019 5.55381C1.27451 5.03524 1.47396 4.60532 1.84183 4.23745L3.35321 2.72607C3.57039 2.52219 3.80086 2.41138 4.0269 2.41138C4.30613 2.41138 4.53217 2.57981 4.674 2.72164C4.67844 2.72607 4.68287 2.7305 4.6873 2.73493C4.95766 2.98757 5.21473 3.24907 5.48509 3.5283C5.62249 3.67013 5.76432 3.81196 5.90615 3.95822L7.11614 5.16821C7.58595 5.63802 7.58595 6.07238 7.11614 6.54219C6.98761 6.67072 6.86351 6.79925 6.73497 6.92336C6.36267 7.30452 6.00809 7.6591 5.62249 8.00481C5.61363 8.01368 5.60476 8.01811 5.60033 8.02697C5.21916 8.40814 5.29008 8.78044 5.36986 9.03308C5.37429 9.04638 5.37872 9.05967 5.38315 9.07297C5.69784 9.83531 6.14106 10.5533 6.81475 11.4087L6.81918 11.4132C8.04247 12.9201 9.33224 14.0946 10.755 14.9944C10.9367 15.1096 11.1228 15.2027 11.3001 15.2913C11.4597 15.3711 11.6104 15.4465 11.7389 15.5262C11.7566 15.5351 11.7744 15.5484 11.7921 15.5573C11.9428 15.6326 12.0846 15.6681 12.2309 15.6681C12.5988 15.6681 12.8292 15.4376 12.9046 15.3623L14.4204 13.8464C14.5711 13.6957 14.8104 13.514 15.0897 13.514C15.3645 13.514 15.5905 13.6869 15.7279 13.8376C15.7323 13.842 15.7323 13.842 15.7368 13.8464L18.1789 16.2886C18.6354 16.7407 18.6354 17.206 18.1833 17.6759Z"
              fill="url(#paint0_linear_20_1386)"/>
        <path d="M11.3489 4.99535C12.5101 5.19037 13.565 5.73996 14.4071 6.58208C15.2492 7.4242 15.7944 8.47906 15.9938 9.6403C16.0426 9.93282 16.2952 10.1367 16.5833 10.1367C16.6188 10.1367 16.6498 10.1323 16.6853 10.1278C17.0132 10.0746 17.2304 9.7644 17.1772 9.43641C16.9379 8.03141 16.2731 6.7505 15.2581 5.73553C14.2431 4.72056 12.9622 4.05573 11.5572 3.81639C11.2292 3.7632 10.9234 3.98038 10.8658 4.30393C10.8082 4.62748 11.0209 4.94217 11.3489 4.99535Z"
              fill="url(#paint1_linear_20_1386)"/>
        <path d="M20.9756 9.26356C20.5811 6.94995 19.4908 4.84466 17.8154 3.16929C16.1401 1.49392 14.0348 0.403603 11.7212 0.00913737C11.3976 -0.0484811 11.0918 0.173129 11.0342 0.496679C10.981 0.824661 11.1982 1.13048 11.5262 1.1881C13.5916 1.53824 15.4752 2.51776 16.9733 4.01141C18.4714 5.50949 19.4465 7.39317 19.7966 9.45858C19.8454 9.7511 20.098 9.95498 20.3861 9.95498C20.4216 9.95498 20.4526 9.95055 20.4881 9.94612C20.8116 9.89736 21.0332 9.58711 20.9756 9.26356Z"
              fill="url(#paint2_linear_20_1386)"/>
    </g>
    <defs>
        <linearGradient id="paint0_linear_20_1386" x1="9.86385" y1="1.21469" x2="9.86385" y2="21"
                        gradientUnits="userSpaceOnUse">
            <stop stop-color="#0B9BFF"/>
            <stop offset="1" stop-color="#17B8F1"/>
        </linearGradient>
        <linearGradient id="paint1_linear_20_1386" x1="14.0208" y1="3.80838" x2="14.0208" y2="10.1367"
                        gradientUnits="userSpaceOnUse">
            <stop stop-color="#0B9BFF"/>
            <stop offset="1" stop-color="#17B8F1"/>
        </linearGradient>
        <linearGradient id="paint2_linear_20_1386" x1="16.0055" y1="1.52588e-05" x2="16.0055" y2="9.95498"
                        gradientUnits="userSpaceOnUse">
            <stop stop-color="#0B9BFF"/>
            <stop offset="1" stop-color="#17B8F1"/>
        </linearGradient>
        <clipPath id="clip0_20_1386">
            <rect width="21" height="21" fill="white"/>
        </clipPath>
    </defs>
</svg>
