<svg width="29" height="29" viewBox="0 0 29 29" fill="none" xmlns="http://www.w3.org/2000/svg">
    <g clip-path="url(#clip0_268_2)">
        <path d="M25.9686 29C25.57 29.0003 25.1752 28.922 24.8069 28.7697C24.4385 28.6173 24.1038 28.3939 23.8218 28.1122L0.900688 5.19113C0.384499 4.6149 0.107878 3.86327 0.127368 3.08989C0.146858 2.3165 0.460986 1.57977 1.00554 1.03026C1.5501 0.480754 2.28397 0.159976 3.05715 0.133494C3.83032 0.107012 4.58442 0.376824 5.1653 0.887781L28.0864 23.8089C28.5055 24.2339 28.79 24.7731 28.9042 25.359C29.0184 25.9449 28.9573 26.5514 28.7285 27.1028C28.4997 27.6541 28.1133 28.1257 27.6178 28.4586C27.1223 28.7915 26.5397 28.9708 25.9428 28.9742L25.9686 29Z"
              fill="#626262"/>
        <path d="M3.03139 29C2.43447 28.9966 1.85181 28.8173 1.35631 28.4844C0.860818 28.1515 0.474497 27.6799 0.245694 27.1286C0.0168915 26.5773 -0.0442296 25.9707 0.0699795 25.3848C0.184189 24.7989 0.468655 24.2597 0.887781 23.8347L23.8089 0.913611C24.3867 0.41626 25.1307 0.154663 25.8926 0.180855C26.6546 0.207047 27.3788 0.519109 27.9212 1.05497C28.4636 1.59082 28.7844 2.31121 28.8197 3.07282C28.8551 3.83443 28.6025 4.58146 28.1122 5.16531L5.19113 28.0864C4.90974 28.3743 4.57387 28.6034 4.20307 28.7602C3.83228 28.9171 3.43399 28.9986 3.03139 29Z"
              fill="#626262"/>
    </g>
    <defs>
        <clipPath id="clip0_268_2">
            <rect width="29" height="29" fill="white"/>
        </clipPath>
    </defs>
</svg>
