<svg width="138" height="133" viewBox="0 0 138 133" fill="none" xmlns="http://www.w3.org/2000/svg">
    <path d="M138 66.5C138 103.227 107.108 133 69 133C30.8924 133 0 103.227 0 66.5C0 29.7731 30.8924 0 69 0C107.108 0 138 29.7731 138 66.5Z"
          fill="#F3F3F3"/>
    <path d="M21.699 33.9633C19.207 34.6237 17.723 37.1787 18.381 39.6683L29.0887 80.1096C29.4877 81.617 29.1073 83.227 28.0737 84.396L25.8103 86.9556C24.7767 88.1246 24.3963 89.7323 24.7953 91.242L30.1293 111.383C30.7897 113.875 33.3447 115.359 35.8343 114.701L42.601 112.909L86.2833 59.1027L21.699 33.9633Z"
          fill="url(#paint0_linear_189_2)"/>
    <path d="M96.7343 98.578L42.5987 112.912L21.699 33.9633L75.8347 19.6297C78.3267 18.9693 80.8817 20.4557 81.5397 22.9453L100.052 92.8683C100.713 95.3627 99.2263 97.9177 96.7343 98.578Z"
          fill="url(#paint1_linear_189_2)"/>
    <path d="M96.3097 37.1576L104.733 92.5206C105.118 95.057 103.359 97.451 100.822 97.836L101.525 102.449C101.912 104.997 100.162 107.377 97.614 107.764L52.632 114.608C49.447 115.093 46.472 112.902 45.9867 109.717L36.336 46.281C35.951 43.7446 37.7103 41.3506 40.2467 40.9656L90.9967 33.2446C93.533 32.8596 95.9247 34.619 96.3097 37.1576Z"
          fill="url(#paint2_linear_189_2)"/>
    <path d="M100.822 97.836L101.525 102.449C101.718 103.723 100.843 104.913 99.5693 105.107L52.2797 112.3C50.3687 112.592 48.5837 111.278 48.292 109.367C48.0003 107.456 49.314 105.671 51.225 105.38L100.822 97.836Z"
          fill="url(#paint3_linear_189_2)"/>
    <path d="M55.0097 69.388C54.445 69.388 53.9457 68.975 53.8593 68.3963C53.7613 67.7593 54.2 67.1643 54.837 67.0687L84.825 62.5047C85.455 62.409 86.057 62.8453 86.1527 63.4823C86.2507 64.1193 85.812 64.7143 85.175 64.81L55.187 69.374C55.1287 69.3833 55.0703 69.388 55.0097 69.388Z"
          fill="#2EB7EC"/>
    <path d="M53.6073 60.162C53.0427 60.162 52.5433 59.749 52.457 59.1703C52.359 58.5333 52.7977 57.9383 53.4347 57.8427L83.4227 53.281C84.0503 53.1923 84.6547 53.6217 84.7503 54.2587C84.8483 54.8957 84.4097 55.4907 83.7727 55.5863L53.7847 60.148C53.7263 60.1573 53.6657 60.162 53.6073 60.162Z"
          fill="#2EB7EC"/>
    <path d="M56.4143 78.6164C55.8497 78.6164 55.3503 78.2034 55.264 77.6247C55.166 76.9877 55.6047 76.3927 56.2417 76.297L86.232 71.733C86.8597 71.6444 87.464 72.0737 87.5597 72.7107C87.6577 73.3477 87.219 73.9427 86.582 74.0384L56.5917 78.6024C56.5333 78.6117 56.4727 78.6164 56.4143 78.6164Z"
          fill="#2EB7EC"/>
    <path d="M58.169 90.15C57.6043 90.15 57.105 89.737 57.0187 89.1583C56.9207 88.5213 57.3593 87.9263 57.9963 87.8307L60.472 87.455C61.585 87.2847 62.6047 86.7293 63.3443 85.8917L63.9113 85.2523C65.1947 83.8033 66.9657 82.9517 68.9 82.856C70.86 82.7673 72.68 83.43 74.101 84.7413L75.1137 85.67C76.194 86.6687 77.657 87.1097 79.0967 86.8903C80.548 86.6687 81.8033 85.8147 82.5407 84.5407C82.8673 83.9807 83.5767 83.794 84.1343 84.1137C84.692 84.4357 84.8833 85.1497 84.5613 85.7073C83.4693 87.5973 81.605 88.869 79.4513 89.198C77.3 89.5223 75.137 88.8643 73.5363 87.3873L72.5237 86.4587C71.5693 85.572 70.3117 85.1193 69.0213 85.1893C67.7193 85.2547 66.527 85.8263 65.6637 86.8017L65.099 87.4387C63.9953 88.687 62.4787 89.513 60.829 89.7627L58.3533 90.1383C58.288 90.1453 58.2273 90.15 58.169 90.15Z"
          fill="#2EB7EC"/>
    <path opacity="0.05"
          d="M36.3267 46.2833C35.9533 43.74 37.7033 41.36 40.2467 40.9633L84.5333 34.22L84.23 33.1L83.9267 31.9567L39.8967 38.6533C36.07 39.2367 33.4567 42.8067 34.0167 46.6333L43.6767 110.077C43.7933 110.917 44.05 111.687 44.4233 112.41L46.7567 111.803C46.36 111.197 46.1033 110.497 45.9867 109.727L36.3267 46.2833Z"
          fill="black"/>
    <path opacity="0.07"
          d="M36.3267 46.2833C35.9533 43.74 37.7033 41.36 40.2467 40.9633L84.5333 34.22L84.23 33.1L40.06 39.82C36.8867 40.2866 34.6933 43.2733 35.1833 46.4466L44.82 109.89C44.96 110.683 45.2167 111.43 45.59 112.107L46.7567 111.803C46.36 111.197 46.1033 110.497 45.9867 109.727L36.3267 46.2833Z"
          fill="black"/>
    <path d="M100.526 57.502C93.743 74.9343 85.8097 88.12 82.8067 86.951C79.8037 85.782 82.8697 70.704 89.6527 53.2693C96.4357 35.8347 104.369 22.6513 107.372 23.8203C110.375 24.9893 107.311 40.0673 100.526 57.502Z"
          fill="url(#paint4_linear_189_2)"/>
    <path d="M103.961 51.8904C103.198 53.848 99.9217 53.631 96.319 52.2287C92.7163 50.8264 90.152 48.773 90.915 46.813C96.6783 32.0034 104.455 20.6564 108.06 22.0564C111.661 23.461 109.724 37.0807 103.961 51.8904Z"
          fill="url(#paint5_linear_189_2)"/>
    <path d="M101.1 53.3066C99.77 53.3066 98.0667 52.91 96.3167 52.2333C94.0767 51.3466 92.2333 50.2266 91.3467 49.0133C91.02 49.8066 90.6933 50.6 90.3667 51.4166C91.4167 52.42 93.05 53.4466 95.4767 54.4033C96.9233 54.9633 99.0933 55.64 101.1 55.64H101.217C101.543 54.8233 101.847 54.0066 102.103 53.2133C101.8 53.2833 101.45 53.3066 101.1 53.3066Z"
          fill="#D4D4D4"/>
    <defs>
        <linearGradient id="paint0_linear_189_2" x1="18.2247" y1="74.4117" x2="86.2833" y2="74.4117"
                        gradientUnits="userSpaceOnUse">
            <stop stop-color="#0176D0"/>
            <stop offset="1" stop-color="#16538C"/>
        </linearGradient>
        <linearGradient id="paint1_linear_189_2" x1="21.699" y1="66.1914" x2="100.209" y2="66.1914"
                        gradientUnits="userSpaceOnUse">
            <stop stop-color="#33BEF0"/>
            <stop offset="1" stop-color="#22A5E2"/>
        </linearGradient>
        <linearGradient id="paint2_linear_189_2" x1="38.4757" y1="68.0813" x2="116.782" y2="81.8876"
                        gradientUnits="userSpaceOnUse">
            <stop stop-color="#FCFCFC"/>
            <stop offset="1" stop-color="#C3C9CD"/>
        </linearGradient>
        <linearGradient id="paint3_linear_189_2" x1="76.7346" y1="117.915" x2="74.3494" y2="102.254"
                        gradientUnits="userSpaceOnUse">
            <stop stop-color="#F0F0F0"/>
            <stop offset="1" stop-color="#BBC1C4"/>
        </linearGradient>
        <linearGradient id="paint4_linear_189_2" x1="107.127" y1="43.565" x2="72.7453" y2="77.3283"
                        gradientUnits="userSpaceOnUse">
            <stop stop-color="#4C4C4C"/>
            <stop offset="1" stop-color="#343434"/>
        </linearGradient>
        <linearGradient id="paint5_linear_189_2" x1="102.796" y1="39.155" x2="68.4147" y2="72.9184"
                        gradientUnits="userSpaceOnUse">
            <stop stop-color="#4C4C4C"/>
            <stop offset="1" stop-color="#343434"/>
        </linearGradient>
    </defs>
</svg>
