<svg width="112" height="112" viewBox="0 0 112 112" fill="none" xmlns="http://www.w3.org/2000/svg">
<path d="M13.699 23.9633C11.207 24.6237 9.72299 27.1787 10.381 29.6683L21.0887 70.1096C21.4877 71.617 21.1073 73.227 20.0737 74.396L17.8103 76.9556C16.7767 78.1246 16.3963 79.7323 16.7953 81.242L22.1293 101.383C22.7897 103.875 25.3447 105.359 27.8343 104.701L34.601 102.909L78.2833 49.1027L13.699 23.9633Z" fill="url(#paint0_linear_82_15)"/>
<path d="M88.7343 88.578L34.5987 102.912L13.699 23.9633L67.8347 9.62968C70.3267 8.96935 72.8817 10.4557 73.5397 12.9453L92.0523 82.8683C92.7127 85.3627 91.2263 87.9177 88.7343 88.578Z" fill="url(#paint1_linear_82_15)"/>
<path d="M88.3097 27.1576L96.733 82.5206C97.118 85.057 95.3587 87.451 92.8223 87.836L93.5247 92.449C93.912 94.997 92.162 97.377 89.614 97.7643L44.632 104.608C41.447 105.093 38.472 102.902 37.9867 99.7173L28.336 36.281C27.951 33.7446 29.7103 31.3506 32.2467 30.9656L82.9967 23.2446C85.533 22.8596 87.9247 24.619 88.3097 27.1576Z" fill="url(#paint2_linear_82_15)"/>
<path d="M92.8223 87.836L93.5247 92.449C93.7183 93.723 92.8433 94.913 91.5693 95.1067L44.2797 102.3C42.3687 102.592 40.5837 101.278 40.292 99.3673C40.0003 97.4563 41.314 95.6713 43.225 95.3797L92.8223 87.836Z" fill="url(#paint3_linear_82_15)"/>
<path d="M47.0097 59.388C46.445 59.388 45.9457 58.975 45.8593 58.3963C45.7613 57.7593 46.2 57.1643 46.837 57.0687L76.825 52.5047C77.455 52.409 78.057 52.8453 78.1527 53.4823C78.2507 54.1193 77.812 54.7143 77.175 54.81L47.187 59.374C47.1287 59.3833 47.0703 59.388 47.0097 59.388Z" fill="#2EB7EC"/>
<path d="M45.6073 50.162C45.0427 50.162 44.5433 49.749 44.457 49.1703C44.359 48.5333 44.7977 47.9383 45.4347 47.8427L75.4227 43.281C76.0503 43.1923 76.6547 43.6217 76.7503 44.2587C76.8483 44.8957 76.4097 45.4907 75.7727 45.5863L45.7847 50.148C45.7263 50.1573 45.6657 50.162 45.6073 50.162Z" fill="#2EB7EC"/>
<path d="M48.4143 68.6164C47.8497 68.6164 47.3503 68.2034 47.264 67.6247C47.166 66.9877 47.6047 66.3927 48.2417 66.297L78.232 61.733C78.8597 61.6444 79.464 62.0737 79.5597 62.7107C79.6577 63.3477 79.219 63.9427 78.582 64.0384L48.5917 68.6024C48.5333 68.6117 48.4727 68.6164 48.4143 68.6164Z" fill="#2EB7EC"/>
<path d="M50.169 80.15C49.6043 80.15 49.105 79.737 49.0187 79.1583C48.9207 78.5213 49.3593 77.9263 49.9963 77.8307L52.472 77.455C53.585 77.2847 54.6047 76.7293 55.3443 75.8917L55.9113 75.2523C57.1947 73.8033 58.9657 72.9517 60.9 72.856C62.86 72.7673 64.68 73.43 66.101 74.7413L67.1137 75.67C68.194 76.6687 69.657 77.1097 71.0967 76.8903C72.548 76.6687 73.8033 75.8147 74.5407 74.5407C74.8673 73.9807 75.5767 73.794 76.1343 74.1137C76.692 74.4357 76.8833 75.1497 76.5613 75.7073C75.4693 77.5973 73.605 78.869 71.4513 79.198C69.3 79.5223 67.137 78.8643 65.5363 77.3873L64.5237 76.4587C63.5693 75.572 62.3117 75.1193 61.0213 75.1893C59.7193 75.2547 58.527 75.8263 57.6637 76.8017L57.099 77.4387C55.9953 78.687 54.4787 79.513 52.829 79.7627L50.3533 80.1383C50.288 80.1453 50.2273 80.15 50.169 80.15Z" fill="#2EB7EC"/>
<path opacity="0.05" d="M28.3267 36.2833C27.9533 33.74 29.7033 31.36 32.2467 30.9633L76.5333 24.22L76.23 23.1L75.9267 21.9567L31.8967 28.6533C28.07 29.2367 25.4567 32.8067 26.0167 36.6333L35.6767 100.077C35.7933 100.917 36.05 101.687 36.4233 102.41L38.7567 101.803C38.36 101.197 38.1033 100.497 37.9867 99.7267L28.3267 36.2833Z" fill="black"/>
<path opacity="0.07" d="M28.3267 36.2833C27.9533 33.74 29.7033 31.36 32.2467 30.9633L76.5333 24.22L76.23 23.1L32.06 29.82C28.8867 30.2866 26.6933 33.2733 27.1833 36.4466L36.82 99.89C36.96 100.683 37.2167 101.43 37.59 102.107L38.7567 101.803C38.36 101.197 38.1033 100.497 37.9867 99.7266L28.3267 36.2833Z" fill="black"/>
<path d="M92.526 47.502C85.743 64.9343 77.8097 78.12 74.8067 76.951C71.8037 75.782 74.8697 60.704 81.6527 43.2693C88.4357 25.8347 96.369 12.6513 99.372 13.8203C102.375 14.9893 99.3113 30.0673 92.526 47.502Z" fill="url(#paint4_linear_82_15)"/>
<path d="M95.9607 41.8904C95.1977 43.848 91.9217 43.631 88.319 42.2287C84.7163 40.8264 82.152 38.773 82.915 36.813C88.6783 22.0034 96.4553 10.6564 100.06 12.0564C103.661 13.461 101.724 27.0807 95.9607 41.8904Z" fill="url(#paint5_linear_82_15)"/>
<path d="M93.1 43.3066C91.77 43.3066 90.0667 42.91 88.3167 42.2333C86.0767 41.3466 84.2333 40.2266 83.3467 39.0133C83.02 39.8066 82.6933 40.6 82.3667 41.4166C83.4167 42.42 85.05 43.4466 87.4767 44.4033C88.9233 44.9633 91.0933 45.64 93.1 45.64H93.2167C93.5433 44.8233 93.8467 44.0066 94.1033 43.2133C93.8 43.2833 93.45 43.3066 93.1 43.3066Z" fill="#D4D4D4"/>
<defs>
<linearGradient id="paint0_linear_82_15" x1="10.2247" y1="64.4117" x2="78.2833" y2="64.4117" gradientUnits="userSpaceOnUse">
<stop stop-color="#0176D0"/>
<stop offset="1" stop-color="#16538C"/>
</linearGradient>
<linearGradient id="paint1_linear_82_15" x1="13.699" y1="56.1914" x2="92.2087" y2="56.1914" gradientUnits="userSpaceOnUse">
<stop stop-color="#33BEF0"/>
<stop offset="1" stop-color="#22A5E2"/>
</linearGradient>
<linearGradient id="paint2_linear_82_15" x1="30.4757" y1="58.0813" x2="108.782" y2="71.8876" gradientUnits="userSpaceOnUse">
<stop stop-color="#FCFCFC"/>
<stop offset="1" stop-color="#C3C9CD"/>
</linearGradient>
<linearGradient id="paint3_linear_82_15" x1="68.7346" y1="107.915" x2="66.3494" y2="92.2542" gradientUnits="userSpaceOnUse">
<stop stop-color="#F0F0F0"/>
<stop offset="1" stop-color="#BBC1C4"/>
</linearGradient>
<linearGradient id="paint4_linear_82_15" x1="99.127" y1="33.565" x2="64.7453" y2="67.3283" gradientUnits="userSpaceOnUse">
<stop stop-color="#4C4C4C"/>
<stop offset="1" stop-color="#343434"/>
</linearGradient>
<linearGradient id="paint5_linear_82_15" x1="94.7963" y1="29.155" x2="60.4147" y2="62.9184" gradientUnits="userSpaceOnUse">
<stop stop-color="#4C4C4C"/>
<stop offset="1" stop-color="#343434"/>
</linearGradient>
</defs>
</svg>
