<svg xmlns="http://www.w3.org/2000/svg" viewBox="0 0 30 28.73"><defs><style>.cls-1{fill:#fe7d43;}.cls-2{fill:#ee6161;}.cls-3{fill:#c2a1d5;}.cls-4{fill:#8ac9fe;}.cls-5{fill:#75cdd5;}.cls-6{fill:#6cf5c2;}.cls-7{fill:#fd6930;}.cls-8{fill:#e94444;}.cls-9{fill:#a274bf;}.cls-10{fill:#26a6fe;}.cls-11{fill:#fee97d;}.cls-12{fill:#fec165;}.cls-13{fill:#2abcc8;}.cls-14{fill:#00f2a6;}.cls-15{fill:#fedf30;}.cls-16{fill:#fdb441;}</style></defs><g id="Слой_2" data-name="Слой 2"><g id="Слой_1-2" data-name="Слой 1"><path class="cls-1" d="M27.75,10.15,26.2,8.77,23,10l-.43,1.77L21,19.24l5.36,2.33.67-.85a14.19,14.19,0,0,0,1.43-6.24A14.42,14.42,0,0,0,27.75,10.15Z"/><path class="cls-2" d="M22.23,18.33l-1.88.91-4.83,3.41,2.15,4.8,1.54.38h0A14.3,14.3,0,0,0,27,20.68Z"/><path class="cls-3" d="M17.37,22.78l-1-.72-6.13-.93-3,4.73,1.36,1.71h0a14.25,14.25,0,0,0,10.59.27h0Z"/><path class="cls-4" d="M10.49,21,7.08,15.66,1.14,17.5v2.57a14.25,14.25,0,0,0,7.48,7.5h0l2.16-4.92Z"/><path class="cls-5" d="M2.52,7.7.9,9.48h0a14.31,14.31,0,0,0,.24,10.59h0L6.1,18l.65-1.49.39-7.33Z"/><path class="cls-6" d="M10.91,1.66H8A14.34,14.34,0,0,0,.9,9.48h0l5,1.92L9.21,9.74l4.34-3.9Z"/><path class="cls-7" d="M22.68,11.75l-.26-1.17-3.25.82L19,12.9a5.17,5.17,0,0,1,.25,1.58,5.08,5.08,0,0,1-.47,2.14l.07,1.2L21,18.94l1.27-.61a8.87,8.87,0,0,0,.45-6.58Z"/><path class="cls-8" d="M18.78,16.62a5,5,0,0,1-2.73,2.54l-.47.87,1,2.47.82.28a8.88,8.88,0,0,0,4.86-4.45Z"/><path class="cls-9" d="M16.05,19.16a5,5,0,0,1-3.73-.05l-1,.11-1.2,2.46.67,1a8.89,8.89,0,0,0,6.59.13Z"/><path class="cls-10" d="M9.66,16.51l-.8-.58-2.58.9L6.1,18a8.92,8.92,0,0,0,4.67,4.65l1.55-3.54A5,5,0,0,1,9.66,16.51Z"/><path class="cls-11" d="M21.07,2A14.26,14.26,0,0,0,8,1.66l2.31,4.86,2.3,1,7.21,1.22L22,4.31Z"/><path class="cls-12" d="M30,9.05a.38.38,0,0,1-.25.49l-1.94.61L24.11,11.3a10.45,10.45,0,0,0-4.94-6L21,2,22,.2a.39.39,0,0,1,.53-.15A16.76,16.76,0,0,1,30,9.05Z"/><path class="cls-13" d="M9.23,14.48a4.83,4.83,0,0,1,.3-1.7l0-2.09H7.33l-1.4.71A8.93,8.93,0,0,0,6.1,18l3.56-1.49A4.93,4.93,0,0,1,9.23,14.48Z"/><path class="cls-14" d="M12.15,7.1l-1.8-.58A8.86,8.86,0,0,0,5.93,11.4l3.6,1.38A5,5,0,0,1,12,10h0l.82-.93Z"/><path class="cls-15" d="M18.46,6.68h0a8.89,8.89,0,0,0-8.11-.16L12,10a5,5,0,0,1,4.58.06l1.26.06,1.24-1.65Z"/><path class="cls-16" d="M24.1,11.3l-1.45.45L19,12.9a5,5,0,0,0-2.43-2.85l1.86-3.37.74-1.33A10.39,10.39,0,0,1,24.1,11.3Z"/></g></g></svg>