<svg width="50" height="50" fill="none" xmlns="http://www.w3.org/2000/svg">
    <path d="M0 16.5c0-5.1254 0-7.68804.837325-9.70952C1.95376 4.09517 4.09517 1.95376 6.79048.837325 8.81196 0 11.3746 0 16.5 0h17c5.1254 0 7.688 0 9.7095.837325 2.6953 1.116435 4.8367 3.257845 5.9532 5.953155C50 8.81196 50 11.3746 50 16.5v17c0 5.1254 0 7.688-.8373 9.7095-1.1165 2.6953-3.2579 4.8367-5.9532 5.9532C41.188 50 38.6254 50 33.5 50h-17c-5.1254 0-7.68804 0-9.70952-.8373-2.69531-1.1165-4.83672-3.2579-5.953155-5.9532C0 41.188 0 38.6254 0 33.5v-17Z"
          fill="url(#a)"/>
    <g clip-path="url(#b)">
        <path d="M12 41.748V8.82001h25.34v6.44839h-18v6.6738h15.84V28.42H19.34v6.86h18.24v6.468H12Z" fill="#2C66BD"/>
    </g>
    <defs>
        <linearGradient id="a" x1="-.00000132" y1="49.98" x2="48.9704" y2="-.989207" gradientUnits="userSpaceOnUse">
            <stop stop-color="#F4F4F4"/>
            <stop offset="1" stop-color="#F5F5F5"/>
        </linearGradient>
        <clipPath id="b">
            <path fill="#fff" transform="translate(12 8.82001)" d="M0 0h25.58v32.928H0z"/>
        </clipPath>
    </defs>
</svg>