<svg width="19" height="19" viewBox="0 0 19 19" fill="none" xmlns="http://www.w3.org/2000/svg">
    <path d="M9.50001 1.58333C5.12764 1.58333 1.58334 5.12762 1.58334 9.5C1.58334 13.8724 5.12764 17.4167 9.50001 17.4167C13.8724 17.4167 17.4167 13.8724 17.4167 9.5C17.4167 5.12762 13.8724 1.58333 9.50001 1.58333ZM12.6667 10.2917H10.2917V12.6667C10.2917 13.1037 9.93701 13.4583 9.50001 13.4583C9.06301 13.4583 8.70834 13.1037 8.70834 12.6667V10.2917H6.33334C5.89634 10.2917 5.54168 9.937 5.54168 9.5C5.54168 9.063 5.89634 8.70833 6.33334 8.70833H8.70834V6.33333C8.70834 5.89633 9.06301 5.54166 9.50001 5.54166C9.93701 5.54166 10.2917 5.89633 10.2917 6.33333V8.70833H12.6667C13.1037 8.70833 13.4583 9.063 13.4583 9.5C13.4583 9.937 13.1037 10.2917 12.6667 10.2917Z"
          fill="white"/>
</svg>
