<svg width="21" height="19" fill="none" xmlns="http://www.w3.org/2000/svg"><path d="M19.5488.884038c-.1996.008606-.3984.061883-.5808.132692h-.0005c-.1777.06935-1.3192.54227-2.9831 1.23275s-3.8265 1.58938-5.9707 2.48099C5.72537 6.51371 1.51145 8.26786 1.51145 8.26786l.01896-.00689s-.23515.07704-.47047.23609c-.117653.07953-.24118.18113-.338915.32226-.097735.14113-.166522.33441-.140162.5417.04757.37408.302544.61876.512977.76568.21042.147.41244.2166.41244.2166l.0023.0012 4.12159 1.3625c.06782.2361 1.16949 4.0723 1.4292 4.8822.13585.4241.26148.6595.37913.8076.05883.0741.11692.1267.17521.1626.02505.0154.04989.0259.0741.035.00394.0015.00816.0045.01206.0058.00831.0028.01275.0028.02298.0052.38831.1436.71632-.1069.71632-.1069l.00919-.0069 2.82564-2.4862 4.1791 3.3513.0367.0161c.6707.2889 1.225.1302 1.547-.1241.322-.2542.4526-.5871.4526-.5871l.0104-.0258 3.0146-15.24846c.0739-.32619.0813-.6.0173-.83523-.0641-.23523-.2132-.4265-.3981-.53365-.185-.107158-.3852-.143028-.5848-.134422Zm.0161.598562c.1171-.00503.2157.01105.274.04481.0583.03376.0961.07247.1252.17922.0291.10676.0361.28696-.0235.55031l-.0012.00403-3.0026 15.18933c-.0044.0101-.0817.192-.2648.3366-.1845.1457-.4357.2534-.9271.0499l-6.7175-5.387c-.02795-.0294-.06166-.0527-.09903-.0684-.03737-.0157-.07758-.0235-.11811-.023-.07732-.0009-.15189.0287-.20758.0823-.05569.0537-.08801.1271-.08998.2044l-.76573 4.1026c-.03914-.0901-.08133-.1959-.12695-.3383-.23704-.7392-1.30298-4.4406-1.40794-4.8052L16.7553 4.77815c.0152.0653.0522.12345.105.16482.0528.04137.1181.06348.1851.06266.0443.00053.0882-.00897.1284-.02779.0401-.01882.0755-.04647.1034-.08089.028-.03442.0478-.07471.058-.11786.0102-.04315.0105-.08805.0009-.13133.0078-.09001.0002-.17852-.0391-.26654-.0635-.14203-.2137-.2285-.3205-.24874-.2136-.04047-.3527.03734-.3527.03734l-.0293.01092L5.8272 11.1527 1.70044 9.7884l-.00115-.00057c-.00109-.00038-.13073-.04716-.26883-.14361-.13869-.09686-.24883-.22257-.26597-.3573-.00599-.04713.00306-.07905.04021-.1327.03715-.05365.10603-.11706.1844-.17003.15673-.10595.32972-.16602.32972-.16602l.00919-.00344.00977-.00402s4.21348-1.75422 8.50172-3.53739c2.1441-.89159 4.307-1.79005 5.9707-2.48042 1.6636-.69038 2.8517-1.18162 2.971-1.22815.1312-.05095.2666-.07711.3837-.08215Zm-3.3432 3.72868-.2356.11833-.0465.25965.1804.19244.1017.0178.2355-.11776.0465-.25964-.1798-.19244-.1022-.01838Zm-.8232.79445-.2355.11776-.0466.25964.1798.19244.1023.01838.2355-.11833.0465-.25907-.1803-.19244-.1017-.01838Zm-.8238.79387-.2355.11833-.0465.25908.1798.19243.1022.01838.2356-.11776.0465-.25964-.1798-.19244-.1023-.01838Zm-.8231.79445-.2361.11776-.046.25964.1798.19244.1023.01838.2355-.11833.0465-.25907-.1804-.19301-.1016-.01781Zm-.8238.79387-.2355.11833-.0465.25908.1798.19243.1022.01838.2356-.11775.0465-.25965-.1798-.19244-.1023-.01838Zm-.8237.79387-.2355.11834-.0466.25964.1804.19244.1017.01781.2361-.11776.0459-.25965-.1798-.19243-.1022-.01839Zm-.8232.79445-.2355.11776-.0465.2596.1798.1925.1022.0184.2355-.1184.0466-.259-.1804-.19248-.1017-.01838Zm-.8237.79386-.2355.1183-.0466.2591.1804.1925.1017.0183.2355-.1177.0465-.2597-.1798-.1924-.1022-.0184Zm-.8232.7945-.23609.1177-.04596.2597.1798.1924.10225.0184.23552-.1183.04653-.2597-.18037-.1924-.10168-.0178Zm-.62498 1.6245 1.79968 1.443-2.47522 2.1771.67554-3.6201Z" fill="#BBB"/></svg>