<svg width="19" height="20" fill="none" xmlns="http://www.w3.org/2000/svg"><path d="M8.88079.00044176C8.28807.00383864 7.69366.0395035 7.09415.112532 5.94777.253493 4.81159.487863 3.72126.988871 1.98726 1.78539.757669 3.13726.401019 5.10223.249868 5.93102.127588 6.77169.0579564 7.61746-.0762119 9.25975.00700624 10.9071.472349 12.5256c.36684 1.2755 1.042781 2.4219 2.226511 3.1657.50101.3142 1.16166.4671 1.50642.6267.09681.0459.12059.073.12568.0798.00509.0051.01868.017.01698.1189-.01189 1.0394 0 3.0502 0 3.0502l.0017.4331h.77614l.12568-.1223s1.97176-1.897 2.68506-2.6782c.12907-.1393.19531-.2174.20889-.2259.01189-.0085-.00849-.0136.12398-.017.93578-.0187 1.86991-.0544 2.80391-.1053 1.2313-.0679 2.4864-.1851 3.6939-.6895 1.0513-.4399 1.9293-1.1583 2.4609-2.235.5435-1.104.8339-2.2741.9426-3.485.18-2.01593.1172-4.03525-.4399-6.02569-.3278-1.16676-.9867-2.15349-1.9972-2.84981C14.5243.734121 13.1606.421628 11.8257.222923 11.0462.107437 10.2615.031012 9.47351.00723508 9.2765.00213998 9.0795-.00125647 8.88079.00044176ZM9.44973.876781c.74897.02038 1.49797.093408 2.24857.205499 1.2874.19191 2.5017.48402 3.5427 1.20072.8441.58083 1.3706 1.36546 1.6525 2.36578.5197 1.86137.5859 3.7686.411 5.71662-.1002 1.1226-.3668 2.1806-.8576 3.1775-.4331.8798-1.1091 1.4385-2.016 1.8173-1.0529.4398-2.1976.557-3.4034.6232-.9239.051-1.8495.085-2.77509.1036-.23267.0051-.46025.0663-.62159.1852-.16134.1188-.23437.2292-.33457.3379-.5095.5571-1.5251 1.537-2.07876 2.0737-.0034-.6488-.00849-1.4334 0-2.1569.0034-.2225-.04755-.45-.17493-.6301-.12737-.18-.3023-.2887-.47044-.3668-.49081-.2276-1.13278-.4008-1.41131-.5757-.97315-.6114-1.5251-1.5285-1.85288-2.6698C.87825 10.7916.796731 9.25465.924106 7.69049c.067933-.8118.185114-1.6253.332874-2.43201C1.56608 3.55845 2.53752 2.4885 4.083 1.7786c.97654-.44836 2.01932-.66915 3.11814-.803315C7.95011.883574 8.69907.854703 9.44973.876781Zm.18342 2.167069c-.35835 0-.7065.04076-1.04447.11549-.23267.05435-.38043.28702-.32778.52139.05265.23437.28702.38042.52139.32778.27343-.06284.55875-.09511.85086-.09511 2.12295 0 3.83485 1.71192 3.83485 3.83313 0 .29382-.0323.57914-.0951.85427-.0527.23267.0934.46704.3278.51969.2343.05264.467-.09511.5196-.32948.0765-.33627.1172-.68443.1172-1.04448 0-2.59165-2.111-4.70268-4.70435-4.70268Zm-4.33754.87125c-.07133-.0034-.14436.0017-.22078.01868-.78973.17493-1.57435.74726-1.59643 1.76966.02208.14266.02038.29551.07303.42458.25814.63178.48232 1.28394.805 1.88176 1.57096 2.90412 3.94693 4.92342 6.97507 6.20572.3617.1528.7354.1851 1.1005.0322.5027-.2088.929-.5315 1.2126-.9952.3889-.6368.394-1.0784-.2462-1.5489-.4195-.309-.8322-.6266-1.2568-.9289-.6471-.4586-1.3468-.5384-1.8291.2666-.0255.0408-.0629.0747-.0951.1087-.24798.2632-.55198.3278-.87466.1953-1.2245-.5044-2.17047-1.3179-2.74111-2.52882-.33627-.7116-.24456-1.06825.38382-1.54208.06284-.04586.12228-.09511.18003-.14776.27513-.25135.34815-.55026.18511-.88822-.36853-.77105-.85935-1.45887-1.48094-2.05159-.16814-.15964-.36005-.25984-.57404-.27173Zm4.33075.43307c-.19191 0-.38213.01529-.56894.04756-.15795.02038-.29212.12567-.34986.27343-.05774.14945-.02887.31758.07303.43986.1036.12059.26664.17663.42288.14266.13587-.02207.27853-.03396.42289-.03396 1.41304 0 2.54754 1.13448 2.54754 2.5475 0 .14435-.0119.28701-.034.42288-.034.15625.0221.31929.1426.42289.1223.1019.2905.13077.4399.07302.1478-.05774.2531-.19191.2734-.34985.0323-.18682.0476-.37703.0476-.56894 0-1.88176-1.5353-3.41705-3.41704-3.41705Zm-.06114 1.30432c-.15625-.0017-.3023.07982-.38213.21569-.07812.13587-.07812.3023 0 .43817.07983.13587.22588.21739.38213.21569.72518 0 1.30428.57913 1.30428 1.30432-.0017.15624.0799.3023.2157.38212.1359.07812.3023.07812.4382 0 .1359-.07982.2174-.22588.2157-.38212 0-1.19563-.9783-2.17387-2.17388-2.17387Z" fill="#BBB"/></svg>