<svg width="20" height="20" fill="none" xmlns="http://www.w3.org/2000/svg"><path d="M10 0C4.4823 0 0 4.4823 0 10s4.4823 10 10 10 10-4.4823 10-10S15.5177 0 10 0Zm0 .869565c5.0477 0 9.1304 4.082685 9.1304 9.130435 0 5.0477-4.0827 9.1304-9.1304 9.1304C4.95225 19.1304.869565 15.0477.869565 10 .869565 4.95225 4.95225.869565 10 .869565ZM5.65302 6.95652l-1.75441.00085s-.10039-.00566-.22164.01019c-.12125.01585-.30036.02321-.48404.23098l-.00084.00085-.00085.00085c-.16338.18683-.15715.40429-.13672.52394.02035.11922.0659.20825.06623.2089v.00085c.01687.04139 1.29072 3.16257 2.89657 4.83947 1.13272 1.1837 2.34416 1.5744 3.42307 1.5744H10c.1841 0 .3485-.0084.5307-.1027.1822-.0944.3389-.3549.3389-.5571 0-.2179.0053-.4291.0331-.5469.0259-.1099.0159-.0829.0263-.0832.0104.0023.0294.0067.0654.0229.0776.0351.1974.1134.3303.2166.2655.2061.5799.505.9324.7362.505.3347 1.053.3142 1.053.3142h1.8071l.0195-.0017s.2773-.0063.5622-.1808c.1424-.0873.3117-.2475.3685-.4875.0569-.24-.0157-.4918-.1554-.7133-.051-.0812-.2987-.4402-1.2873-1.3179-.2555-.2266-.4296-.3869-.4985-.4722-.0245-.0302-.0265-.0273-.0314-.0289.0057-.0148.0629-.1351.2157-.3337.1592-.2069.4012-.4953.7124-.89162.3967-.5053.6749-.99118.8501-1.40116.0875-.20499.1496-.391.1868-.55961.0372-.16862.0669-.30877.0119-.50866-.041-.1488-.1524-.28207-.2616-.35241-.1091-.07035-.2109-.09685-.3023-.1138-.1827-.03389-.3439-.02802-.4942-.02802-.3147 0-1.7137.01104-1.8292.01104-.1355 0-.3517.05644-.4517.11379-.2484.14224-.3261.33713-.3261.33713l-.0238.04161-.0136.0467s-.3185 1.03053-.6462 1.56165h-.0009c-.3853.62571-.6727.8739-.799.94426-.0135.0075-.006.0035-.0153.0085-.0099-.02876-.0224-.0684-.0306-.14178-.0185-.16532-.0076-.39813-.0076-.62331 0-.62366.0468-1.01255-.0051-1.38077-.026-.18411-.0921-.38914-.2429-.54688-.1508-.15773-.3456-.23537-.5401-.28023h-.0008c-.20274-.04668-.42119-.08677-.94602-.09171-.6687-.00623-1.10419.0145-1.49117.18682l-.00424.00255-.0034.0017c-.1529.07182-.27344.15414-.37959.26409-.05307.05498-.11604.09501-.15964.27005-.02181.08751-.0242.25309.07473.38722.09892.13413.23755.17459.31929.18513-.01508-.00196.0643.01551.12568.04585.06137.03035.11466.07404.12823.09171v.00085c-.00568-.00737.05326.13909.06878.27259.01552.1335.01274.24117.01274.24117l-.00085.02632.00255.02633s.02669.29542.01273.60037c-.00698.15248-.02625.30595-.0518.39997-.00135.00497-.00197.00323-.00339.00764-.10886-.07602-.35987-.34093-.70568-.91202-.31966-.52829-.61905-1.47843-.61905-1.47843l-.0068-.02123-.00764-.02038s-.05582-.21226-.30231-.38553c-.23103-.16264-.45092-.18513-.45092-.18513l-.03991-.00764Zm-.10105.86957c.02487.00909.07686.02782.08662.03227l-.01019-.03057s.01338.03073.01358.03141c.00011.00006.00166.00081.0017.00085v.00085h.00085c-.02185-.01528-.00333-.00011-.00085.0034.01201.04097.27749.95545.69209 1.64062.37768.62378.65672.97318.96127 1.18208.30427.2087.71341.1872.92137.079.27793-.1444.35562-.3816.40931-.5792.05369-.19757.07284-.39803.08152-.58762.01655-.36173-.01176-.65764-.01444-.68699.00044-.01634.00431-.15767-.01783-.34816-.02232-.19195-.06232-.43049-.23268-.67001.19082-.02835.29677-.07152.6819-.06793.49115.00462.56586.02511.75917.06963.10528.02428.11694.04439.107.03397-.00997-.01043-.00087-.01739.01104.06708.0238.16892-.0034.60213-.0034 1.25934 0 .18526-.01789.44652.0127.72011.0306.27338.1161.62328.4467.82798.1884.1166.5482.1567.8874-.0323.3392-.1889.6872-.5514 1.1158-1.24744.4234-.68628.6766-1.58857.704-1.68394 0 0 .0048-.00314.0077-.00509.0076.00037-.0021.0017.0101.0017.1611 0 1.5352-.01104 1.8292-.01104.0809 0 .1164.00435.1766.00679-.0243.09387-.0571.20318-.1172.34392-.1413.33078-.3838.75982-.7345 1.20669-.3023.38499-.5371.66421-.7167.89761-.1796.2333-.3207.4174-.3796.6836-.0589.2661.0535.5663.2072.7566.1537.1903.3439.3505.5978.5757.9566.8493 1.1135 1.1063 1.1286 1.1303v.0009c.0161.0256.0057-.0002.0119.0127-.0543.0169-.1188.036-.1249.0374h-1.762s-.3236-.0106-.5639-.1699l-.0008-.0008h-.0009c-.2541-.1665-.5613-.452-.8772-.6972-.1579-.1226-.3187-.2375-.5052-.3218-.1866-.0844-.423-.1442-.6718-.0697-.3601.1078-.5599.4505-.6241.7227-.0461.1953-.0393.3652-.0408.5358-.0124.0007-.0016.0009-.0161.0009h-.55961c-.8837 0-1.80304-.2698-2.79467-1.3061-1.28921-1.3463-2.43943-3.94976-2.61209-4.34526l1.51834-.00085Zm7.58403.00339c-.0079.00176.0147.00347.0332.0051-.0025.00135.0002-.0012-.0034.00085-.0004-.00727-.0192-.00831-.0298-.00595Z" fill="#BBB"/></svg>