<svg width="21" height="21" fill="none" xmlns="http://www.w3.org/2000/svg"><path d="M10.7598.76001C5.24217.76001.759766 5.24242.759766 10.76c0 1.7735.486384 3.4287 1.297554 4.8735L.7759 20.208c-.020472.0732-.021397.1505-.002683.2242.018715.0737.056414.1412.10934.1957.052926.0546.119233.0943.192303.1152.07306.021.15035.0224.22414.0042l4.76987-1.1821c1.4016.7483 2.99202 1.1948 4.69093 1.1948 5.5176 0 10-4.4824 10-10 0-5.51758-4.4824-9.99999-10-9.99999Zm0 .86956c5.0476 0 9.1304 4.08282 9.1304 9.13043 0 5.0476-4.0828 9.1304-9.1304 9.1304-1.61828 0-3.13389-.4219-4.45146-1.1591-.09637-.0538-.2096-.069-.31675-.0425L1.81445 19.724l1.12008-3.9963c.01603-.0564.02045-.1156.01301-.1738-.00745-.0582-.0266-.1144-.05632-.165-.80072-1.3578-1.26189-2.9375-1.26189-4.6289 0-5.04761 4.08281-9.13043 9.13047-9.13043ZM7.1261 5.54262c-.27871 0-.67675.10369-1.00373.45601-.1964.21162-1.01478 1.00899-1.01478 2.41084 0 1.46153 1.01365 2.72263 1.13621 2.88463h.00085v.0009c-.01163-.0153.15556.2268.37874.5171.22317.2904.53525.6717.92731 1.0845.78411.8255 1.88658 1.7797 3.2549 2.3632.6302.2684 1.1273.4304 1.5039.5486.698.2192 1.3338.1859 1.8113.1155.3575-.0526.7507-.2243 1.1396-.4704.389-.2462.7703-.5523.9384-1.0174.1204-.3334.1817-.6415.2038-.895.0111-.1268.0125-.2387.0042-.3422-.0082-.1036.0006-.1829-.0959-.3414-.2024-.3324-.4317-.341-.6709-.4594-.1329-.0658-.5113-.2506-.8908-.4314-.3791-.1806-.7073-.3406-.9094-.4127-.1278-.046-.2837-.1121-.5087-.0866-.225.0255-.4472.1878-.5766.3796-.1226.1817-.6163.7645-.7668.9358-.002-.0012.011.0048-.0484-.0247-.1862-.0921-.4138-.1704-.7507-.3481-.3369-.1777-.7583-.4401-1.21943-.8467v-.0008c-.68635-.6043-1.16711-1.3629-1.31878-1.61771.01022-.01215-.00121.00257.02038-.01868l.00085-.00085c.15501-.15268.29238-.33502.40846-.46875.16458-.1896.23721-.35675.31589-.51291.15682-.31123.0695-.6537-.02122-.8339v-.00085c.00626.01247-.04908-.10964-.1087-.2505-.05979-.14127-.136-.32441-.21739-.51971-.16279-.39059-.34454-.82867-.45262-1.08525v-.00085c-.12732-.30223-.29958-.51996-.52479-.625-.22522-.10504-.42419-.07518-.43224-.07558h-.00085c-.16071-.00741-.33707-.00934-.51206-.00934Zm0 .86956c.16763 0 .33289.00205.4713.0085.14239.00709.13353.00767.10615-.0051-.02782-.01297.00993-.01719.09086.17493.10583.25124.28847.69091.45177 1.08271.08165.1959.15806.37975.21909.52395.06103.1442.09409.22471.13247.30146v.00085l.00085.00085c.03763.07424.0343.02671.02123.05265-.09175.1821-.1042.22681-.19701.33373-.14131.16279-.28546.34434-.36175.41949-.06676.06558-.1872.16774-.2624.3677-.07532.20027-.04017.4751.08067.6802.16088.2731.69105 1.136 1.51495 1.8614.51886.4574 1.00222.7601 1.38842.9638.3862.2037.7007.3227.7711.3575.1671.0828.3497.147.5621.1215.2124-.0255.3955-.1544.5121-.2862l.0008-.0008c.1552-.1759.6161-.7023.8373-1.0267.0094.0033.0063.0007.0798.0272v.0008h.0009c.0336.012.454.2001.8288.3787.3748.1787.7553.3643.8789.4255.1784.0883.2627.1458.2845.146.0014.0383.0029.0798-.0026.1427-.0152.1746-.0619.4163-.1554.6751-.0458.1267-.2843.388-.5851.5783-.3007.1904-.6669.3248-.8024.3448-.4077.06-.8917.082-1.4233-.0849-.3685-.1157-.8281-.2655-1.4232-.5189-1.20688-.5147-2.23263-1.3905-2.96536-2.162-.36636-.3858-.65989-.7448-.86872-1.0165-.20843-.2711-.29945-.4122-.37534-.512l-.00084-.0009c-.13471-.1781-.95958-1.32551-.95958-2.35903 0-1.09381.50804-1.52275.78295-1.81896.14432-.1555.3021-.17833.36599-.17833Z" fill="#BBB"/></svg>