<svg width="20" height="20" viewBox="0 0 256 256" xmlns="http://www.w3.org/2000/svg">
    <path opacity="0.6"
          d="M228.749 100.047c-3.516-3.666-7.151-7.457-8.338-10.324-1.061-2.568-1.141-7.83-1.212-12.471-.15-9.998-.339-22.44-9.175-31.276s-21.278-9.025-31.276-9.175c-4.642-.07-9.903-.15-12.47-1.212-2.868-1.187-6.659-4.822-10.324-8.338C148.868 20.456 140.051 12 128 12c-12.05 0-20.868 8.456-27.953 15.251-3.666 3.516-7.457 7.151-10.324 8.338-2.568 1.061-7.83 1.141-12.471 1.212-9.998.15-22.44.339-31.276 9.175S36.95 67.254 36.8 77.252c-.07 4.642-.15 9.903-1.212 12.47-1.187 2.868-4.822 6.659-8.338 10.324C20.456 107.132 12 115.949 12 128c0 12.05 8.456 20.868 15.251 27.953 3.516 3.666 7.151 7.457 8.338 10.324 1.061 2.568 1.141 7.83 1.212 12.471.15 9.998.339 22.44 9.175 31.276s21.278 9.025 31.276 9.175c4.642.07 9.903.15 12.47 1.212 2.868 1.187 6.659 4.822 10.324 8.338C107.132 235.544 115.949 244 128 244c12.05 0 20.868-8.456 27.953-15.251 3.666-3.516 7.457-7.151 10.324-8.338 2.568-1.061 7.83-1.141 12.471-1.212 9.998-.15 22.44-.339 31.276-9.175s9.025-21.278 9.175-31.276c.07-4.642.15-9.903 1.212-12.47 1.187-2.868 4.822-6.659 8.338-10.324C235.544 148.868 244 140.051 244 128c0-12.05-8.456-20.868-15.251-27.953Zm-17.322 39.295c-4.818 5.023-10.279 10.718-13.192 17.76-2.814 6.8-2.925 14.163-3.033 21.284-.08 5.364-.191 12.712-2.148 14.668-1.956 1.957-9.304 2.067-14.668 2.148-7.121.108-14.484.219-21.284 3.033-7.042 2.913-12.737 8.374-17.76 13.192-3.56 3.414-8.94 8.573-11.342 8.573s-7.782-5.16-11.342-8.573c-5.023-4.818-10.718-10.279-17.76-13.192-6.8-2.814-14.163-2.925-21.284-3.033-5.364-.08-12.712-.191-14.668-2.148-1.957-1.956-2.067-9.304-2.148-14.668-.108-7.121-.219-14.484-3.033-21.284-2.913-7.042-8.374-12.737-13.192-17.76C41.16 135.782 36 130.402 36 128s5.16-7.782 8.573-11.342c4.818-5.023 10.279-10.718 13.192-17.76 2.814-6.8 2.925-14.163 3.033-21.284.08-5.364.191-12.712 2.148-14.668 1.956-1.957 9.304-2.067 14.668-2.148 7.121-.108 14.484-.219 21.284-3.033 7.042-2.913 12.737-8.374 17.76-13.192C120.218 41.16 125.598 36 128 36s7.782 5.16 11.342 8.573c5.023 4.818 10.718 10.279 17.76 13.192 6.8 2.814 14.163 2.925 21.284 3.033 5.364.08 12.712.191 14.668 2.148 1.957 1.956 2.067 9.304 2.148 14.668.108 7.121.219 14.484 3.033 21.284 2.913 7.042 8.374 12.737 13.192 17.76 3.414 3.56 8.573 8.94 8.573 11.342s-5.16 7.782-8.573 11.342ZM180.68 95.714a12.002 12.002 0 0 1-.395 16.967l-58.667 56a12.002 12.002 0 0 1-16.572 0l-29.333-28a12 12 0 0 1 16.572-17.362l21.047 20.091 50.38-48.09a12.004 12.004 0 0 1 16.968.394Z"/>
</svg>