<svg version="1.0" width="20" height="20" viewBox="0 0 71.831 73.937" xmlns="http://www.w3.org/2000/svg">
    <path d="M19.444 6.77C8.344 17.87 9.7 29.238 25 51.238c9.8 13.9 12.2 13.9 22 0 15-21.5 16.5-32 6.3-43.3C48.238 3.334 42.214.95 36.346.965c-6.803.018-13.29 2.4-16.902 5.806ZM52.1 16.438c2.5 5.4 2.3 9-.6 15.5-2.5 5.4-14.5 24-15.5 24s-13-18.6-15.5-24c-2.9-6.4-3.1-9.6-1-14.7 6.93-16.024 26.572-13.657 32.6-.8z"/>
    <path d="M32 19.937c-2.407 2.63-2.316 5.613 0 8 2.932 2.748 6.304 2.016 8.569-.68 1.987-2.478 1.453-5.236-.569-7.32-2.63-2.407-5.613-2.316-8 0zM7.2 51.637c-2.3 2-7.169 14.015-7.169 17.115-.178 5.013 5.788 5.355 9.273 5.269 4.81-.045 12.114-.084 26.896-.084h30.9c8.335-1.535 3.517-11.342 2.3-14.3-3.2-7.8-5.4-9.7-10.9-9.7-3.7 0-4.7.5-6.5 3l-2.1 3h5.5c5.4 0 5.6.1 7.5 3.7 1 2.1 2.2 4.8 2.5 6l.7 2.3H5.9l.7-2.3c.3-1.2 1.5-3.9 2.5-6 1.9-3.6 2.1-3.7 7.5-3.7h5.5l-2.1-3c-1.8-2.5-2.8-3-6.5-3-2.6 0-5.1.7-6.3 1.7z"/>
</svg>