<svg width="189" height="147" fill="none" xmlns="http://www.w3.org/2000/svg">
    <path d="M160.367 141.057c13.141-17.144 23.015-37.393 24.741-58.925 1.726-21.532-5.552-44.356-21.901-58.474-16.348-14.117-42.107-17.578-60.05-5.547-16.312 10.938-24.704 32.383-43.002 39.512-9.224 3.594-19.574 2.882-29.105 5.552C14.238 67.886 1.296 84.024.352 101.457c-.944 17.434 10.172 34.876 27.246 40.436 42.39-.932 84.779-1.859 132.769-.836Z"
          fill="#FDEEEB"/>
    <path d="M84.788 20.893c-4.314 16.928-21.35 29.684-38.809 29.054-9.232-.335-18.779-4.541-23.378-12.552-4.6-8.01-2.513-19.851 5.647-24.178 7.009-3.713 15.769-1.25 23.35-3.597C58.746 7.405 64.443 1.03 71.903.437c4.19-.33 8.5 1.379 11.319 4.496 2.819 3.122 3.726 7.477 1.565 15.96Z"
          fill="#FDEEEB"/>
    <path d="m50.653 69.207.948-4.662-3.788-.77a10.557 10.557 0 0 0-.675-3.46l3.226-2.137-2.621-3.966-3.225 2.136a10.607 10.607 0 0 0-2.927-1.97l.77-3.793-4.662-.948-.77 3.792c-1.2.03-2.372.261-3.46.67l-2.137-3.224-3.966 2.625 2.136 3.225a10.527 10.527 0 0 0-1.97 2.922l-3.793-.77-.948 4.662 3.792.77c.03 1.2.261 2.372.671 3.465l-3.225 2.137 2.629 3.962 3.225-2.137a10.478 10.478 0 0 0 2.923 1.975l-.77 3.788 4.661.948.77-3.788c1.201-.029 2.373-.265 3.466-.675l2.136 3.225 3.962-2.624-2.136-3.225a10.62 10.62 0 0 0 1.974-2.927l3.784.774Zm-14.66.716a6.006 6.006 0 0 1-4.686-7.08 6.003 6.003 0 1 1 11.766 2.393 5.999 5.999 0 0 1-7.08 4.687Z"
          fill="#0088DE"/>
    <path d="m66.381 84.922 1.08-3.275-2.661-.877c.082-.87.012-1.73-.19-2.55l2.504-1.263-1.548-3.08-2.505 1.262a7.62 7.62 0 0 0-1.942-1.668l.878-2.662-3.275-1.08-.878 2.662a7.607 7.607 0 0 0-2.55.186l-1.262-2.505-3.08 1.553 1.262 2.504a7.68 7.68 0 0 0-1.668 1.938l-2.662-.878-1.08 3.275 2.661.877c-.083.87-.016 1.731.186 2.555l-2.504 1.263 1.552 3.076 2.505-1.263a7.627 7.627 0 0 0 1.937 1.672l-.877 2.662 3.274 1.081.878-2.662a7.64 7.64 0 0 0 2.555-.19l1.262 2.504 3.076-1.548-1.262-2.505a7.684 7.684 0 0 0 1.672-1.937l2.662.873Zm-10.61-.737a4.35 4.35 0 1 1 5.493-2.77 4.344 4.344 0 0 1-5.494 2.77ZM72.202 63.854l.418-2.182-1.772-.34a4.928 4.928 0 0 0-.335-1.614l1.494-1.014-1.246-1.839-1.494 1.015a4.945 4.945 0 0 0-1.379-.907l.34-1.776-2.182-.418-.34 1.776a4.876 4.876 0 0 0-1.61.331l-1.014-1.494-1.839 1.246 1.015 1.494a4.924 4.924 0 0 0-.907 1.375l-1.776-.34-.418 2.182 1.776.34c.02.563.132 1.105.331 1.614l-1.494 1.014 1.246 1.839 1.494-1.015c.398.373.861.68 1.375.907l-.34 1.772 2.182.418.34-1.772a5.032 5.032 0 0 0 1.614-.331l1.014 1.494 1.834-1.246-1.014-1.494c.373-.402.683-.861.907-1.379l1.78.344Zm-6.835.41a2.802 2.802 0 1 1 1.056-5.501 2.802 2.802 0 0 1-1.056 5.5Z"
          stroke="#0088DE" stroke-miterlimit="10"/>
    <path d="m188.702 72.767-.398-4.943-4.02.323a10.93 10.93 0 0 0-1.681-3.275l2.617-3.072-3.776-3.216-2.616 3.072a11.096 11.096 0 0 0-3.507-1.13l-.323-4.025-4.943.398.323 4.024a10.952 10.952 0 0 0-3.275 1.676l-3.072-2.616-3.216 3.78 3.071 2.616a11.03 11.03 0 0 0-1.13 3.503l-4.024.323.398 4.943 4.024-.323a11.014 11.014 0 0 0 1.676 3.279l-2.616 3.072 3.78 3.212 2.616-3.072c1.081.563 2.261.953 3.503 1.135l.323 4.02 4.943-.398-.323-4.02a11.033 11.033 0 0 0 3.279-1.68l3.072 2.616 3.212-3.776-3.072-2.616a11.096 11.096 0 0 0 1.135-3.507l4.02-.323Zm-14.482 4.96a6.26 6.26 0 1 1-1.007-12.481 6.26 6.26 0 0 1 1.007 12.48Z"
          fill="#0088DE"/>
    <path d="m141.891 25.34.418-2.182-1.772-.34a4.929 4.929 0 0 0-.336-1.615l1.495-1.014-1.242-1.834-1.495 1.014a4.942 4.942 0 0 0-1.378-.906l.339-1.776-2.181-.418-.34 1.776a4.875 4.875 0 0 0-1.61.33l-1.015-1.494-1.838 1.247 1.014 1.494a4.945 4.945 0 0 0-.906 1.375l-1.776-.34-.418 2.182 1.776.34c.02.562.132 1.105.331 1.614l-1.495 1.014 1.246 1.838 1.495-1.014c.397.373.861.679 1.374.907l-.339 1.772 2.182.418.339-1.772a5.036 5.036 0 0 0 1.615-.331l1.014 1.494 1.838-1.246-1.014-1.495c.373-.401.683-.86.907-1.378l1.772.34Zm-6.84.41a2.802 2.802 0 1 1 1.057-5.5 2.802 2.802 0 0 1-1.057 5.5Z"
          stroke="#0088DE" stroke-miterlimit="10"/>
    <path d="M60.713 37.337c8.367 0 15.149-6.782 15.149-15.148S69.08 7.04 60.713 7.04c-8.366 0-15.148 6.782-15.148 15.148s6.782 15.148 15.148 15.148Z"
          fill="#FF8B2E"/>
    <path d="M60.713 35.176c7.173 0 12.988-5.815 12.988-12.987 0-7.173-5.815-12.987-12.988-12.987-7.172 0-12.987 5.814-12.987 12.987 0 7.172 5.815 12.987 12.987 12.987Z"
          fill="#FDFEFD"/>
    <path d="m60.718 9.852-.017 1.722M60.726 32.8l-.017 1.722M48.376 22.185l1.723.012M71.324 22.176l1.722.017"
          stroke="#212B3B" stroke-width="2" stroke-miterlimit="10"/>
    <path d="m51.995 13.462 1.204 1.23M68.228 29.686l1.204 1.226M51.986 30.908l1.23-1.21M68.211 14.675l1.225-1.205"
          stroke="#212B3B" stroke-miterlimit="10"/>
    <path d="M60.714 23.228a1.04 1.04 0 1 0 0-2.078 1.04 1.04 0 0 0 0 2.078Z" fill="#212B3B"/>
    <path d="M136.509 43.713V36.57a5.641 5.641 0 0 1 5.642-5.643h28.612a5.642 5.642 0 0 1 5.643 5.643v7.142a5.642 5.642 0 0 1-5.643 5.642h-28.612a5.646 5.646 0 0 1-5.642-5.642Z"
          fill="#fff"/>
    <path d="m153.888 46.412-1.287 12.234 11.513-12.04-10.226-.194Z" fill="#fff"/>
    <path d="M145.066 42.93c1.171 0 2.12-.895 2.12-2 0-1.104-.949-1.999-2.12-1.999-1.171 0-2.12.895-2.12 2 0 1.104.949 2 2.12 2ZM156.612 42.93c1.171 0 2.12-.895 2.12-2 0-1.104-.949-1.999-2.12-1.999-1.17 0-2.119.895-2.119 2 0 1.104.949 2 2.119 2ZM167.844 42.93c1.171 0 2.12-.895 2.12-2 0-1.104-.949-1.999-2.12-1.999-1.17 0-2.119.895-2.119 2 0 1.104.949 2 2.119 2Z"
          fill="#0A4494"/>
    <path d="M103.976 37.457c9.256 0 16.759-7.568 16.759-16.904 0-9.335-7.503-16.903-16.759-16.903-9.255 0-16.758 7.568-16.758 16.904 0 9.335 7.503 16.903 16.758 16.903Z"
          fill="#FDEEEB"/>
    <path d="M105.09 38.798c9.256 0 16.759-7.568 16.759-16.903 0-9.336-7.503-16.904-16.759-16.904-9.255 0-16.759 7.568-16.759 16.904 0 9.335 7.504 16.903 16.759 16.903Z"
          fill="#fff"/>
    <path d="M100.532 26.35a2.944 2.944 0 0 0-4.19-.046c-1.163 1.155-1.171 3.047-.02 4.227a2.944 2.944 0 0 0 4.189.046c1.164-1.156 1.172-3.048.021-4.228Zm-2.658 4.11-1.465-1.502.55-2.025 2.012-.521 1.466 1.503-.547 2.02-2.016.526ZM114.62 14.526l-2.326 2.31a.903.903 0 0 1-1.288-.017l-.724-.745a.925.925 0 0 1 .004-1.3l2.327-2.31c-1.023-.29-2.182-.013-3.019.816-1.221 1.213-1.279 3.15-.124 4.334 1.151 1.18 3.076 1.155 4.298-.058a3.166 3.166 0 0 0 .852-3.03Z"
          fill="#0088DE"/>
    <path d="m100.809 28.142-1.916-1.966a122.033 122.033 0 0 1 10.014-9.94l1.917 1.966a138.175 138.175 0 0 1-10.015 9.94Z"
          fill="#0088DE"/>
    <path d="m107.607 35.636 6.111 6.802-.066-11.385-6.045 4.583Z" fill="#fff"/>
    <path d="M139.734 139.757c1.788-9.56 4.272-19.086 8.383-28.123 4.111-9.038 9.903-17.6 17.703-24.484 2.947-2.605 6.976-5.126 10.813-4.033 3.847 1.097 5.329 5.328 4.997 8.98-.575 6.371-4.864 12.064-9.348 17.156-9.501 10.793-20.509 20.452-32.548 30.504Z"
          fill="#FFD6D0"/>
    <path d="M177.308 86.707a313.2 313.2 0 0 0-36.85 51.77" stroke="#CC8F8D" stroke-miterlimit="10"
          stroke-linecap="round"/>
    <path d="M171.293 84.707a27.423 27.423 0 0 1 1.735 7.021 18.086 18.086 0 0 1 7.779.472M159.9 94.647a17.176 17.176 0 0 1 3.717 8.582 22.88 22.88 0 0 1 11.936.671M150.866 109.241a15.918 15.918 0 0 1 2.67 7.75 41.835 41.835 0 0 1 11.245-.708M145.277 122.89a10.946 10.946 0 0 1 1.755 4.215 32.008 32.008 0 0 1 6.09-1.752"
          stroke="#CC8F8D" stroke-miterlimit="10" stroke-linecap="round"/>
    <path d="M136.931 141.893c8.888-8.392 17.992-16.933 29.576-22.687 2.968-1.474 6.21-2.783 9.617-2.874 3.407-.091 6.997 1.338 8.048 3.946 1.027 2.546-.621 5.494-3.146 7.348-2.525 1.859-5.779 2.861-8.938 3.817-11.501 3.49-23.002 6.976-35.157 10.45Z"
          fill="#FFD6D0"/>
    <path d="M181.713 121.069c-15.777 3.775-30.594 10.573-43.11 19.776" stroke="#CC8F8D" stroke-miterlimit="10"
          stroke-linecap="round"/>
    <path d="M175.913 117.918a13.131 13.131 0 0 1-.811 4.807c1.73.894 3.047 2.384 3.597 4.073M166.606 120.626a21.39 21.39 0 0 1-1.32 5.543c1.676 1.139 3.005 2.658 3.821 4.372M155.764 126.206a11.385 11.385 0 0 1-.029 4.38c1.859.361 3.539 1.371 4.591 2.758M147.372 132.996c.112.493.017 1.643-.364 2.48 1.614.083 3.183.712 4.309 1.73"
          stroke="#CC8F8D" stroke-miterlimit="10" stroke-linecap="round"/>
    <path d="M138.405 141.893a944.456 944.456 0 0 0 21.693-61.984c1.503-4.815 2.919-10.516.779-14.838-2.228-4.504-7.573-5.067-11.27-2.414-3.697 2.654-6.015 7.61-7.667 12.586-7.365 22.153-4.786 47.179-3.535 66.65Z"
          fill="#FFD6D0"/>
    <path d="M155.722 64.21c-9.559 17.988-13.997 44.418-16.767 77.203" stroke="#CC8F8D" stroke-miterlimit="10"
          stroke-linecap="round"/>
    <path d="M142.781 78.493c1.95 1.942 3.56 4.388 4.744 7.166 3.109-2.016 6.55-3.262 10.06-3.635M138.438 95.14c2.124 1.797 4.036 3.97 5.688 6.433 2.633-2.484 5.68-4.322 8.897-5.377M138.33 111.998c1.213.923 2.29 2.115 3.159 3.502 1.834-1.664 3.879-2.985 6.036-3.908M148.072 66.38c1.912 1.713 3.22 4.392 3.539 7.252 2.592-1.722 5.709-2.243 8.587-1.44"
          stroke="#CC8F8D" stroke-miterlimit="10" stroke-linecap="round"/>
    <path d="M85.773 68.66a193.516 193.516 0 0 1 17.264 56.694" stroke="#FFD6D0" stroke-width="2" stroke-miterlimit="10"
          stroke-linecap="round"/>
    <path d="M85.972 69.401c-3.834-.865-7.042-3.692-8.247-7.261-.365-1.077-.443-2.484.538-3.167.985-.688 2.347-.166 3.304.496 3.312 2.294 5.32 6.182 4.405 9.932ZM87.615 72.258a21.233 21.233 0 0 1 .129-10.756c.136-.492.298-.993.6-1.407.302-.414.774-.737 1.287-.737.514 0 .986.319 1.28.737.294.418.43.927.517 1.432.323 1.909-.02 3.883-.704 5.697-.687 1.813-1.701 3.477-3.109 5.034ZM90.29 77.748a20.175 20.175 0 0 1 1.846-9.787c.588-1.259 1.333-2.484 2.439-3.333.58-.447 1.37-.778 2.032-.464.518.249.803.84.828 1.416.03.576-.157 1.135-.36 1.673-1.503 4.024-4.036 7.655-6.785 10.495ZM92.438 82.852c-.319-4.007 1.921-8.102 5.465-9.994.766-.41 1.739-.712 2.468-.236.579.377.794 1.151.691 1.834-.104.683-.472 1.292-.861 1.863-1.946 2.87-4.558 5.291-7.763 6.533ZM94.355 89.199c.27-4.314 2.964-8.392 6.819-10.342.612-.31 1.374-.559 1.95-.186.559.364.654 1.147.559 1.805-.224 1.511-1.143 2.82-2.145 3.974-1.917 2.215-4.227 4.087-7.183 4.749ZM96.417 94.424c1.051-4.124 4.14-7.672 8.077-9.287.65-.264 1.399-.48 2.041-.186.633.29.973 1.035.956 1.735-.016.7-.327 1.358-.699 1.95-1.131 1.8-2.853 3.171-4.72 4.19-1.871 1.018-3.892 1.71-5.655 1.598ZM87.922 74.034c-1.967-3.039-5.358-5.113-8.96-5.477-.5-.05-1.03-.066-1.473.17-.837.443-1.019 1.651-.584 2.492.563 1.089 1.817 1.61 2.993 1.958 2.236.658 4.57.994 8.024.857ZM90.99 79.714c-1.793-3.068-5.494-4.902-9.022-4.475-.857.103-1.739.347-2.368.94-.63.592-.935 1.593-.521 2.347.467.845 1.564 1.064 2.529 1.163 2.844.298 5.717.365 9.381.025ZM93.279 86.119c-2.472-2.836-6.413-4.314-10.14-3.797-.62.087-1.25.232-1.754.605-.501.372-.845 1.014-.704 1.623.124.521.58.919 1.08 1.113.501.195 1.052.224 1.586.253 3.213.157 6.425.315 9.932.203ZM95.668 92.838c-1.28-1.788-2.936-3.362-4.944-4.252-2.012-.894-4.405-1.047-6.4-.128-.575.265-1.16.687-1.267 1.308-.103.613.319 1.217.861 1.524.538.306 1.176.38 1.793.447 2.496.277 4.993.555 9.957 1.1ZM97.208 98.203c-2.215-2.662-5.63-4.28-9.092-4.318-.91-.008-1.875.104-2.612.646-.737.542-1.139 1.619-.67 2.405.467.787 1.519.953 2.43 1.031 2.314.203 4.624.406 9.944.236ZM98.292 102.592c-2.397-2.211-5.995-2.575-9.22-2.099-.832.124-1.71.319-2.314.906-.604.588-.77 1.694-.136 2.244.467.406 1.159.377 1.776.327 2.894-.231 5.787-.467 9.894-1.378ZM99.828 107.891c-1.13-1.358-2.89-2.095-4.649-2.256-1.76-.162-3.532.198-5.216.732-.655.207-1.321.456-1.81.936-.488.48-.757 1.25-.467 1.867.414.89 1.622.99 2.6.907 2.77-.236 5.497-.952 9.542-2.186ZM101.091 113.53c-3.266-1.781-7.266-2.617-10.735-1.284-.861.331-1.793.99-1.735 1.913.038.571.48 1.06.998 1.3.522.24 1.11.277 1.685.281 2.919.013 5.775-.782 9.787-2.21ZM101.67 118.593a12.39 12.39 0 0 0-8.789-.787c-.807.232-1.627.567-2.173 1.209-.547.642-.729 1.652-.224 2.327.522.695 1.52.778 2.389.757 2.513-.074 4.997-.554 8.797-3.506ZM98.222 100.207c.733-3.279 3.2-6.115 6.346-7.299.816-.306 1.706-.509 2.559-.327.853.182 1.648.832 1.788 1.69.108.674-.198 1.366-.662 1.87-.464.506-1.068.85-1.672 1.172-2.302 1.23-4.724 2.228-8.36 2.894ZM99.427 106.45c1.18-3.97 4.521-7.224 8.52-8.3.501-.137 1.076-.224 1.498.07.605.422.522 1.35.228 2.024-.733 1.673-2.293 2.832-3.904 3.693-1.606.861-3.341 1.516-6.342 2.513ZM100.474 111.037c.671-1.61 1.921-2.943 3.407-3.862 1.482-.919 3.188-1.437 4.919-1.681.633-.087 1.291-.137 1.9.062.608.199 1.155.704 1.225 1.337.062.518-.203 1.035-.584 1.395-.38.361-.865.584-1.349.779-2.716 1.101-5.651 1.503-9.518 1.97ZM101.683 116.581c2.169-3.362 5.709-6.094 9.704-6.256 1.01-.041 2.232.236 2.55 1.197.203.608-.066 1.296-.521 1.747-.456.451-1.064.704-1.673.906-3.395 1.127-7.336 1.015-10.06 2.406Z"
          fill="#FFD6D0"/>
    <path d="M7.97 126.186c24.165-1.826 48.765 2.388 70.943 12.155" stroke="#FFD6D0" stroke-width="2"
          stroke-miterlimit="10" stroke-linecap="round"/>
    <path d="M12.064 125.784c-3.084-2.144-7.572-2.004-10.511.335-.41.323-.795.696-1.019 1.172-.223.472-.252 1.064.038 1.499.418.633 1.308.724 2.066.687 3.498-.178 6.78-1.664 9.426-3.693ZM18.076 125.772a10.366 10.366 0 0 0-6.4 4.587c-.307.492-.572 1.022-.643 1.598-.07.575.091 1.2.526 1.585.447.398 1.122.464 1.694.299.575-.17 1.068-.543 1.502-.953 2.373-2.227 3.569-5.758 3.32-7.116ZM27.196 126.181c-4.016.915-7.415 4.132-8.55 8.09-.23.807-.289 1.855.42 2.31.765.489 1.746-.12 2.404-.741 2.79-2.629 4.836-5.937 5.726-9.659ZM35.029 126.471c-3.676 1.437-6.52 4.467-8.707 7.755-.397.596-.786 1.229-.894 1.941-.107.712.141 1.52.762 1.876.542.31 1.246.207 1.788-.108.543-.315.953-.807 1.338-1.3 2.17-2.774 3.933-5.837 5.713-10.164ZM40.349 127.287c-3.354 1.18-5.924 4.33-6.417 7.849-.079.551-.104 1.122.058 1.652.161.53.546 1.019 1.076 1.184.663.207 1.395-.136 1.85-.658.456-.522.692-1.197.916-1.851.952-2.765 1.9-5.531 2.517-8.176ZM45.164 127.85c-1.168 1.486-2.348 2.989-3.134 4.707-.787 1.718-1.16 3.697-.642 5.51.153.534.464 1.118 1.01 1.205.476.079.92-.261 1.25-.613 1.21-1.271 1.921-2.951 2.248-4.669.328-1.723.298-3.49-.732-6.14ZM53.551 129.489c-1.395.592-2.513 1.718-3.316 3.002-.803 1.283-1.32 2.724-1.772 4.169-.182.579-.356 1.176-.314 1.784.041.605.33 1.23.873 1.503.646.327 1.466.062 1.979-.447.513-.509.782-1.213.998-1.9.753-2.381 1.089-4.894 1.552-8.111ZM15.223 125.37a10.161 10.161 0 0 1-6.077-5.208c-.154-.315-.294-.658-.245-1.006.08-.592.675-.99 1.263-1.093 1.097-.199 2.223.364 2.964 1.196.741.833 1.155 1.897 1.495 2.956.34 1.06.62 2.153.6 3.155ZM22.948 126.028a12.733 12.733 0 0 1-4.963-5.278c-.249-.497-.464-1.019-.501-1.569-.038-.551.14-1.143.567-1.495.472-.389 1.163-.418 1.734-.203.572.216 1.04.638 1.45 1.089 1.535 1.681 2.463 3.9 1.713 7.456ZM31.216 126.194c-2.894-1.706-4.699-5.105-4.492-8.458.029-.451.137-.969.538-1.172.307-.153.692-.058.965.149s.455.51.625.808c1.271 2.219 2.165 4.653 2.364 8.673ZM38.56 126.778c-2.351-1.371-3.912-4.012-3.974-6.736-.02-.894.203-1.929.998-2.343.563-.29 1.27-.17 1.805.174.534.343.915.873 1.238 1.42 1.345 2.289 1.788 5.088-.067 7.485ZM44.493 128.078c-1.184-.63-1.946-1.876-2.281-3.176-.336-1.3-.286-2.662-.199-3.999.05-.787.124-1.602.514-2.289.389-.688 1.192-1.201 1.958-1.015.811.199 1.258 1.064 1.515 1.859.89 2.791.642 5.92-1.507 8.62ZM51.1 129.158c-1.825-2.683-1.937-6.429-.281-9.22.327-.55.836-1.117 1.47-1.051.583.062.964.637 1.2 1.176 1.304 2.985.667 6.711-2.389 9.095Z"
          fill="#FFD6D0"/>
    <path d="m110.046 95.79-2.128-7.25s-5.722 2.472-7.539 6.269c-4.115 8.611-6.707 25.345-8.375 27.68-1.669 2.335-22.203 5.117-22.203 5.117l2.103 10.586s25.113-1.81 28.475-4.778c4.554-4.02 10.048-21.503 10.048-21.503l-.381-16.121Z"
          fill="#F7746F"/>
    <path d="M123.658 52.332c.716-2.968 3.917-4.98 6.959-4.732 3.043.249 5.726 2.48 6.947 5.279 1.218 2.798 1.097 6.065.108 8.955-.671 1.954-1.726 4.048-.973 5.974.559 1.432 1.991 2.322 3.399 2.947 1.408.621 2.927 1.101 4.07 2.132 1.142 1.031 1.78 2.849.927 4.132-1.23 1.859-4.641 1.503-5.407 3.593-.393 1.065.162 2.24.095 3.375-.078 1.424-1.159 2.645-2.442 3.266-1.284.621-2.745.745-4.173.778-2.509.063-5.126-.149-7.299-1.399-2.174-1.254-3.772-3.788-3.25-6.243.426-2.012 2.173-3.875 1.565-5.837-.439-1.42-1.929-2.182-2.997-3.217-2.261-2.19-2.617-5.8-1.702-8.81.907-3.014 3.051-5.527 4.173-10.193Z"
          fill="#6B2E40"/>
    <path d="M126.755 83.295c-3.577 5.527-9.915 11.75-12.176 11.447-1.867-.248-3.776-2.869-3.776-7.493.261-.104.522-.257.775-.447a4.28 4.28 0 0 0 1.333-1.797c.074-.182.136-.38.178-.58.289-1.295-.067-2.782-.861-3.663-.042-.046-.079-.092-.12-.133 3.026-2.749 6.048-4.695 9.066-6.64.116 1.813.497 3.49 1.159 4.926.153.34.323.662.51.969.968 1.614 2.363 2.832 3.912 3.411Z"
          fill="#FAC8BF"/>
    <path d="M122.325 78.907c-2.223 3.084-6.065 7.961-10.756 7.89a4.263 4.263 0 0 0 1.511-2.376c.29-1.296-.066-2.782-.861-3.664-.041-.045-.078-.09-.12-.132 3.027-2.749 6.049-4.695 9.067-6.64.116 1.813.501 3.49 1.159 4.922Z"
          fill="#EDA19F"/>
    <path d="M125.442 82.43s-5.112 10.876-11.211 11.17c-3.486.17-2.902-7.345-2.902-7.345s-5.817 2.729-7.493 4.811c-1.934 2.397-4.322 16.974-4.115 20.787.372 6.872 3.986 11.356 3.986 15.09 0 3.735-2.711 12.702-2.711 12.702l36.953-.1s-1.95-7.953-2.33-16.39c-.381-8.437 3.92-27.287 2.368-32.598-1.102-3.734-12.545-8.127-12.545-8.127Z"
          fill="#FF9185"/>
    <path d="M114.095 93.616s8.011-3.088 11.033-11.62c0 0 4.38 1.262 4.661 1.982.472 1.205-1.589 9.887-4.185 11.187-2.232 1.117-11.509-1.549-11.509-1.549ZM114.095 93.608s-2.637-3.78-1.607-8.247c0 0-2.335.803-3.593 1.942-1.847 1.672-5.051 8.263-4.157 8.913.621.447 9.357-2.608 9.357-2.608Z"
          fill="#F25C61"/>
    <path d="M113.594 98.472a1.105 1.105 0 1 0 0-2.21 1.105 1.105 0 0 0 0 2.21ZM112.811 105.274a1.105 1.105 0 1 0 .002-2.21 1.105 1.105 0 0 0-.002 2.21Z"
          fill="#BF4753"/>
    <path d="M99.683 63.03c2.596-.456 5.229 2.186 5.879 5.9.65 3.713-.927 7.091-3.523 7.547-2.596.455-5.229-2.186-5.879-5.9-.654-3.713.928-7.092 3.523-7.547Z"
          fill="#0387D9"/>
    <path d="M127.512 67.211c1.16-9.228-4.164-17.516-11.894-18.514-7.725-.993-16.088 5.606-16.088 14.908 0 12.532 5.001 20.551 12.495 19.086 7.191-1.404 14.328-6.252 15.487-15.48Z"
          fill="#FAC8BF"/>
    <path d="M126.068 66.031c-2.509-.418-4.782-2.053-5.979-4.297.261 1.44-.343 3.01-1.511 3.896-.443.34-1.039.588-1.552.377-.398-.162-.65-.56-.836-.944a6.905 6.905 0 0 1-.522-4.434c-1.106 2.558-3.527 4.504-6.264 5.038-.745.145-1.619.15-2.132-.41-.422-.46-.455-1.175-.244-1.763.211-.588.629-1.077 1.035-1.549a12.648 12.648 0 0 1-8.889 2.166c1.031-4.244 3.614-8.173 7.34-10.454 3.726-2.277 8.607-2.745 12.536-.84 3.929 1.904 6.645 6.276 6.219 10.627"
          fill="#EDA19F"/>
    <path d="M126.461 71.484c-.265-1.528-.754-3.287-1.42-5.125-2.356-1.752-4.136-4.256-5.382-6.935-.008.1-.008.186-.008.286-.058 2.132-1.565 6.201-2.232 5.78-1.085-.676-.919-8.082-1.379-12.123.315 2.484-.02 5.097-1.213 7.299-1.192 2.202-3.316 3.941-5.771 4.413-.323.058-.703.079-.927-.157-.273-.302-.137-.774.021-1.143 1.233-2.906 2.463-5.8 3.676-8.706-.961 2.24-2.066 4.43-3.954 5.879-2.111 1.635-4.93 2.355-8.069 2.326a17.778 17.778 0 0 0-.029 4.98 14.365 14.365 0 0 1-1.564-4.686c-.638-4.156.488-8.528 3.013-11.844 3.503-4.6 9.754-6.927 15.409-5.742a15.06 15.06 0 0 1 3.524.616c4.529 1.358 8.205 4.774 9.782 9.059 1.971 5.344.551 11.782-3.477 15.823Z"
          fill="#904B57"/>
    <path d="M120.151 46.594c-4.843-.323-9.762.683-13.823 3.308-4.628 2.985-7.895 8.206-8.118 13.666-.638-4.156.488-8.528 3.013-11.844 3.503-4.6 9.754-6.927 15.409-5.743 1.209.067 2.393.274 3.519.613Z"
          fill="#BD7D81"/>
    <path d="M124.606 65.506s.865-9.945-4.864-14.49c-6.935-5.498-16.266-1.66-16.266-1.66s-.563-1.313 5.179-3.105c2.811-.878 9.638-1.735 14.332 2.62 5.598 5.192 5.258 14.291 5.258 14.291l-3.639 2.344Z"
          fill="#0A4494"/>
    <path d="M122.064 68.73c.493-3.738 3.01-6.49 5.622-6.147 2.613.343 4.335 3.651 3.842 7.39-.492 3.738-3.01 6.491-5.622 6.148-2.612-.34-4.334-3.652-3.842-7.39Z"
          fill="#0387D9"/>
    <path d="M125.455 69.178c.439-3.337 2.169-5.858 3.862-5.635 1.698.224 2.716 3.105 2.277 6.442-.438 3.337-2.169 5.858-3.862 5.635-1.698-.224-2.716-3.11-2.277-6.442Z"
          fill="#75C0E0"/>
    <path d="M116.504 66.81c-1.561-1.561-3.742-1.702-5.179-1.068M105.434 65.94c-1.615-1.225-3.726-.79-4.629.29"
          stroke="#904B57" stroke-width="2" stroke-miterlimit="10" stroke-linecap="round"/>
    <path d="M106.763 70.192c-.05 1.221.078 2.447.385 3.643" stroke="#B35267" stroke-width="2" stroke-miterlimit="10"
          stroke-linecap="round"/>
    <path d="M113.2 71.277c.396 0 .717-.488.717-1.089s-.321-1.089-.717-1.089c-.395 0-.716.488-.716 1.089s.321 1.089.716 1.089ZM103.12 71.277c.395 0 .716-.488.716-1.089s-.321-1.089-.716-1.089c-.396 0-.717.488-.717 1.089s.321 1.089.717 1.089Z"
          fill="#363857"/>
    <path d="M112.542 78.505c-1.337.406-2.273-.016-2.898-.633-.84-.824-1.134-2-1.134-2l.178-.05 5.34-1.58a5.007 5.007 0 0 0 .356 1.266c.15 1.047-.033 2.45-1.842 2.997Z"
          fill="#B35267"/>
    <path d="M114.277 74.966c-1.399.542-4.418 1.329-4.827 1.329-.274 0-.555-.245-.758-.472l5.341-1.582s.132.29.244.725Z"
          fill="#FFEDEF"/>
    <path d="M112.542 78.505c-1.337.406-2.273-.016-2.898-.633 1.577-1.81 3.527-2.273 4.74-2.368.149 1.051-.033 2.455-1.842 3.001Z"
          fill="#E6919D"/>
    <path d="M107.992 83.73s-2.55.025-4.872-1.991c-2.228-1.938-2.489-4.347-2.414-5.362" stroke="#363857"
          stroke-miterlimit="10"/>
    <path d="M108.862 85.075c1.221 0 2.21-.602 2.21-1.345s-.989-1.346-2.21-1.346-2.211.603-2.211 1.346c0 .743.99 1.345 2.211 1.345Z"
          fill="#363857"/>
    <path d="M5.722 143.669v2.629l142.677.302 31.534-6.79v-2.533L5.722 143.669Z" fill="#1B2E34"/>
    <path d="m57.232 137.322 122.701-.045-31.758 6.442-142.453-.05 51.51-6.347Z" fill="#fff"/>
    <g opacity=".949">
        <g opacity=".949">
            <path opacity=".949"
                  d="M70.608 138.009c-2.658.328-5.655.535-8.806.642-3.05.12-6.243.162-9.46.162.775-2.65 2.497-5.047 4.86-6.463a9.494 9.494 0 0 1 2.356-1.014c1.83-.514 3.813-.489 5.602.161 2.591.952 4.947 3.797 5.448 6.512Z"
                  fill="#12252B"/>
            <path opacity=".949"
                  d="M61.802 138.651c-3.05.12-6.243.162-9.46.162.775-2.65 2.497-5.047 4.86-6.463a9.494 9.494 0 0 1 2.356-1.014c1.048.762 1.756 1.97 2.091 3.246.348 1.324.319 2.72.153 4.069Z"
                  fill="#597375"/>
        </g>
        <path opacity=".949"
              d="M72.11 135.6c-1.585.745-2.905.948-4.88.791-.687.898-4.144 3.813-5.034 3.038-.688-.596 1.813-3.034 2.318-3.962.364-.67.658-1.428.679-2.223-.849-1.014-2.538-1.987-3.627-1.714-1.697.427-3.78 2.902-5.903 4.703-.294.249-.592.501-.944.609-.352.108-.762.037-.998-.282-.414-.558-.074-1.415.29-2.02 1.954-3.221 4.463-5.978 7.332-8.056 3.585.443 6.023 1.341 9.261 2.782.87 1.908 1.536 4.438 1.507 6.334Z"
              fill="#FAC8BF"/>
    </g>
    <path d="M65.835 137.678v1.971h56.585l12.503-2.451v-1.242l-69.088 1.722Z" fill="#1B2E34"/>
    <path d="m86.261 135.968 48.662-.012-12.594 1.739-56.494-.017 20.426-1.71Z" fill="#324B4F"/>
    <path d="M131.822 125.084s-3.887 3.855-.07 10.147c0 0 3.366-.649 3.668-4.599.19-2.525-3.598-5.548-3.598-5.548Z"
          fill="#BF4753"/>
    <path d="M134.124 131.435c-.128.232-1.755.456-2.931.571-.302.021-1.433-.008-1.64 0 .183 1.325-.525 2.228-1.266 2.41-.911.232-1.847-.306-2.46-.869-.89.674-1.747.857-2.562.43-.824-.426-1.544-1.668-1.64-2.877-.178.815-.335 1.523-.223 1.929.149.555 2.144 3.283.704 3.743-.663.211-2.849-2.141-3.097-3.172-.311-1.291-.257-2.823.43-4.765-1.254 1.503-1.697 2.248-1.83 2.882-.343 1.627-.074 4.521-1.221 4.425-1.366 0-1.623-4.127-1.064-5.895.402-1.275 2.948-5.295 4.318-5.635 1.267-.314 8.148-.033 9.439.158.646.099 1.288.165 1.88.219 1.623.141 2.906.133 2.977.191.803.852.538 5.568.186 6.255Z"
          fill="#FAC8BF"/>
    <path d="M134.124 131.435c-.128.232-1.755.456-2.931.571a8.18 8.18 0 0 0 .567-2.119 8.7 8.7 0 0 0-.803-4.894c1.623.141 2.906.133 2.977.191.807.848.542 5.564.19 6.251Z"
          fill="#EDA19F"/>
    <path d="M124.08 128.595c.125 1.847.543 3.08 1.557 4.629M129.4 131.944c-.273-.074-.658-.331-.865-.525"
          stroke="#B35267" stroke-miterlimit="10" stroke-linecap="round"/>
    <path d="M128.506 130.628a2.755 2.755 0 0 1-.261 1.594" stroke="#B35267" stroke-miterlimit="10"
          stroke-linecap="round"/>
    <path d="M141.833 93.504c-1.081-2.475-4.368-4.773-7.44-6.47-.099.058-.199.111-.298.173-1.747 1.122-3.196 2.667-4.542 4.232-.058.066-.111.14-.165.207.849 5.593 1.921 12.701 2.31 15.342.816 5.523 6.934 16.192 6.852 17.31-.083 1.118-6.852.538-6.852.538 2.703 3.759 2.082 7.754-.041 10.296 0 0 17.524 1.002 19.636-1.759 2.111-2.758-7.883-36.25-9.46-39.868Z"
          fill="#FF9185"/>
    <path d="M134.492 91.178c-2.761 8.528-2.368 18.038 1.089 26.309" stroke="#EB6E6A" stroke-miterlimit="10"
          stroke-linecap="round"/>
    <path d="M128.477 105.705c1.081 3.941 3.213 7.34 6.359 9.944M132.087 124.782c.998.228 2.025.327 3.047.294M136.856 135.323c-1.883 0-3.096-.058-4.93-.154"
          stroke="#EB6E6A" stroke-miterlimit="10" stroke-linecap="round"/>
    <path d="M19.26 131.05 17 79.49h70.686l2.26 51.56H19.26Z" fill="#1B2E34"/>
    <path d="m87.524 131.05-2.26-51.56h2.422l2.26 51.56h-2.422Z" fill="#324B4F"/>
    <path d="m39.624 141.272 6.595-27.689h12.814l-6.595 27.689H39.624Z" fill="#12252B"/>
    <path d="m51.614 141.272 6.595-27.689h.824l-6.595 27.689h-.824Z" fill="#324B4F"/>
    <path d="M59.674 138.378H33.547v2.894h26.127v-2.894Z" fill="#12252B"/>
    <path d="M59.674 138.378H57.99v2.894h1.685v-2.894Z" fill="#324B4F"/>
</svg>