<svg width="189" height="147" viewBox="0 0 189 147" fill="none" xmlns="http://www.w3.org/2000/svg">
    <path d="M160.367 141.057C173.508 123.913 183.382 103.664 185.108 82.1319C186.834 60.5998 179.556 37.7759 163.207 23.6585C146.859 9.54114 121.1 6.0801 103.157 18.1109C86.8452 29.0488 78.4534 50.494 60.1546 57.6231C50.9307 61.2166 40.5807 60.5045 31.0504 63.1748C14.2378 67.8862 1.29621 84.0239 0.35229 101.457C-0.59163 118.891 10.5243 136.333 27.5976 141.893C69.9871 140.961 112.377 140.034 160.367 141.057Z"
          fill="#FDEEEB"/>
    <path d="M84.7876 20.893C80.4737 37.8215 63.4376 50.5768 45.9793 49.9475C36.7471 49.6122 27.2002 45.406 22.6007 37.3951C18.0011 29.3842 20.0877 17.5438 28.2476 13.2175C35.2567 9.50388 44.0169 11.9672 51.5972 9.61979C58.747 7.40489 64.4437 1.02929 71.9039 0.437275C76.0936 0.106075 80.4033 1.81589 83.2227 4.93331C86.042 8.05487 86.9487 12.4102 84.7876 20.893Z"
          fill="#FDEEEB"/>
    <path d="M50.6533 69.2068L51.6013 64.5452L47.8132 63.7751C47.7843 62.5745 47.5483 61.4029 47.1384 60.3141L50.3635 58.1778L47.7429 54.2117L44.5178 56.348C43.6691 55.5407 42.6838 54.8741 41.5908 54.3773L42.3609 50.5851L37.6992 49.637L36.9292 53.4293C35.7286 53.4582 34.557 53.6901 33.4681 54.0999L31.3319 50.8749L27.3658 53.4996L29.502 56.7247C28.6947 57.5693 28.0282 58.5546 27.5314 59.6475L23.7391 58.8775L22.7911 63.5391L26.5833 64.3092C26.6123 65.5098 26.8441 66.6814 27.254 67.7744L24.0289 69.9106L26.6578 73.8726L29.8829 71.7363C30.7275 72.5436 31.7086 73.2143 32.8057 73.7111L32.0357 77.4992L36.6973 78.4473L37.4674 74.6592C38.668 74.6302 39.8396 74.3942 40.9326 73.9844L43.0688 77.2094L47.0308 74.5847L44.8945 71.3596C45.7018 70.5109 46.3725 69.5256 46.8693 68.4326L50.6533 69.2068ZM35.9935 69.923C32.7478 69.2606 30.6488 66.0977 31.3071 62.8436C31.9695 59.5979 35.1366 57.4989 38.3865 58.1571C41.6364 58.8154 43.7312 61.9866 43.0729 65.2365C42.4105 68.4906 39.2434 70.5854 35.9935 69.923Z"
          fill="#0088DE"/>
    <path d="M66.3812 84.9223L67.4617 81.6475L64.7997 80.7698C64.8825 79.9004 64.8121 79.0393 64.6092 78.2196L67.1139 76.9569L65.5656 73.8767L63.0609 75.1394C62.5185 74.4853 61.8686 73.9223 61.1192 73.471L61.9969 70.809L58.7222 69.7285L57.8445 72.3905C56.9751 72.3077 56.114 72.3739 55.2942 72.5768L54.0315 70.0721L50.9514 71.6246L52.2141 74.1293C51.5641 74.6675 50.9969 75.3216 50.5457 76.0668L47.8836 75.1891L46.8031 78.4639L49.4651 79.3415C49.3823 80.2109 49.4486 81.0721 49.6514 81.8959L47.1467 83.1586L48.6992 86.2346L51.2039 84.9719C51.7421 85.6219 52.3921 86.1932 53.1414 86.6445L52.2638 89.3065L55.5385 90.3871L56.4162 87.725C57.2856 87.8078 58.1467 87.7375 58.9706 87.5346L60.2333 90.0393L63.3093 88.4909L62.0466 85.9862C62.7007 85.4439 63.2679 84.7939 63.7191 84.0487L66.3812 84.9223ZM55.7703 84.1853C53.4892 83.4319 52.2472 80.9727 53.0007 78.6916C53.7542 76.4104 56.2133 75.1684 58.4945 75.9219C60.7756 76.6754 62.0176 79.1345 61.2641 81.4157C60.5106 83.7051 58.0515 84.9388 55.7703 84.1853Z"
          stroke="#0088DE" stroke-miterlimit="10"/>
    <path d="M72.202 63.8538L72.6201 61.672L70.8482 61.3325C70.8275 60.7695 70.7116 60.2271 70.5129 59.7179L72.0074 58.7036L70.7613 56.8655L69.2667 57.8798C68.8652 57.5072 68.4056 57.2008 67.8881 56.9731L68.2276 55.197L66.0458 54.7789L65.7063 56.555C65.1433 56.5757 64.601 56.6874 64.0959 56.8862L63.0816 55.3916L61.2434 56.6378L62.2577 58.1323C61.8851 58.5297 61.5788 58.9934 61.3511 59.5068L59.575 59.1673L59.1569 61.3491L60.9329 61.6886C60.9536 62.2516 61.0654 62.7939 61.2641 63.3032L59.7696 64.3175L61.0157 66.1556L62.5103 65.1413C62.9077 65.5139 63.3714 65.8203 63.8847 66.048L63.5453 67.8199L65.727 68.2381L66.0665 66.4661C66.6296 66.4454 67.1719 66.3295 67.6811 66.1349L68.6954 67.6295L70.5294 66.3833L69.5151 64.8888C69.8877 64.4872 70.1982 64.0277 70.4218 63.5102L72.202 63.8538ZM65.3669 64.2637C63.8475 63.9739 62.8497 62.5042 63.1437 60.9848C63.4335 59.4654 64.9032 58.4718 66.4226 58.7616C67.9419 59.0514 68.9355 60.5211 68.6457 62.0405C68.3518 63.564 66.8862 64.5576 65.3669 64.2637Z"
          stroke="#0088DE" stroke-miterlimit="10"/>
    <path d="M188.702 72.7672L188.304 67.8241L184.284 68.147C183.908 66.9505 183.332 65.8451 182.603 64.8722L185.22 61.8004L181.444 58.5836L178.828 61.6555C177.743 61.0924 176.563 60.7074 175.321 60.5252L174.998 56.5012L170.055 56.8986L170.378 60.9227C169.182 61.2994 168.076 61.8707 167.103 62.5994L164.031 59.9829L160.815 63.7627L163.886 66.3792C163.323 67.4597 162.938 68.6396 162.756 69.8816L158.732 70.2046L159.13 75.1477L163.154 74.8248C163.53 76.0213 164.102 77.1266 164.83 78.1037L162.214 81.1756L165.994 84.3882L168.61 81.3163C169.691 81.8794 170.871 82.2685 172.113 82.4507L172.436 86.4706L177.379 86.0732L177.056 82.0532C178.252 81.6765 179.358 81.101 180.335 80.3724L183.407 82.9889L186.619 79.2132L183.547 76.5967C184.11 75.512 184.5 74.3321 184.682 73.0901L188.702 72.7672ZM174.22 77.7269C170.775 78.0043 167.753 75.4375 167.476 71.9889C167.198 68.5444 169.769 65.5222 173.214 65.2448C176.658 64.9675 179.681 67.5384 179.958 70.9829C180.235 74.4356 177.664 77.4496 174.22 77.7269Z"
          fill="#0088DE"/>
    <path d="M141.891 25.3394L142.309 23.1576L140.537 22.8181C140.516 22.2551 140.4 21.7127 140.201 21.2035L141.696 20.1892L140.454 18.3552L138.959 19.3695C138.558 18.9969 138.098 18.6905 137.581 18.4628L137.92 16.6868L135.739 16.2686L135.399 18.0447C134.836 18.0654 134.294 18.1772 133.789 18.3759L132.774 16.8814L130.936 18.1275L131.95 19.622C131.578 20.0195 131.272 20.4832 131.044 20.9965L129.268 20.657L128.85 22.8388L130.626 23.1783C130.646 23.7413 130.758 24.2837 130.957 24.7929L129.462 25.8072L130.708 27.6454L132.203 26.6311C132.6 27.0037 133.064 27.31 133.577 27.5377L133.238 29.3096L135.42 29.7278L135.759 27.9559C136.322 27.9352 136.865 27.8192 137.374 27.6247L138.388 29.1192L140.226 27.8731L139.212 26.3785C139.585 25.9769 139.895 25.5174 140.119 24.9999L141.891 25.3394ZM135.051 25.7492C133.532 25.4594 132.534 23.9897 132.828 22.4704C133.118 20.951 134.588 19.9574 136.107 20.2472C137.626 20.537 138.62 22.0067 138.33 23.5261C138.04 25.0454 136.571 26.039 135.051 25.7492Z"
          stroke="#0088DE" stroke-miterlimit="10"/>
    <path d="M60.7134 37.3371C69.0796 37.3371 75.8617 30.555 75.8617 22.1888C75.8617 13.8227 69.0796 7.04057 60.7134 7.04057C52.3473 7.04057 45.5652 13.8227 45.5652 22.1888C45.5652 30.555 52.3473 37.3371 60.7134 37.3371Z"
          fill="#FF8B2E"/>
    <path d="M60.7134 35.176C67.8861 35.176 73.7006 29.3615 73.7006 22.1888C73.7006 15.0162 67.8861 9.20166 60.7134 9.20166C53.5408 9.20166 47.7263 15.0162 47.7263 22.1888C47.7263 29.3615 53.5408 35.176 60.7134 35.176Z"
          fill="#FDFEFD"/>
    <path d="M60.7176 9.85164L60.701 11.5739" stroke="#212B3B" stroke-width="2" stroke-miterlimit="10"/>
    <path d="M60.7259 32.7997L60.7093 34.5219" stroke="#212B3B" stroke-width="2" stroke-miterlimit="10"/>
    <path d="M48.3762 22.1847L50.0985 22.1971" stroke="#212B3B" stroke-width="2" stroke-miterlimit="10"/>
    <path d="M71.3242 22.1764L73.0465 22.193" stroke="#212B3B" stroke-width="2" stroke-miterlimit="10"/>
    <path d="M51.9946 13.4617L53.1993 14.6913" stroke="#212B3B" stroke-miterlimit="10"/>
    <path d="M68.2275 29.6864L69.4323 30.9118" stroke="#212B3B" stroke-miterlimit="10"/>
    <path d="M51.9863 30.9077L53.2159 29.6988" stroke="#212B3B" stroke-miterlimit="10"/>
    <path d="M68.211 14.6748L69.4364 13.47" stroke="#212B3B" stroke-miterlimit="10"/>
    <path d="M60.7135 23.228C61.2874 23.228 61.7526 22.7627 61.7526 22.1888C61.7526 21.6149 61.2874 21.1497 60.7135 21.1497C60.1396 21.1497 59.6743 21.6149 59.6743 22.1888C59.6743 22.7627 60.1396 23.228 60.7135 23.228Z"
          fill="#212B3B"/>
    <path d="M136.509 43.7127V36.5712C136.509 33.4538 139.034 30.9284 142.151 30.9284H170.763C173.88 30.9284 176.406 33.4538 176.406 36.5712V43.7127C176.406 46.8301 173.88 49.3555 170.763 49.3555H142.151C139.034 49.3514 136.509 46.826 136.509 43.7127Z"
          fill="white"/>
    <path d="M153.888 46.412L152.601 58.6457L164.114 46.6066L153.888 46.412Z" fill="white"/>
    <path d="M145.066 42.9302C146.237 42.9302 147.186 42.035 147.186 40.9306C147.186 39.8263 146.237 38.931 145.066 38.931C143.895 38.931 142.946 39.8263 142.946 40.9306C142.946 42.035 143.895 42.9302 145.066 42.9302Z"
          fill="#0A4494"/>
    <path d="M156.612 42.9302C157.783 42.9302 158.732 42.035 158.732 40.9306C158.732 39.8263 157.783 38.931 156.612 38.931C155.442 38.931 154.493 39.8263 154.493 40.9306C154.493 42.035 155.442 42.9302 156.612 42.9302Z"
          fill="#0A4494"/>
    <path d="M167.844 42.9302C169.015 42.9302 169.964 42.035 169.964 40.9306C169.964 39.8263 169.015 38.931 167.844 38.931C166.674 38.931 165.725 39.8263 165.725 40.9306C165.725 42.035 166.674 42.9302 167.844 42.9302Z"
          fill="#0A4494"/>
    <path d="M103.976 37.4572C113.232 37.4572 120.735 29.8891 120.735 20.5535C120.735 11.2179 113.232 3.64992 103.976 3.64992C94.7209 3.64992 87.2178 11.2179 87.2178 20.5535C87.2178 29.8891 94.7209 37.4572 103.976 37.4572Z"
          fill="#FDEEEB"/>
    <path d="M105.09 38.7985C114.346 38.7985 121.849 31.2305 121.849 21.8949C121.849 12.5593 114.346 4.99127 105.09 4.99127C95.8345 4.99127 88.3314 12.5593 88.3314 21.8949C88.3314 31.2305 95.8345 38.7985 105.09 38.7985Z"
          fill="white"/>
    <path d="M100.532 26.3495C99.3811 25.1696 97.5015 25.1489 96.3423 26.304C95.179 27.4591 95.1707 29.351 96.3216 30.5309C97.4726 31.7108 99.348 31.7315 100.511 30.5765C101.675 29.4214 101.683 27.5294 100.532 26.3495ZM97.8741 30.4606L96.4086 28.9577L96.9592 26.9333L98.9712 26.4116L100.437 27.9145L99.8903 29.9348L97.8741 30.4606Z"
          fill="#0088DE"/>
    <path d="M114.62 14.5257L112.294 16.8358C111.938 17.1918 111.358 17.1836 111.006 16.8192L110.282 16.074C109.926 15.7097 109.93 15.1301 110.286 14.7741L112.613 12.464C111.59 12.1742 110.431 12.4515 109.594 13.2795C108.373 14.4926 108.315 16.4301 109.47 17.6141C110.621 18.794 112.546 18.7692 113.768 17.5562C114.6 16.7282 114.89 15.5607 114.62 14.5257Z"
          fill="#0088DE"/>
    <path d="M100.809 28.1421L98.8926 26.1756C102.039 22.6691 105.38 19.3529 108.907 16.2355L110.824 18.202C107.653 21.6879 104.316 24.9999 100.809 28.1421Z"
          fill="#0088DE"/>
    <path d="M107.607 35.6356L113.718 42.4376L113.652 31.0526L107.607 35.6356Z" fill="white"/>
    <path d="M139.734 139.757C141.522 130.197 144.006 120.671 148.117 111.634C152.228 102.596 158.02 94.0344 165.82 87.1496C168.767 84.5455 172.796 82.0243 176.633 83.1172C180.48 84.2143 181.962 88.4454 181.63 92.0969C181.055 98.4683 176.766 104.161 172.282 109.253C162.781 120.046 151.773 129.705 139.734 139.757Z"
          fill="#FFD6D0"/>
    <path d="M177.308 86.7066C163.282 102.695 150.916 120.071 140.458 138.477" stroke="#CC8F8D" stroke-miterlimit="10"
          stroke-linecap="round"/>
    <path d="M171.293 84.707C172.179 86.9591 172.763 89.3272 173.028 91.7284C175.615 91.3185 178.294 91.48 180.807 92.2004"
          stroke="#CC8F8D" stroke-miterlimit="10" stroke-linecap="round"/>
    <path d="M159.9 94.6471C161.907 97.1021 163.207 100.108 163.617 103.229C167.563 102.389 171.736 102.625 175.553 103.9"
          stroke="#CC8F8D" stroke-miterlimit="10" stroke-linecap="round"/>
    <path d="M150.866 109.241C152.414 111.542 153.346 114.238 153.536 116.991C157.229 116.25 161.022 116.01 164.781 116.283"
          stroke="#CC8F8D" stroke-miterlimit="10" stroke-linecap="round"/>
    <path d="M145.277 122.89C146.151 124.157 146.755 125.602 147.032 127.105C148.995 126.322 151.04 125.734 153.122 125.353"
          stroke="#CC8F8D" stroke-miterlimit="10" stroke-linecap="round"/>
    <path d="M136.931 141.893C145.819 133.501 154.923 124.96 166.507 119.206C169.475 117.732 172.717 116.423 176.124 116.332C179.531 116.241 183.121 117.67 184.172 120.278C185.199 122.824 183.551 125.772 181.026 127.626C178.501 129.485 175.247 130.487 172.088 131.443C160.587 134.933 149.086 138.419 136.931 141.893Z"
          fill="#FFD6D0"/>
    <path d="M181.713 121.069C165.936 124.844 151.119 131.642 138.603 140.845" stroke="#CC8F8D" stroke-miterlimit="10"
          stroke-linecap="round"/>
    <path d="M175.913 117.918C175.946 119.545 175.673 121.176 175.102 122.725C176.832 123.619 178.149 125.109 178.699 126.798"
          stroke="#CC8F8D" stroke-miterlimit="10" stroke-linecap="round"/>
    <path d="M166.606 120.626C166.42 122.509 165.973 124.376 165.286 126.169C166.962 127.308 168.291 128.827 169.107 130.541"
          stroke="#CC8F8D" stroke-miterlimit="10" stroke-linecap="round"/>
    <path d="M155.764 126.206C156.037 127.655 156.029 129.142 155.735 130.586C157.594 130.947 159.274 131.957 160.326 133.344"
          stroke="#CC8F8D" stroke-miterlimit="10" stroke-linecap="round"/>
    <path d="M147.372 132.996C147.484 133.489 147.389 134.639 147.008 135.476C148.622 135.559 150.191 136.188 151.317 137.206"
          stroke="#CC8F8D" stroke-miterlimit="10" stroke-linecap="round"/>
    <path d="M138.405 141.893C146.308 121.615 153.549 100.927 160.098 79.9087C161.601 75.0939 163.017 69.3931 160.877 65.0709C158.649 60.5666 153.304 60.0036 149.607 62.6573C145.91 65.3111 143.592 70.2666 141.94 75.2429C134.575 97.3961 137.154 122.422 138.405 141.893Z"
          fill="#FFD6D0"/>
    <path d="M155.722 64.2098C146.163 82.1981 141.725 108.628 138.955 141.413" stroke="#CC8F8D" stroke-miterlimit="10"
          stroke-linecap="round"/>
    <path d="M142.781 78.4929C144.731 80.4345 146.341 82.8813 147.525 85.6592C150.634 83.643 154.075 82.3969 157.585 82.0243"
          stroke="#CC8F8D" stroke-miterlimit="10" stroke-linecap="round"/>
    <path d="M138.438 95.1398C140.562 96.9366 142.474 99.1101 144.126 101.573C146.759 99.0894 149.806 97.2512 153.023 96.1955"
          stroke="#CC8F8D" stroke-miterlimit="10" stroke-linecap="round"/>
    <path d="M138.33 111.998C139.543 112.921 140.62 114.113 141.489 115.5C143.323 113.836 145.368 112.515 147.525 111.592"
          stroke="#CC8F8D" stroke-miterlimit="10" stroke-linecap="round"/>
    <path d="M148.072 66.3792C149.984 68.0932 151.292 70.7718 151.611 73.6325C154.203 71.9103 157.32 71.3886 160.198 72.1918"
          stroke="#CC8F8D" stroke-miterlimit="10" stroke-linecap="round"/>
    <path d="M85.7729 68.6603C94.3924 86.5203 100.238 105.717 103.037 125.354" stroke="#FFD6D0" stroke-width="2"
          stroke-miterlimit="10" stroke-linecap="round"/>
    <path d="M85.9716 69.4014C82.138 68.5361 78.9295 65.7085 77.7248 62.1398C77.3604 61.0634 77.2818 59.6558 78.263 58.9727C79.2483 58.2855 80.6103 58.8071 81.5667 59.4695C84.8787 61.7631 86.8866 65.6506 85.9716 69.4014Z"
          fill="#FFD6D0"/>
    <path d="M87.6152 72.258C86.7334 68.7431 86.7789 64.9964 87.7435 61.5023C87.8802 61.0096 88.0416 60.5087 88.3438 60.0947C88.6461 59.6807 89.118 59.3578 89.6314 59.3578C90.1447 59.3578 90.6167 59.6765 90.9106 60.0947C91.2046 60.5128 91.3412 61.022 91.4281 61.5271C91.7511 63.4357 91.4074 65.4104 90.7243 67.2238C90.0371 69.0371 89.0228 70.7014 87.6152 72.258Z"
          fill="#FFD6D0"/>
    <path d="M90.2896 77.7476C90.0743 74.3984 90.716 70.9994 92.1361 67.9607C92.7239 66.7021 93.4691 65.4767 94.5745 64.628C95.1541 64.1809 95.9449 63.8497 96.6073 64.1643C97.1248 64.4127 97.4104 65.0047 97.4353 65.5802C97.4642 66.1556 97.2779 66.7145 97.0751 67.2527C95.5723 71.2768 93.0386 74.9076 90.2896 77.7476Z"
          fill="#FFD6D0"/>
    <path d="M92.4383 82.8523C92.1195 78.8447 94.3593 74.7503 97.9031 72.8583C98.669 72.4485 99.6419 72.1462 100.371 72.6223C100.95 72.9991 101.165 73.7732 101.062 74.4563C100.958 75.1394 100.59 75.748 100.201 76.3193C98.255 79.1884 95.6427 81.6103 92.4383 82.8523Z"
          fill="#FFD6D0"/>
    <path d="M94.3551 89.1989C94.6242 84.885 97.3193 80.8071 101.174 78.8571C101.786 78.5466 102.548 78.2982 103.124 78.6708C103.683 79.0352 103.778 79.8176 103.683 80.4759C103.459 81.987 102.54 83.2952 101.538 84.4503C99.6212 86.6652 97.3111 88.5365 94.3551 89.1989Z"
          fill="#FFD6D0"/>
    <path d="M96.4168 94.4236C97.4684 90.3001 100.557 86.7521 104.494 85.1375C105.144 84.8726 105.893 84.6573 106.535 84.9512C107.168 85.241 107.508 85.9862 107.491 86.6859C107.475 87.3855 107.164 88.0438 106.792 88.6358C105.661 90.4367 103.939 91.8071 102.072 92.8255C100.201 93.8439 98.1804 94.5353 96.4168 94.4236Z"
          fill="#FFD6D0"/>
    <path d="M87.9216 74.034C85.9551 70.9953 82.5644 68.9211 78.9626 68.5568C78.4617 68.5072 77.9317 68.4906 77.4888 68.7266C76.6525 69.1696 76.4703 70.3784 76.905 71.2189C77.4681 72.3077 78.7225 72.8293 79.8982 73.1771C82.1338 73.8353 84.4688 74.1707 87.9216 74.034Z"
          fill="#FFD6D0"/>
    <path d="M90.9893 79.7141C89.1967 76.6464 85.4955 74.8124 81.9682 75.2388C81.1112 75.3423 80.2294 75.5865 79.6001 76.1786C78.9709 76.7706 78.6645 77.7725 79.0785 78.5259C79.5463 79.3705 80.6434 79.5899 81.608 79.6893C84.4522 79.9874 87.3254 80.0536 90.9893 79.7141Z"
          fill="#FFD6D0"/>
    <path d="M93.2787 86.1187C90.8071 83.2828 86.8658 81.8048 83.1398 82.3223C82.5188 82.4093 81.8896 82.5542 81.3845 82.9268C80.8836 83.2994 80.5399 83.9411 80.6807 84.5497C80.8049 85.0713 81.2603 85.4687 81.7612 85.6633C82.2622 85.8579 82.8128 85.8869 83.3468 85.9159C86.5595 86.0732 89.7721 86.2305 93.2787 86.1187Z"
          fill="#FFD6D0"/>
    <path d="M95.6675 92.8379C94.3883 91.0495 92.7323 89.4763 90.7244 88.5862C88.7123 87.6919 86.3194 87.5387 84.3239 88.4578C83.7485 88.7228 83.1647 89.1451 83.0571 89.7661C82.9536 90.3788 83.3759 90.9832 83.9182 91.2896C84.4564 91.5959 85.094 91.6705 85.7108 91.7367C88.2072 92.0141 90.7037 92.2915 95.6675 92.8379Z"
          fill="#FFD6D0"/>
    <path d="M97.2076 98.2034C94.9927 95.5414 91.5772 93.9226 88.1162 93.8854C87.2054 93.8771 86.2407 93.9889 85.5038 94.5312C84.7669 95.0735 84.3653 96.1499 84.8331 96.9365C85.301 97.7231 86.3525 97.8887 87.2633 97.9674C89.5776 98.1703 91.8877 98.3731 97.2076 98.2034Z"
          fill="#FFD6D0"/>
    <path d="M98.2923 102.592C95.8952 100.381 92.2975 100.017 89.0725 100.493C88.2403 100.617 87.3627 100.812 86.7582 101.399C86.1538 101.987 85.9882 103.093 86.6216 103.643C87.0894 104.049 87.7808 104.02 88.3977 103.97C91.2915 103.739 94.1854 103.503 98.2923 102.592Z"
          fill="#FFD6D0"/>
    <path d="M99.8282 107.891C98.698 106.533 96.9385 105.796 95.179 105.635C93.4195 105.473 91.6475 105.833 89.9626 106.367C89.3084 106.574 88.6419 106.823 88.1534 107.303C87.6649 107.783 87.3958 108.553 87.6856 109.17C88.0996 110.06 89.3084 110.16 90.2855 110.077C93.0551 109.841 95.7834 109.125 99.8282 107.891Z"
          fill="#FFD6D0"/>
    <path d="M101.091 113.53C97.8245 111.749 93.8252 110.913 90.3559 112.246C89.4948 112.577 88.5633 113.236 88.6212 114.159C88.6585 114.73 89.1015 115.219 89.619 115.459C90.1406 115.699 90.7285 115.736 91.3039 115.74C94.2226 115.753 97.0793 114.958 101.091 113.53Z"
          fill="#FFD6D0"/>
    <path d="M101.67 118.593C98.9712 117.264 95.7751 116.978 92.8813 117.806C92.074 118.038 91.2542 118.373 90.7078 119.015C90.1613 119.657 89.9791 120.667 90.4842 121.342C91.0058 122.037 92.0036 122.12 92.873 122.099C95.386 122.025 97.87 121.545 101.67 118.593Z"
          fill="#FFD6D0"/>
    <path d="M98.2219 100.207C98.9546 96.9283 101.422 94.0924 104.568 92.9083C105.384 92.602 106.274 92.3991 107.127 92.5813C107.98 92.7634 108.775 93.4134 108.915 94.2704C109.023 94.9452 108.717 95.6366 108.253 96.1417C107.789 96.6467 107.185 96.9904 106.581 97.3133C104.279 98.5429 101.857 99.5406 98.2219 100.207Z"
          fill="#FFD6D0"/>
    <path d="M99.4266 106.45C100.607 102.48 103.948 99.226 107.947 98.1496C108.448 98.0129 109.023 97.926 109.445 98.2199C110.05 98.6422 109.967 99.5696 109.673 100.244C108.94 101.917 107.38 103.076 105.769 103.937C104.163 104.798 102.428 105.453 99.4266 106.45Z"
          fill="#FFD6D0"/>
    <path d="M100.474 111.037C101.145 109.427 102.395 108.094 103.881 107.175C105.363 106.256 107.069 105.738 108.8 105.494C109.433 105.407 110.091 105.357 110.7 105.556C111.308 105.755 111.855 106.26 111.925 106.893C111.987 107.411 111.722 107.928 111.341 108.288C110.961 108.649 110.476 108.872 109.992 109.067C107.276 110.168 104.341 110.57 100.474 111.037Z"
          fill="#FFD6D0"/>
    <path d="M101.683 116.581C103.852 113.219 107.392 110.487 111.387 110.325C112.397 110.284 113.619 110.561 113.937 111.522C114.14 112.13 113.871 112.818 113.416 113.269C112.96 113.72 112.352 113.973 111.743 114.175C108.348 115.302 104.407 115.19 101.683 116.581Z"
          fill="#FFD6D0"/>
    <path d="M7.96985 126.186C32.135 124.36 56.7349 128.574 78.9129 138.341" stroke="#FFD6D0" stroke-width="2"
          stroke-miterlimit="10" stroke-linecap="round"/>
    <path d="M12.0643 125.784C8.98003 123.64 4.49227 123.78 1.55287 126.119C1.14301 126.442 0.757987 126.815 0.534427 127.291C0.310867 127.763 0.281887 128.355 0.571687 128.79C0.989827 129.423 1.87993 129.514 2.63755 129.477C6.13585 129.299 9.41887 127.813 12.0643 125.784Z"
          fill="#FFD6D0"/>
    <path d="M18.0756 125.772C15.4508 126.38 13.091 128.069 11.6752 130.359C11.3688 130.851 11.1038 131.381 11.0335 131.957C10.9631 132.532 11.1245 133.157 11.5592 133.542C12.0064 133.94 12.6812 134.006 13.2525 133.841C13.828 133.671 14.3206 133.298 14.7553 132.888C17.1275 130.661 18.324 127.13 18.0756 125.772Z"
          fill="#FFD6D0"/>
    <path d="M27.196 126.181C23.1802 127.096 19.7813 130.313 18.6469 134.271C18.4151 135.078 18.3571 136.126 19.0651 136.581C19.831 137.07 20.8121 136.461 21.4704 135.84C24.2608 133.211 26.3059 129.903 27.196 126.181Z"
          fill="#FFD6D0"/>
    <path d="M35.0289 126.471C31.3526 127.908 28.5084 130.938 26.3225 134.226C25.9251 134.822 25.5359 135.455 25.4283 136.167C25.3206 136.879 25.569 137.687 26.19 138.043C26.7324 138.353 27.4362 138.25 27.9785 137.935C28.5209 137.62 28.9307 137.128 29.3157 136.635C31.4851 133.861 33.2487 130.798 35.0289 126.471Z"
          fill="#FFD6D0"/>
    <path d="M40.3488 127.287C36.9954 128.467 34.4245 131.617 33.9318 135.136C33.8531 135.687 33.8283 136.258 33.9898 136.788C34.1512 137.318 34.5362 137.807 35.0662 137.972C35.7286 138.179 36.4613 137.836 36.9167 137.314C37.3721 136.792 37.6081 136.117 37.8317 135.463C38.7839 132.698 39.7319 129.932 40.3488 127.287Z"
          fill="#FFD6D0"/>
    <path d="M45.1636 127.85C43.9962 129.336 42.8163 130.839 42.0297 132.557C41.2431 134.275 40.8705 136.254 41.388 138.067C41.5411 138.601 41.8516 139.185 42.3981 139.272C42.8742 139.351 43.3172 139.011 43.6484 138.659C44.8573 137.388 45.5694 135.708 45.8964 133.99C46.2235 132.267 46.1945 130.5 45.1636 127.85Z"
          fill="#FFD6D0"/>
    <path d="M53.5513 129.489C52.1561 130.081 51.0383 131.207 50.2351 132.491C49.432 133.774 48.9145 135.215 48.4632 136.66C48.281 137.239 48.1072 137.836 48.1486 138.444C48.19 139.049 48.4798 139.674 49.0221 139.947C49.6679 140.274 50.4877 140.009 51.001 139.5C51.5144 138.991 51.7835 138.287 51.9988 137.6C52.7522 135.219 53.0876 132.706 53.5513 129.489Z"
          fill="#FFD6D0"/>
    <path d="M15.2232 125.37C12.5984 124.563 10.3421 122.629 9.14565 120.162C8.99247 119.847 8.85171 119.504 8.90139 119.156C8.98005 118.564 9.57621 118.166 10.1641 118.063C11.2612 117.864 12.3873 118.427 13.1283 119.259C13.8694 120.092 14.2834 121.156 14.6229 122.215C14.9623 123.275 15.2439 124.368 15.2232 125.37Z"
          fill="#FFD6D0"/>
    <path d="M22.9484 126.028C20.8287 124.799 19.0816 122.94 17.9845 120.75C17.7361 120.253 17.5208 119.731 17.4836 119.181C17.4463 118.63 17.6243 118.038 18.0508 117.686C18.5227 117.297 19.2141 117.268 19.7854 117.483C20.3567 117.699 20.8246 118.121 21.2344 118.572C22.7704 120.253 23.6977 122.472 22.9484 126.028Z"
          fill="#FFD6D0"/>
    <path d="M31.216 126.194C28.3221 124.488 26.517 121.089 26.724 117.736C26.753 117.285 26.8607 116.767 27.2622 116.564C27.5686 116.411 27.9536 116.506 28.2269 116.713C28.5001 116.92 28.6823 117.223 28.852 117.521C30.123 119.74 31.0172 122.174 31.216 126.194Z"
          fill="#FFD6D0"/>
    <path d="M38.5603 126.778C36.2088 125.407 34.648 122.766 34.5859 120.042C34.5652 119.148 34.7888 118.113 35.5837 117.699C36.1467 117.409 36.8547 117.529 37.3887 117.873C37.9228 118.216 38.3037 118.746 38.6266 119.293C39.9721 121.582 40.4151 124.381 38.5603 126.778Z"
          fill="#FFD6D0"/>
    <path d="M44.493 128.078C43.3089 127.448 42.5472 126.202 42.2118 124.902C41.8765 123.602 41.9262 122.24 42.0131 120.903C42.0628 120.116 42.1373 119.301 42.5265 118.614C42.9156 117.926 43.7188 117.413 44.4847 117.599C45.2961 117.798 45.7433 118.663 45.9999 119.458C46.89 122.249 46.6416 125.378 44.493 128.078Z"
          fill="#FFD6D0"/>
    <path d="M51.1004 129.158C49.2746 126.475 49.1628 122.729 50.8188 119.938C51.1459 119.388 51.6551 118.821 52.2885 118.887C52.8723 118.949 53.2532 119.524 53.4891 120.063C54.7932 123.048 54.1557 126.774 51.1004 129.158Z"
          fill="#FFD6D0"/>
    <path d="M110.046 95.7897L107.918 88.5406C107.918 88.5406 102.196 91.0122 100.379 94.8086C96.2637 103.42 93.672 120.154 92.0036 122.489C90.3352 124.824 69.8008 127.606 69.8008 127.606L71.9039 138.192C71.9039 138.192 97.0171 136.382 100.379 133.414C104.933 129.394 110.427 111.911 110.427 111.911L110.046 95.7897Z"
          fill="#F7746F"/>
    <path d="M123.658 52.3322C124.374 49.3638 127.575 47.3518 130.617 47.6002C133.66 47.8486 136.343 50.08 137.564 52.8787C138.782 55.6773 138.661 58.9438 137.672 61.8335C137.001 63.7876 135.946 65.8824 136.699 67.8075C137.258 69.2399 138.69 70.13 140.098 70.7552C141.506 71.3762 143.025 71.8564 144.168 72.8873C145.31 73.9181 145.948 75.7356 145.095 77.019C143.865 78.8779 140.454 78.5218 139.688 80.6125C139.295 81.6765 139.85 82.8523 139.783 83.9866C139.705 85.4108 138.624 86.6321 137.341 87.2531C136.057 87.8741 134.596 87.9983 133.168 88.0314C130.659 88.0935 128.042 87.8824 125.869 86.6321C123.695 85.3777 122.097 82.844 122.619 80.389C123.045 78.3769 124.792 76.5139 124.184 74.5516C123.745 73.1315 122.255 72.3698 121.187 71.3348C118.926 69.1447 118.57 65.5346 119.485 62.5249C120.392 59.5109 122.536 56.998 123.658 52.3322Z"
          fill="#6B2E40"/>
    <path d="M126.755 83.2952C123.178 88.8221 116.84 95.0445 114.579 94.7423C112.712 94.4939 110.803 91.8733 110.803 87.2489C111.064 87.1454 111.325 86.9922 111.578 86.8018C112.128 86.3753 112.621 85.7461 112.911 85.005C112.985 84.8228 113.047 84.6241 113.089 84.4254C113.378 83.1296 113.022 81.6433 112.228 80.7615C112.186 80.716 112.149 80.6704 112.108 80.629C115.134 77.8801 118.156 75.9343 121.174 73.9885C121.29 75.8018 121.671 77.4785 122.333 78.9151C122.486 79.2545 122.656 79.5775 122.843 79.8838C123.811 81.4984 125.206 82.7156 126.755 83.2952Z"
          fill="#FAC8BF"/>
    <path d="M122.325 78.9068C120.102 81.9911 116.26 86.8681 111.569 86.7977C112.12 86.3713 112.613 85.742 112.902 85.0009C112.977 84.8188 113.039 84.62 113.08 84.4213C113.37 83.1255 113.014 81.6392 112.219 80.7574C112.178 80.7119 112.141 80.6663 112.099 80.6249C115.126 77.876 118.148 75.9302 121.166 73.9844C121.282 75.7977 121.667 77.4744 122.325 78.9068Z"
          fill="#EDA19F"/>
    <path d="M125.442 82.43C125.442 82.43 120.33 93.3057 114.231 93.5997C110.745 93.7694 111.329 86.2553 111.329 86.2553C111.329 86.2553 105.512 88.9836 103.836 91.066C101.902 93.4631 99.5136 108.04 99.7206 111.853C100.093 118.725 103.707 123.209 103.707 126.943C103.707 130.678 100.996 139.645 100.996 139.645L137.949 139.545C137.949 139.545 135.999 131.592 135.619 123.155C135.238 114.718 139.539 95.8684 137.987 90.5568C136.885 86.8225 125.442 82.43 125.442 82.43Z"
          fill="#FF9185"/>
    <path d="M114.095 93.6163C114.095 93.6163 122.106 90.5278 125.128 81.9953C125.128 81.9953 129.508 83.258 129.789 83.9783C130.261 85.1831 128.2 93.8646 125.604 95.1646C123.372 96.2824 114.095 93.6163 114.095 93.6163Z"
          fill="#F25C61"/>
    <path d="M114.095 93.608C114.095 93.608 111.458 89.8281 112.488 85.3611C112.488 85.3611 110.153 86.1642 108.895 87.3027C107.048 88.9753 103.844 95.5662 104.738 96.2162C105.359 96.6633 114.095 93.608 114.095 93.608Z"
          fill="#F25C61"/>
    <path d="M113.594 98.4725C114.204 98.4725 114.699 97.9776 114.699 97.3671C114.699 96.7566 114.204 96.2617 113.594 96.2617C112.983 96.2617 112.488 96.7566 112.488 97.3671C112.488 97.9776 112.983 98.4725 113.594 98.4725Z"
          fill="#BF4753"/>
    <path d="M112.811 105.274C113.422 105.274 113.917 104.78 113.917 104.169C113.917 103.559 113.422 103.064 112.811 103.064C112.201 103.064 111.706 103.559 111.706 104.169C111.706 104.78 112.201 105.274 112.811 105.274Z"
          fill="#BF4753"/>
    <path d="M99.6833 63.0299C102.279 62.5745 104.912 65.2158 105.562 68.9294C106.212 72.643 104.635 76.0212 102.039 76.4766C99.4432 76.932 96.8102 74.2907 96.1602 70.5771C95.5061 66.8636 97.0875 63.4853 99.6833 63.0299Z"
          fill="#0387D9"/>
    <path d="M127.512 67.2113C128.672 57.9833 123.348 49.695 115.618 48.6973C107.893 47.7037 99.5302 54.3028 99.5302 63.6054C99.5302 76.1372 104.531 84.1564 112.025 82.6908C119.216 81.2873 126.353 76.4394 127.512 67.2113Z"
          fill="#FAC8BF"/>
    <path d="M126.068 66.0314C123.559 65.6133 121.286 63.978 120.089 61.7341C120.35 63.1748 119.746 64.7439 118.578 65.6298C118.135 65.9693 117.539 66.2177 117.026 66.0066C116.628 65.8451 116.376 65.4477 116.19 65.0626C115.531 63.6964 115.345 62.1108 115.668 60.6287C114.562 63.1872 112.141 65.133 109.404 65.6671C108.659 65.812 107.785 65.8161 107.272 65.2572C106.85 64.7977 106.817 64.0815 107.028 63.4936C107.239 62.9057 107.657 62.4172 108.063 61.9452C105.508 63.742 102.267 64.5327 99.1741 64.1105C100.205 59.867 102.788 55.9381 106.514 53.657C110.24 51.38 115.121 50.9121 119.05 52.8165C122.979 54.7209 125.695 59.0928 125.269 63.4439"
          fill="#EDA19F"/>
    <path d="M126.461 71.4838C126.196 69.9561 125.707 68.1966 125.041 66.3585C122.685 64.6072 120.905 62.1025 119.659 59.424C119.651 59.5233 119.651 59.6103 119.651 59.7096C119.593 61.8417 118.086 65.9113 117.419 65.4891C116.334 64.8142 116.5 57.4078 116.04 53.3671C116.355 55.8511 116.02 58.4635 114.827 60.666C113.635 62.8684 111.511 64.6072 109.056 65.0792C108.733 65.1372 108.353 65.1579 108.129 64.9219C107.856 64.6197 107.992 64.1477 108.15 63.7792C109.383 60.873 110.613 57.9791 111.826 55.0728C110.865 57.3126 109.76 59.5026 107.872 60.9516C105.761 62.5869 102.942 63.3073 99.8034 63.2783C99.5302 65.1579 99.5798 66.847 99.7744 68.2587C98.9713 66.7725 98.4538 65.1868 98.2095 63.5722C97.5719 59.4157 98.698 55.0438 101.223 51.7277C104.726 47.1282 110.977 44.8015 116.632 45.9855C117.846 46.0559 119.03 46.2588 120.156 46.6024C124.685 47.9603 128.361 51.3758 129.938 55.6607C131.909 61.0054 130.489 67.4431 126.461 71.4838Z"
          fill="#904B57"/>
    <path d="M120.151 46.5941C115.308 46.2712 110.389 47.2772 106.328 49.902C101.7 52.8869 98.4331 58.1075 98.2095 63.5681C97.5719 59.4116 98.698 55.0397 101.223 51.7236C104.726 47.124 110.977 44.7974 116.632 45.9814C117.841 46.0476 119.025 46.2546 120.151 46.5941Z"
          fill="#BD7D81"/>
    <path d="M124.606 65.5056C124.606 65.5056 125.471 55.5614 119.742 51.0156C112.807 45.5177 103.476 49.3555 103.476 49.3555C103.476 49.3555 102.913 48.0431 108.655 46.2505C111.466 45.3728 118.293 44.5158 122.987 48.8711C128.585 54.0627 128.245 63.1624 128.245 63.1624L124.606 65.5056Z"
          fill="#0A4494"/>
    <path d="M122.064 68.7307C122.557 64.9923 125.074 62.2392 127.686 62.5828C130.299 62.9264 132.021 66.2343 131.528 69.9727C131.036 73.7111 128.518 76.4642 125.906 76.1206C123.294 75.7811 121.572 72.4691 122.064 68.7307Z"
          fill="#0387D9"/>
    <path d="M125.455 69.1778C125.894 65.841 127.624 63.3197 129.317 63.5433C131.015 63.7668 132.033 66.6483 131.594 69.9851C131.156 73.322 129.425 75.8432 127.732 75.6197C126.034 75.3961 125.016 72.5105 125.455 69.1778Z"
          fill="#75C0E0"/>
    <path d="M116.504 66.8097C114.943 65.249 112.762 65.1082 111.325 65.7416" stroke="#904B57" stroke-width="2"
          stroke-miterlimit="10" stroke-linecap="round"/>
    <path d="M105.434 65.9404C103.819 64.7149 101.708 65.1496 100.805 66.2301" stroke="#904B57" stroke-width="2"
          stroke-miterlimit="10" stroke-linecap="round"/>
    <path d="M106.763 70.1921C106.713 71.4134 106.841 72.6389 107.148 73.8353" stroke="#B35267" stroke-width="2"
          stroke-miterlimit="10" stroke-linecap="round"/>
    <path d="M113.2 71.2768C113.596 71.2768 113.917 70.7893 113.917 70.188C113.917 69.5867 113.596 69.0992 113.2 69.0992C112.805 69.0992 112.484 69.5867 112.484 70.188C112.484 70.7893 112.805 71.2768 113.2 71.2768Z"
          fill="#363857"/>
    <path d="M103.12 71.2768C103.515 71.2768 103.836 70.7893 103.836 70.188C103.836 69.5867 103.515 69.0992 103.12 69.0992C102.724 69.0992 102.403 69.5867 102.403 70.188C102.403 70.7893 102.724 71.2768 103.12 71.2768Z"
          fill="#363857"/>
    <path d="M112.542 78.5053C111.205 78.911 110.269 78.4887 109.644 77.8718C108.804 77.048 108.51 75.8722 108.51 75.8722L108.688 75.8225L114.028 74.2411C114.028 74.2411 114.161 74.5309 114.277 74.9656C114.322 75.127 114.36 75.3092 114.384 75.5079C114.534 76.5553 114.351 77.9588 112.542 78.5053Z"
          fill="#B35267"/>
    <path d="M114.277 74.9656C112.878 75.5079 109.859 76.2945 109.45 76.2945C109.176 76.2945 108.895 76.0502 108.692 75.8225L114.033 74.2411C114.033 74.2411 114.165 74.5309 114.277 74.9656Z"
          fill="#FFEDEF"/>
    <path d="M112.542 78.5053C111.205 78.911 110.269 78.4887 109.644 77.8719C111.221 76.0627 113.171 75.599 114.384 75.5038C114.533 76.5553 114.351 77.9588 112.542 78.5053Z"
          fill="#E6919D"/>
    <path d="M107.992 83.7299C107.992 83.7299 105.442 83.7548 103.12 81.7386C100.892 79.8011 100.631 77.3916 100.706 76.3773"
          stroke="#363857" stroke-miterlimit="10"/>
    <path d="M108.862 85.0754C110.083 85.0754 111.072 84.473 111.072 83.7299C111.072 82.9868 110.083 82.3844 108.862 82.3844C107.641 82.3844 106.651 82.9868 106.651 83.7299C106.651 84.473 107.641 85.0754 108.862 85.0754Z"
          fill="#363857"/>
    <path d="M5.72186 143.669V146.298L148.399 146.6L179.933 139.81V137.277L5.72186 143.669Z" fill="#1B2E34"/>
    <path d="M57.2317 137.322L179.933 137.277L148.175 143.719L5.72186 143.669L57.2317 137.322Z" fill="white"/>
    <g opacity="0.949">
        <g opacity="0.949">
            <path opacity="0.949"
                  d="M70.6081 138.009C67.9502 138.337 64.9529 138.544 61.8023 138.651C58.7511 138.771 55.5592 138.813 52.3424 138.813C53.1166 136.163 54.8388 133.766 57.2028 132.35C57.9314 131.915 58.7263 131.563 59.5584 131.336C61.3883 130.822 63.3714 130.847 65.1599 131.497C67.7515 132.449 70.1072 135.294 70.6081 138.009Z"
                  fill="#12252B"/>
            <path opacity="0.949"
                  d="M61.8023 138.651C58.7511 138.771 55.5592 138.813 52.3424 138.813C53.1166 136.163 54.8388 133.766 57.2028 132.35C57.9314 131.915 58.7263 131.563 59.5584 131.336C60.6059 132.098 61.3138 133.306 61.6491 134.582C61.9969 135.906 61.9679 137.302 61.8023 138.651Z"
                  fill="#597375"/>
        </g>
        <path opacity="0.949"
              d="M72.1109 135.6C70.5253 136.345 69.2046 136.548 67.2299 136.391C66.5426 137.289 63.0857 140.204 62.1956 139.429C61.5084 138.833 64.0089 136.395 64.514 135.467C64.8783 134.797 65.1723 134.039 65.193 133.244C64.3443 132.23 62.6552 131.257 61.5663 131.53C59.8689 131.957 57.7865 134.432 55.6627 136.233C55.3688 136.482 55.0707 136.734 54.7188 136.842C54.3669 136.95 53.957 136.879 53.721 136.56C53.307 136.002 53.6465 135.145 54.0108 134.54C55.9649 131.319 58.4738 128.562 61.3428 126.484C64.928 126.927 67.3665 127.825 70.604 129.266C71.4734 131.174 72.1399 133.704 72.1109 135.6Z"
              fill="#FAC8BF"/>
    </g>
    <path d="M65.8347 137.678V139.649H122.42L134.923 137.198V135.956L65.8347 137.678Z" fill="#1B2E34"/>
    <path d="M86.2614 135.968L134.923 135.956L122.329 137.695L65.8347 137.678L86.2614 135.968Z" fill="#324B4F"/>
    <path d="M131.822 125.084C131.822 125.084 127.935 128.939 131.752 135.231C131.752 135.231 135.118 134.582 135.42 130.632C135.61 128.107 131.822 125.084 131.822 125.084Z"
          fill="#BF4753"/>
    <path d="M134.124 131.435C133.996 131.667 132.369 131.891 131.193 132.006C130.891 132.027 129.76 131.998 129.553 132.006C129.736 133.331 129.028 134.234 128.287 134.416C127.376 134.648 126.44 134.11 125.827 133.547C124.937 134.221 124.08 134.404 123.265 133.977C122.441 133.551 121.721 132.309 121.625 131.1C121.447 131.915 121.29 132.623 121.402 133.029C121.551 133.584 123.546 136.312 122.106 136.772C121.443 136.983 119.257 134.631 119.009 133.6C118.698 132.309 118.752 130.777 119.439 128.835C118.185 130.338 117.742 131.083 117.609 131.717C117.266 133.344 117.535 136.238 116.388 136.142C115.022 136.142 114.765 132.015 115.324 130.247C115.726 128.972 118.272 124.952 119.642 124.612C120.909 124.298 127.79 124.579 129.081 124.77C129.727 124.869 130.369 124.935 130.961 124.989C132.584 125.13 133.867 125.122 133.938 125.18C134.741 126.032 134.476 130.748 134.124 131.435Z"
          fill="#FAC8BF"/>
    <path d="M134.124 131.435C133.996 131.667 132.369 131.891 131.193 132.006C131.474 131.319 131.673 130.611 131.76 129.887C131.975 128.218 131.69 126.496 130.957 124.993C132.58 125.134 133.863 125.126 133.934 125.184C134.741 126.032 134.476 130.748 134.124 131.435Z"
          fill="#EDA19F"/>
    <path d="M124.08 128.595C124.205 130.442 124.623 131.675 125.637 133.224" stroke="#B35267" stroke-miterlimit="10"
          stroke-linecap="round"/>
    <path d="M129.4 131.944C129.127 131.87 128.742 131.613 128.535 131.419" stroke="#B35267" stroke-miterlimit="10"
          stroke-linecap="round"/>
    <path d="M128.506 130.628C128.581 131.17 128.489 131.729 128.245 132.222" stroke="#B35267" stroke-miterlimit="10"
          stroke-linecap="round"/>
    <path d="M141.833 93.5045C140.752 91.0287 137.465 88.731 134.393 87.0336C134.294 87.0916 134.194 87.1454 134.095 87.2075C132.348 88.3294 130.899 89.8737 129.553 91.4386C129.495 91.5048 129.442 91.5793 129.388 91.6456C130.237 97.2387 131.309 104.347 131.698 106.988C132.514 112.511 138.632 123.18 138.55 124.298C138.467 125.416 131.698 124.836 131.698 124.836C134.401 128.595 133.78 132.59 131.657 135.132C131.657 135.132 149.181 136.134 151.293 133.373C153.404 130.615 143.41 97.1228 141.833 93.5045Z"
          fill="#FF9185"/>
    <path d="M134.492 91.1778C131.731 99.7062 132.124 109.216 135.581 117.487" stroke="#EB6E6A" stroke-miterlimit="10"
          stroke-linecap="round"/>
    <path d="M128.477 105.705C129.558 109.646 131.69 113.045 134.836 115.649" stroke="#EB6E6A" stroke-miterlimit="10"
          stroke-linecap="round"/>
    <path d="M132.087 124.782C133.085 125.01 134.112 125.109 135.134 125.076" stroke="#EB6E6A" stroke-miterlimit="10"
          stroke-linecap="round"/>
    <path d="M136.856 135.323C134.973 135.323 133.76 135.265 131.926 135.169" stroke="#EB6E6A" stroke-miterlimit="10"
          stroke-linecap="round"/>
    <path d="M19.2596 131.05L16.9992 79.4906H87.6856L89.946 131.05H19.2596Z" fill="#1B2E34"/>
    <path d="M87.5241 131.05L85.2637 79.4906H87.6856L89.946 131.05H87.5241Z" fill="#324B4F"/>
    <path d="M39.6243 141.272L46.2193 113.583H59.0326L52.4376 141.272H39.6243Z" fill="#12252B"/>
    <path d="M51.6137 141.272L58.2087 113.583H59.0326L52.4376 141.272H51.6137Z" fill="#324B4F"/>
    <path d="M59.6743 138.378H33.5468V141.272H59.6743V138.378Z" fill="#12252B"/>
    <path d="M59.6743 138.378H57.9893V141.272H59.6743V138.378Z" fill="#324B4F"/>
</svg>
