<svg height="20" width="20" xmlns="http://www.w3.org/2000/svg" viewBox="0 0 87.881 87.881"
     style="enable-background:new 0 0 87.881 87.881"
     xml:space="preserve">
    <path opacity="0.6"
          d="M70.828 0H33.056C27.535 0 23.044 4.484 23.03 10.001h-2.975c-7.183 0-13.027 5.844-13.027 13.027v51.826c0 7.184 5.844 13.027 13.027 13.027h37.772c7.183 0 13.026-5.844 13.026-13.027v-2.975c5.517-.015 10.001-4.506 10.001-10.026V10.027C80.854 4.498 76.356 0 70.828 0zm-5.974 30.054v44.8a7.027 7.027 0 0 1-7.026 7.027H20.055a7.026 7.026 0 0 1-7.027-7.027V23.028a7.027 7.027 0 0 1 7.027-7.027h37.772a7.027 7.027 0 0 1 7.026 7.027l.001 7.026zm10 31.799a4.029 4.029 0 0 1-4.001 4.024V23.028c0-7.183-5.844-13.027-13.026-13.027H29.031A4.03 4.03 0 0 1 33.056 6h37.773a4.031 4.031 0 0 1 4.026 4.027v51.826z"/>
    <path opacity="0.6"
          d="M20.941 27.313h36v6h-36zM20.941 40.187h36v6h-36zM20.941 53.061h36v6h-36zM20.941 65.935h36v6h-36z"/>
</svg>