<svg width="131.183" height="33.6" fill="none" xmlns="http://www.w3.org/2000/svg">
    <path d="M0 33.6V0h25.344v6.576h-18v6.816h15.84v6.576H7.344v7.056h18.24V33.6Zm107.039 0V0h7.392v26.88h16.752v6.72z"
          fill="#2c66bd"/>
    <path d="M29.116 26.6V0h5.396l12.464 16.378V0h5.776v26.6h-4.978L34.892 9.69V26.6Zm27.362 0V0h10.374c4.155 0 7.55 1.267 10.184 3.8 2.635 2.508 3.952 5.675 3.952 9.5 0 3.8-1.33 6.967-3.99 9.5-2.635 2.533-6.017 3.8-10.146 3.8zm5.852-5.282h4.522c2.407 0 4.345-.735 5.814-2.204 1.47-1.495 2.204-3.433 2.204-5.814 0-2.356-.747-4.281-2.242-5.776-1.47-1.495-3.395-2.242-5.776-2.242H62.33ZM83.543 26.6V0h20.064v5.206h-14.25v5.396h12.54v5.206h-12.54v5.586h14.44V26.6Zm-54.677 2h75v5h-75z"
          fill="#4581dc"/>
</svg>