<svg width="80" height="46" viewBox="0 0 80 46" fill="none" xmlns="http://www.w3.org/2000/svg">
    <path d="M1.38356 35V1.4H26.7276V7.976H8.72756V14.792H24.5676V21.368H8.72756V28.424H26.9676V35H1.38356ZM50.1478 35.672L46.2598 31.736C43.2198 34.232 39.9398 35.48 36.4198 35.48C33.1238 35.48 30.4198 34.6 28.3078 32.84C26.1958 31.048 25.1398 28.664 25.1398 25.688C25.1398 21.528 27.3158 18.456 31.6678 16.472C30.0998 14.264 29.3158 11.992 29.3158 9.656C29.3158 7.224 30.2278 5.144 32.0518 3.416C33.9078 1.688 36.3878 0.823999 39.4918 0.823999C42.3078 0.823999 44.5798 1.64 46.3078 3.272C48.0678 4.904 48.9478 6.936 48.9478 9.368C48.9478 13.4 46.5958 16.328 41.8918 18.152L46.3558 22.616C47.4118 20.952 48.4998 19.032 49.6198 16.856L55.0438 19.832C53.3798 22.84 51.9078 25.208 50.6278 26.936L55.5718 31.88L50.1478 35.672ZM38.0518 14.264C39.5878 13.688 40.7078 13.048 41.4118 12.344C42.1478 11.64 42.5158 10.76 42.5158 9.704C42.5158 8.744 42.2278 7.992 41.6518 7.448C41.0758 6.872 40.3078 6.584 39.3478 6.584C38.3558 6.584 37.5558 6.904 36.9478 7.544C36.3718 8.184 36.0838 9.032 36.0838 10.088C36.0838 11.368 36.7398 12.76 38.0518 14.264ZM37.2838 29.432C38.8838 29.432 40.4998 28.792 42.1318 27.512L35.6998 20.984C33.6198 22.072 32.5798 23.576 32.5798 25.496C32.5798 26.68 33.0118 27.64 33.8758 28.376C34.7718 29.08 35.9078 29.432 37.2838 29.432ZM54.9617 35V1.4H62.3537V28.28H79.1057V35H54.9617ZM0.816129 41.939C0.810129 41.975 0.807129 42.029 0.807129 42.101C0.807129 42.527 0.933129 42.869 1.18513 43.127C1.43713 43.379 1.77913 43.505 2.21113 43.505C2.71513 43.505 3.19213 43.322 3.64213 42.956L4.00213 43.415C3.45613 43.877 2.84713 44.108 2.17513 44.108C1.55713 44.108 1.05913 43.925 0.681129 43.559C0.303129 43.193 0.114129 42.716 0.114129 42.128C0.114129 41.39 0.375129 40.727 0.897129 40.139C1.42513 39.545 2.06713 39.248 2.82313 39.248C3.38713 39.248 3.82813 39.419 4.14613 39.761C4.46413 40.097 4.62313 40.52 4.62313 41.03C4.62313 41.33 4.56613 41.633 4.45213 41.939H0.816129ZM0.915129 41.381H3.91213C3.93613 41.261 3.94813 41.144 3.94813 41.03C3.94813 40.688 3.84913 40.403 3.65113 40.175C3.45313 39.947 3.16513 39.833 2.78713 39.833C2.34313 39.833 1.95313 39.98 1.61713 40.274C1.28713 40.562 1.05313 40.931 0.915129 41.381ZM6.32757 44.036L5.58057 39.347H6.30957L6.83157 43.208L9.40557 39.347H10.1886L6.93957 44.036H6.32757ZM11.9144 45.458C11.4884 45.458 11.0744 45.386 10.6724 45.242C10.2704 45.098 9.92539 44.9 9.63739 44.648L10.0694 44.162C10.6154 44.63 11.2274 44.864 11.9054 44.864C12.4694 44.864 12.9044 44.705 13.2104 44.387C13.4564 44.147 13.6514 43.775 13.7954 43.271L13.9214 42.803C13.3754 43.361 12.7814 43.64 12.1394 43.64C11.6234 43.64 11.1794 43.481 10.8074 43.163C10.4354 42.845 10.2494 42.419 10.2494 41.885C10.2494 41.135 10.5134 40.508 11.0414 40.004C11.5754 39.5 12.1814 39.248 12.8594 39.248C13.6514 39.248 14.2214 39.62 14.5694 40.364L14.8394 39.347H15.5324L14.4704 43.334C14.2904 43.988 14.0384 44.477 13.7144 44.801C13.2764 45.239 12.6764 45.458 11.9144 45.458ZM12.3374 43.046C12.8594 43.046 13.3214 42.854 13.7234 42.47C14.1254 42.086 14.3264 41.654 14.3264 41.174C14.3264 40.814 14.1944 40.505 13.9304 40.247C13.6724 39.989 13.3274 39.86 12.8954 39.86C12.3854 39.86 11.9384 40.046 11.5544 40.418C11.1704 40.79 10.9784 41.249 10.9784 41.795C10.9784 42.191 11.1104 42.5 11.3744 42.722C11.6384 42.938 11.9594 43.046 12.3374 43.046ZM16.821 41.939C16.815 41.975 16.812 42.029 16.812 42.101C16.812 42.527 16.938 42.869 17.19 43.127C17.442 43.379 17.784 43.505 18.216 43.505C18.72 43.505 19.197 43.322 19.647 42.956L20.007 43.415C19.461 43.877 18.852 44.108 18.18 44.108C17.562 44.108 17.064 43.925 16.686 43.559C16.308 43.193 16.119 42.716 16.119 42.128C16.119 41.39 16.38 40.727 16.902 40.139C17.43 39.545 18.072 39.248 18.828 39.248C19.392 39.248 19.833 39.419 20.151 39.761C20.469 40.097 20.628 40.52 20.628 41.03C20.628 41.33 20.571 41.633 20.457 41.939H16.821ZM16.92 41.381H19.917C19.941 41.261 19.953 41.144 19.953 41.03C19.953 40.688 19.854 40.403 19.656 40.175C19.458 39.947 19.17 39.833 18.792 39.833C18.348 39.833 17.958 39.98 17.622 40.274C17.292 40.562 17.058 40.931 16.92 41.381ZM21.1398 44L22.3818 39.347H23.0748L22.8768 40.103C23.3808 39.533 23.9208 39.248 24.4968 39.248C24.9468 39.248 25.3068 39.38 25.5768 39.644C25.8468 39.902 25.9818 40.25 25.9818 40.688C25.9818 40.868 25.9428 41.108 25.8648 41.408L25.1808 44H24.4878L25.1898 41.363C25.2378 41.201 25.2618 41.027 25.2618 40.841C25.2618 40.535 25.1688 40.298 24.9828 40.13C24.7968 39.956 24.5418 39.869 24.2178 39.869C23.8578 39.869 23.5158 40.01 23.1918 40.292C22.8738 40.574 22.6548 40.934 22.5348 41.372L21.8328 44H21.1398ZM29.0623 44.108C28.4323 44.108 27.9223 43.913 27.5323 43.523C27.1423 43.133 26.9473 42.632 26.9473 42.02C26.9473 41.288 27.2173 40.643 27.7573 40.085C28.3033 39.527 28.9453 39.248 29.6833 39.248C30.3193 39.248 30.8323 39.443 31.2223 39.833C31.6123 40.223 31.8073 40.721 31.8073 41.327C31.8073 42.071 31.5313 42.722 30.9793 43.28C30.4333 43.832 29.7943 44.108 29.0623 44.108ZM29.1073 43.487C29.6293 43.487 30.0913 43.271 30.4933 42.839C30.8953 42.401 31.0963 41.906 31.0963 41.354C31.0963 40.886 30.9613 40.52 30.6913 40.256C30.4273 39.992 30.0763 39.86 29.6383 39.86C29.1103 39.86 28.6453 40.082 28.2433 40.526C27.8473 40.964 27.6493 41.456 27.6493 42.002C27.6493 42.464 27.7813 42.827 28.0453 43.091C28.3153 43.355 28.6693 43.487 29.1073 43.487ZM33.4858 44.036L32.7388 39.347H33.4678L33.9898 43.208L36.5638 39.347H37.3468L34.0978 44.036H33.4858ZM42.0574 44.126L41.3554 43.145C41.0134 43.469 40.6684 43.709 40.3204 43.865C39.9724 44.015 39.5854 44.09 39.1594 44.09C38.6194 44.09 38.1754 43.946 37.8274 43.658C37.4794 43.37 37.3054 42.977 37.3054 42.479C37.3054 41.999 37.4794 41.579 37.8274 41.219C38.1814 40.859 38.7034 40.583 39.3934 40.391C39.1294 39.947 38.9974 39.557 38.9974 39.221C38.9974 38.765 39.1654 38.381 39.5014 38.069C39.8374 37.751 40.2514 37.592 40.7434 37.592C41.2114 37.592 41.5864 37.718 41.8684 37.97C42.1504 38.222 42.2914 38.549 42.2914 38.951C42.2914 39.737 41.6434 40.316 40.3474 40.688L41.4724 42.263C41.8084 41.885 42.1324 41.429 42.4444 40.895L42.9214 41.201C42.5494 41.813 42.1834 42.317 41.8234 42.713L42.5884 43.784L42.0574 44.126ZM40.0324 40.238C41.0944 39.944 41.6254 39.527 41.6254 38.987C41.6254 38.747 41.5414 38.552 41.3734 38.402C41.2114 38.252 40.9924 38.177 40.7164 38.177C40.4224 38.177 40.1734 38.279 39.9694 38.483C39.7654 38.687 39.6634 38.933 39.6634 39.221C39.6634 39.533 39.7864 39.872 40.0324 40.238ZM39.2404 43.478C39.8464 43.478 40.4374 43.214 41.0134 42.686L39.7084 40.85C39.1384 40.994 38.7124 41.207 38.4304 41.489C38.1484 41.765 38.0074 42.077 38.0074 42.425C38.0074 42.749 38.1184 43.007 38.3404 43.199C38.5624 43.385 38.8624 43.478 39.2404 43.478ZM43.4919 44L45.2559 37.43H45.9489L44.1849 44H43.4919ZM46.7829 41.939C46.7769 41.975 46.7739 42.029 46.7739 42.101C46.7739 42.527 46.8999 42.869 47.1519 43.127C47.4039 43.379 47.7459 43.505 48.1779 43.505C48.6819 43.505 49.1589 43.322 49.6089 42.956L49.9689 43.415C49.4229 43.877 48.8139 44.108 48.1419 44.108C47.5239 44.108 47.0259 43.925 46.6479 43.559C46.2699 43.193 46.0809 42.716 46.0809 42.128C46.0809 41.39 46.3419 40.727 46.8639 40.139C47.3919 39.545 48.0339 39.248 48.7899 39.248C49.3539 39.248 49.7949 39.419 50.1129 39.761C50.4309 40.097 50.5899 40.52 50.5899 41.03C50.5899 41.33 50.5329 41.633 50.4189 41.939H46.7829ZM46.8819 41.381H49.8789C49.9029 41.261 49.9149 41.144 49.9149 41.03C49.9149 40.688 49.8159 40.403 49.6179 40.175C49.4199 39.947 49.1319 39.833 48.7539 39.833C48.3099 39.833 47.9199 39.98 47.5839 40.274C47.2539 40.562 47.0199 40.931 46.8819 41.381ZM53.8197 44.108C52.9857 44.108 52.4037 43.724 52.0737 42.956L51.7947 44H51.1017L52.8657 37.43H53.5587L52.8207 40.148C53.3547 39.548 53.9427 39.248 54.5847 39.248C55.1187 39.248 55.5597 39.431 55.9077 39.797C56.2557 40.157 56.4297 40.631 56.4297 41.219C56.4297 42.029 56.1687 42.713 55.6467 43.271C55.1247 43.829 54.5157 44.108 53.8197 44.108ZM53.7567 43.496C54.3027 43.496 54.7617 43.277 55.1337 42.839C55.5117 42.401 55.7007 41.882 55.7007 41.282C55.7007 40.85 55.5807 40.505 55.3407 40.247C55.1007 39.989 54.7827 39.86 54.3867 39.86C53.8647 39.86 53.3877 40.085 52.9557 40.535C52.5297 40.979 52.3167 41.483 52.3167 42.047C52.3167 42.455 52.4517 42.8 52.7217 43.082C52.9917 43.358 53.3367 43.496 53.7567 43.496ZM58.0153 41.939C58.0093 41.975 58.0063 42.029 58.0063 42.101C58.0063 42.527 58.1323 42.869 58.3843 43.127C58.6363 43.379 58.9783 43.505 59.4103 43.505C59.9143 43.505 60.3913 43.322 60.8413 42.956L61.2013 43.415C60.6553 43.877 60.0463 44.108 59.3743 44.108C58.7563 44.108 58.2583 43.925 57.8803 43.559C57.5023 43.193 57.3133 42.716 57.3133 42.128C57.3133 41.39 57.5743 40.727 58.0963 40.139C58.6243 39.545 59.2663 39.248 60.0223 39.248C60.5863 39.248 61.0273 39.419 61.3453 39.761C61.6633 40.097 61.8223 40.52 61.8223 41.03C61.8223 41.33 61.7653 41.633 61.6513 41.939H58.0153ZM58.1143 41.381H61.1113C61.1353 41.261 61.1473 41.144 61.1473 41.03C61.1473 40.688 61.0483 40.403 60.8503 40.175C60.6523 39.947 60.3643 39.833 59.9863 39.833C59.5423 39.833 59.1523 39.98 58.8163 40.274C58.4863 40.562 58.2523 40.931 58.1143 41.381ZM64.4762 44.108C63.9422 44.108 63.5012 43.925 63.1532 43.559C62.8052 43.193 62.6312 42.719 62.6312 42.137C62.6312 41.327 62.8922 40.643 63.4142 40.085C63.9362 39.527 64.5452 39.248 65.2412 39.248C66.0872 39.248 66.6692 39.632 66.9872 40.4L67.7792 37.43H68.4722L66.7172 44H66.0242L66.2312 43.208C65.7032 43.808 65.1182 44.108 64.4762 44.108ZM64.6742 43.496C65.1962 43.496 65.6702 43.271 66.0962 42.821C66.5282 42.371 66.7442 41.864 66.7442 41.3C66.7442 40.892 66.6092 40.55 66.3392 40.274C66.0692 39.998 65.7242 39.86 65.3042 39.86C64.7582 39.86 64.2962 40.079 63.9182 40.517C63.5462 40.955 63.3602 41.474 63.3602 42.074C63.3602 42.5 63.4802 42.845 63.7202 43.109C63.9662 43.367 64.2842 43.496 64.6742 43.496ZM69.2478 41.939C69.2418 41.975 69.2388 42.029 69.2388 42.101C69.2388 42.527 69.3648 42.869 69.6168 43.127C69.8688 43.379 70.2108 43.505 70.6428 43.505C71.1468 43.505 71.6238 43.322 72.0738 42.956L72.4338 43.415C71.8878 43.877 71.2788 44.108 70.6068 44.108C69.9888 44.108 69.4908 43.925 69.1128 43.559C68.7348 43.193 68.5458 42.716 68.5458 42.128C68.5458 41.39 68.8068 40.727 69.3288 40.139C69.8568 39.545 70.4988 39.248 71.2548 39.248C71.8188 39.248 72.2598 39.419 72.5778 39.761C72.8958 40.097 73.0548 40.52 73.0548 41.03C73.0548 41.33 72.9978 41.633 72.8838 41.939H69.2478ZM69.3468 41.381H72.3438C72.3678 41.261 72.3798 41.144 72.3798 41.03C72.3798 40.688 72.2808 40.403 72.0828 40.175C71.8848 39.947 71.5968 39.833 71.2188 39.833C70.7748 39.833 70.3848 39.98 70.0488 40.274C69.7188 40.562 69.4848 40.931 69.3468 41.381ZM74.7592 44.036L74.0122 39.347H74.7412L75.2632 43.208L77.8372 39.347H78.6202L75.3712 44.036H74.7592Z"
          fill="#2C66BD"/>
</svg>
