<svg width="20" height="20" viewBox="0 0 25.994 23.349" xmlns="http://www.w3.org/2000/svg">
    <path opacity="0.6"
          d="M24.07.002a2.974 2.974 0 0 0-.933.223h-.004c-.285.113-1.64.683-3.7 1.547l-7.382 3.11C6.754 7.111 1.547 9.306 1.547 9.306l.062-.024s-.36.118-.734.375a2.03 2.03 0 0 0-.586.567c-.184.27-.332.683-.277 1.11.09.722.558 1.155.894 1.394.34.242.664.355.664.355h.008L6.46 14.73c.219.703 1.488 4.875 1.793 5.836.18.574.355.933.574 1.207.106.14.23.257.379.351a1.119 1.119 0 0 0 .246.106l-.05-.012c.015.004.027.016.038.02.04.011.067.015.118.023.773.234 1.394-.246 1.394-.246l.035-.028 2.883-2.625 4.832 3.707.11.047c1.007.442 2.027.196 2.566-.238.543-.437.754-.996.754-.996l.035-.09 3.734-19.129c.106-.472.133-.914.016-1.343a1.807 1.807 0 0 0-.781-1.047 1.872 1.872 0 0 0-1.067-.27zm-.101 2.05c-.004.063.008.056-.02.177v.011l-3.7 18.93c-.015.027-.042.086-.116.145-.078.062-.14.101-.465-.028l-5.91-4.53-3.57 3.253.75-4.79 9.656-9c.398-.37.265-.448.265-.448.028-.454-.601-.133-.601-.133L8.082 13.182l-.004-.02-5.836-1.965v-.004l-.015-.003a.27.27 0 0 0 .03-.012l.032-.016.03-.01s5.212-2.197 10.509-4.427c2.652-1.117 5.324-2.242 7.379-3.11a807.312 807.312 0 0 1 3.66-1.53c.082-.032.043-.032.102-.032z"/>
</svg>