<svg xml:space="preserve" width="20
" height="20" viewBox="0 0 506.266 502" xmlns="http://www.w3.org/2000/svg">
    <path style="fill:#000;stroke:#000;stroke-width:17.5;stroke-linejoin:round;stroke-miterlimit:4;stroke-dasharray:none;stroke-opacity:.991968"
          d="M355.016 385.75c-1.4 3.5-5.4 5.1-8.8 3.7l-22.6-9.4c-4-1.7-8.6-.3-11 3.3a138.36 138.36 0 0 1-38.5 38.5c-3.6 2.4-5 7-3.3 11l9.3 22.6c1.4 3.4-.2 7.4-3.7 8.8l-24.6 10.3c-3.4 1.4-7.4-.2-8.8-3.7l-9.4-22.6c-1.7-4-5.9-6.3-10.1-5.4-18 3.6-36.3 3.6-54.4 0-4.2-.8-8.5 1.4-10.1 5.4l-9.4 22.6c-1.4 3.4-5.4 5.1-8.8 3.7l-24.6-10.2c-1.7-.7-3-2-3.7-3.7a6.7 6.7 0 0 1 0-5.2l9.4-22.6c1.7-4 .3-8.6-3.3-11a138.36 138.36 0 0 1-38.5-38.5c-2.4-3.6-7-5-11-3.3l-22.6 9.4c-3.5 1.4-7.4-.2-8.8-3.7l-10.2-24.6c-1.4-3.4.2-7.4 3.7-8.8l22.6-9.4c4-1.7 6.3-5.9 5.4-10.1-3.6-18-3.6-36.3 0-54.4.8-4.2-1.4-8.5-5.4-10.1l-22.6-9.4c-1.7-.7-3-2-3.7-3.7a6.7 6.7 0 0 1 0-5.2l10.2-24.6c.7-1.7 2-3 3.7-3.7 1.7-.7 3.5-.7 5.2 0l22.6 9.4c4 1.7 8.6.3 11-3.3 10.2-15.3 23.2-28.3 38.5-38.5 3.6-2.4 5-7 3.3-11l-9.4-22.6a6.7 6.7 0 0 1 0-5.2c.7-1.7 2-3 3.7-3.7l24.6-10.2c3.4-1.4 7.4.2 8.8 3.7l9.4 22.6c1.9 4.6 7.2 6.8 11.8 4.9 4.6-1.9 6.8-7.2 4.9-11.8l-9.4-22.6c-5.3-12.7-19.8-18.7-32.5-13.5l-24.6 10.2c-6.1 2.5-10.9 7.3-13.5 13.5-2.5 6.1-2.5 12.9 0 19.1l6.6 15.9c-12.6 9.3-23.7 20.4-33.1 33.1l-15.9-6.6c-6.1-2.5-12.9-2.5-19.1 0-6.1 2.5-10.9 7.3-13.5 13.5l-10.2 24.6c-2.5 6.1-2.5 12.9 0 19.1 2.5 6.1 7.3 10.9 13.5 13.5l15.9 6.6a153 153 0 0 0 0 46.8l-15.9 6.6c-12.7 5.3-18.7 19.8-13.5 32.5l10.2 24.3c5.2 12.7 19.8 18.7 32.5 13.5l15.9-6.6c9.3 12.6 20.4 23.7 33.1 33.1l-6.6 15.9c-2.5 6.1-2.5 12.9 0 19.1 2.5 6.1 7.3 10.9 13.5 13.5l24.6 10.2c12.7 5.2 27.3-.8 32.5-13.5l6.6-15.9a153 153 0 0 0 46.8 0l6.6 15.9c4 9.6 13.3 15.4 23 15.4 3.2 0 6.4-.6 9.5-1.9l24.6-10.2c12.7-5.3 18.7-19.8 13.5-32.5l-6.6-15.9c12.6-9.3 23.7-20.4 33.1-33.1l15.9 6.6c12.7 5.3 27.3-.8 32.5-13.5l10.2-24.6c2.5-6.1 2.5-12.9 0-19.1-2.5-6.1-7.3-10.9-13.5-13.5l-22.6-9.4c-4.6-1.9-9.9.3-11.8 4.9-1.9 4.6.3 9.9 4.9 11.8l22.6 9.4c1.7.7 3 2 3.7 3.7.7 1.7.7 3.5 0 5.2z"/>
    <path style="fill:#000;stroke:#000;stroke-width:14.7;stroke-linejoin:round;stroke-miterlimit:4;stroke-dasharray:none;stroke-opacity:.991968"
          d="M195.816 243.75c5 0 9-4.1 9-9.1s-4.1-9-9.1-9h-.1c-21.4.2-41.4 8.6-56.4 23.8-15 15.2-23.2 35.4-23 56.7.2 21.4 8.6 41.4 23.8 56.4 15.1 14.9 35 23 56.1 23h.6c21.4-.2 41.4-8.6 56.4-23.8 15-15.2 23.2-35.4 23-56.7 0-5-4.1-9-9.1-9h-.1c-5 0-9 4.1-9 9.1.1 16.5-6.2 32.1-17.8 43.9-11.6 11.8-27.1 18.3-43.6 18.4h-.5c-16.3 0-31.8-6.3-43.4-17.8-11.8-11.6-18.3-27.1-18.4-43.6-.1-16.5 6.2-32.1 17.8-43.9 11.8-11.7 27.3-18.3 43.8-18.4zm282.5-61.6c11.3 0 20.6-9.2 20.6-20.6v-19.3c0-11.3-9.2-20.6-20.6-20.6h-10.5c-2.7-10-6.6-19.6-11.8-28.5l7.5-7.5c8-8 8-21.1 0-29.1l-13.7-13.7c-3.9-3.9-9.1-6-14.5-6-5.5 0-10.7 2.1-14.5 6l-7.5 7.5c-9-5.2-18.5-9.2-28.5-11.8v-10.6c0-11.3-9.2-20.6-20.6-20.6h-19.4c-11.3 0-20.6 9.2-20.6 20.6v10.6c-10 2.7-19.6 6.6-28.5 11.8l-7.5-7.5c-3.9-3.9-9.1-6-14.5-6-5.5 0-10.7 2.1-14.5 6l-13.7 13.7c-8 8-8 21.1 0 29.1l7.5 7.5c-5.2 9-9.2 18.5-11.8 28.5h-10.6c-11.3 0-20.6 9.2-20.6 20.6v19.4c0 11.3 9.2 20.6 20.6 20.6h10.6c2.7 10 6.6 19.6 11.8 28.5l-7.5 7.5c-8 8-8 21.1 0 29.1l13.7 13.7c3.9 3.9 9.1 6 14.5 6 5.5 0 10.7-2.1 14.5-6l7.5-7.5c9 5.2 18.5 9.2 28.5 11.8v10.6c0 11.3 9.2 20.6 20.6 20.6h19.4c11.3 0 20.6-9.2 20.6-20.6v-10.7c10-2.7 19.6-6.6 28.5-11.8l7.5 7.5c3.9 3.9 9.1 6 14.5 6 5.5 0 10.7-2.1 14.5-6l13.7-13.7c8-8 8-21.1 0-29.1l-7.5-7.5c5.2-9 9.2-18.5 11.8-28.5zm-26.6-10.8c-2.5 12.8-7.5 24.8-14.8 35.7-2.4 3.6-1.9 8.4 1.1 11.4l12.6 12.6c1 1 1 2.5 0 3.5l-13.7 13.7c-.6.6-1.3.7-1.7.7-.5 0-1.1-.1-1.7-.7l-12.6-12.6c-3.1-3.1-7.9-3.5-11.4-1.1-10.9 7.3-22.9 12.2-35.7 14.8-4.2.8-7.3 4.6-7.3 8.9v17.8c0 1.3-1.1 2.4-2.4 2.4h-19.4c-1.3 0-2.4-1.1-2.4-2.4v-17.8c0-4.3-3.1-8-7.3-8.9-12.8-2.5-24.8-7.5-35.7-14.8-1.5-1-3.3-1.5-5-1.5-2.3 0-4.7.9-6.4 2.7l-12.6 12.6c-.6.6-1.3.7-1.7.7-.5 0-1.1-.1-1.7-.7l-13.7-13.7c-1-1-1-2.5 0-3.5l12.6-12.6c3.1-3.1 3.5-7.9 1.1-11.4-7.3-10.9-12.2-22.9-14.8-35.7-.8-4.2-4.6-7.3-8.9-7.3h-17.8c-1.3 0-2.4-1.1-2.4-2.4v-19.5c0-1.3 1.1-2.4 2.4-2.4h17.8c4.3 0 8-3.1 8.9-7.3 2.5-12.8 7.5-24.8 14.8-35.7 2.4-3.6 1.9-8.4-1.1-11.4l-12.6-12.6c-.6-.6-.7-1.3-.7-1.7 0-.5.1-1.1.7-1.7l13.6-13.8c.6-.6 1.3-.7 1.7-.7.5 0 1.1.1 1.7.7l12.6 12.6c3.1 3.1 7.9 3.5 11.4 1.1 10.9-7.3 22.9-12.2 35.7-14.8 4.2-.8 7.3-4.6 7.3-8.9v-17.7c0-1.3 1.1-2.4 2.4-2.4h19.4c1.3 0 2.4 1.1 2.4 2.4v17.8c0 4.3 3.1 8 7.3 8.9 12.8 2.5 24.8 7.5 35.7 14.8 3.6 2.4 8.4 1.9 11.4-1.1l12.6-12.6c.6-.6 1.3-.7 1.7-.7.5 0 1.1.1 1.7.7l13.7 13.7c1 1 1 2.5 0 3.5l-12.6 12.6c-3.1 3.1-3.5 7.9-1.1 11.4 7.3 10.9 12.2 22.9 14.8 35.7.8 4.2 4.6 7.3 8.9 7.3h17.8c1.3 0 2.4 1.1 2.4 2.4v19.4c0 1.3-1.1 2.4-2.4 2.4h-17.8c-4.3-.1-8 2.9-8.8 7.2z"/>
    <path style="fill:#000;stroke:#000;stroke-width:13.1;stroke-linejoin:round;stroke-miterlimit:4;stroke-dasharray:none;stroke-opacity:.991968"
          d="M354.416 93.75c-32.1 0-58.1 26.1-58.1 58.1 0 32.1 26.1 58.1 58.1 58.1 32.1 0 58.1-26.1 58.1-58.1s-26.1-58.1-58.1-58.1zm0 98.1c-22.1 0-40-17.9-40-40s17.9-40 40-40 40 17.9 40 40-18 40-40 40z"/>
</svg>