<svg width="62" height="62" viewBox="0 0 62 62" fill="none" xmlns="http://www.w3.org/2000/svg">
    <g clip-path="url(#clip0_84_123)">
        <path d="M35.8825 24.1447C35.8744 24.063 35.8618 23.9819 35.8449 23.9016C35.8449 23.843 35.8199 23.7843 35.8032 23.7256L35.7531 23.5329C35.7531 23.4826 35.728 23.4281 35.7113 23.3778C35.6893 23.3009 35.6628 23.2254 35.632 23.1516L35.5652 22.9756C35.5652 22.9421 35.5443 22.9085 35.5318 22.875C35.4858 22.7703 35.4357 22.6697 35.3856 22.5691L35.3313 22.456C35.3134 22.4325 35.298 22.4073 35.2854 22.3806C35.2186 22.259 35.1434 22.1417 35.0683 22.0286L35.0474 21.9615C34.943 21.8065 34.8511 21.6892 34.7551 21.5676L34.7217 21.5425C34.6173 21.4168 34.5045 21.2911 34.3834 21.1696L34.35 21.1235C33.3372 20.1032 31.9643 19.525 30.5292 19.5144H30.4666C29.0125 19.5144 27.6179 20.0941 26.5897 21.1259C25.5615 22.1577 24.9838 23.5571 24.9838 25.0163C24.9838 26.4754 25.5615 27.8748 26.5897 28.9066C27.6179 29.9384 29.0125 30.5181 30.4666 30.5181H30.5334C31.2475 30.5134 31.9537 30.3674 32.6115 30.0884C33.2693 29.8095 33.8657 29.403 34.3667 28.8923C34.5045 28.7498 34.6173 28.6241 34.7175 28.5026L34.7592 28.4439C34.8511 28.3308 34.943 28.2093 35.0307 28.0794L35.085 27.9872C35.1601 27.8698 35.2353 27.7525 35.3021 27.631L35.3271 27.5723C35.3428 27.5438 35.3567 27.5145 35.3689 27.4843L35.394 27.4382C35.4399 27.3419 35.49 27.2497 35.5276 27.1533C35.5276 27.1198 35.5526 27.0863 35.5652 27.0569L35.632 26.8725C35.6628 26.8002 35.6893 26.726 35.7113 26.6505C35.7113 26.596 35.7405 26.5457 35.7531 26.4912L35.8032 26.2943C35.821 26.2395 35.835 26.1835 35.8449 26.1267C35.8449 26.0429 35.8742 25.9633 35.8825 25.8836L35.9118 25.6909C35.9138 25.6546 35.9138 25.6182 35.9118 25.5819C35.9318 25.3955 35.9415 25.208 35.941 25.0204C35.9418 24.8329 35.932 24.6454 35.9118 24.4589C35.9138 24.4213 35.9138 24.3835 35.9118 24.3458L35.8825 24.1447Z"
              fill="white"/>
        <path d="M40.0541 32.2068C40.1084 32.1188 40.1668 32.0224 40.2462 31.9009C40.2583 31.8872 40.2682 31.8717 40.2754 31.8548C40.4216 31.5825 40.6429 31.1844 40.6554 31.1634C41.5448 29.4236 42.0058 27.4954 42 25.5401C42 25.3277 42 25.1182 42 24.9115C42 24.8193 42 24.7313 42 24.6433L41.9666 24.4757C41.9666 24.4171 41.9666 24.3584 41.9666 24.3081C41.9666 24.2578 41.9666 24.1573 41.9457 24.086V23.9268L41.9207 23.6963C41.9207 23.6377 41.9207 23.579 41.8914 23.5203L41.8664 23.3653C41.8664 23.2773 41.8413 23.1935 41.8246 23.1097C41.8079 23.0259 41.7996 22.9714 41.787 22.9044L41.7495 22.72C41.7495 22.6571 41.7244 22.5943 41.7077 22.5314C41.691 22.4686 41.6659 22.3512 41.6409 22.2632L41.549 22.0956V21.9615C41.524 21.8652 41.4906 21.7688 41.4613 21.6724L41.4029 21.5425C41.3915 21.4971 41.3775 21.4523 41.3611 21.4084C41.3319 21.3121 41.2943 21.2157 41.2609 21.1235L41.215 21.002C41.2022 20.9578 41.1868 20.9144 41.169 20.8721C41.1314 20.7673 41.0855 20.6667 41.0438 20.562L40.9936 20.4489L40.9561 20.3525C40.8934 20.2142 40.8266 20.0801 40.7598 19.9334L40.7139 19.8664C40.6471 19.7323 40.5761 19.6024 40.4884 19.4474L40.455 19.3845C40.3756 19.2462 40.2921 19.1122 40.1961 18.9655L40.1668 18.9236C40.0792 18.7895 39.9915 18.6554 39.8912 18.5046L39.862 18.4627C39.7618 18.3244 39.6616 18.1903 39.5572 18.0646L39.5321 18.0311C39.4236 17.8928 39.3108 17.7587 39.1855 17.612C39.0603 17.4654 38.9434 17.348 38.8181 17.2223C36.726 15.1104 33.8489 14 30.5 14C23.7311 14 19 18.7434 19 25.5401C18.9996 27.6393 19.5313 29.7042 20.545 31.5405L20.7204 31.859C20.719 31.8715 20.719 31.8842 20.7204 31.8967L21.0085 32.3409C21.0419 32.3912 21.0712 32.4415 21.0879 32.4624L28.4664 44.8699L30.1701 47.7486C30.2154 47.8248 30.2796 47.8881 30.3564 47.9321C30.4332 47.9762 30.5201 47.9995 30.6086 48C30.6972 47.9979 30.7839 47.9734 30.8605 47.9287C30.9372 47.884 31.0013 47.8206 31.047 47.7444L32.7173 44.8699L39.8787 32.4792C39.9455 32.387 39.9956 32.299 40.0541 32.2068ZM36.9557 25.67C36.9557 25.7328 36.9557 25.7915 36.9306 25.8501L36.9056 26.0052C36.9056 26.1099 36.8805 26.2147 36.8597 26.3194C36.8388 26.4242 36.8221 26.4745 36.8012 26.5541L36.7594 26.7217C36.7594 26.793 36.7219 26.8684 36.701 26.9396C36.6801 27.0108 36.6342 27.1324 36.5966 27.2287L36.5423 27.3796C36.5423 27.4299 36.5047 27.4843 36.4838 27.5346C36.4337 27.6561 36.3753 27.7693 36.3168 27.8866L36.2667 27.9872C36.2497 28.0275 36.2302 28.0667 36.2082 28.1045C36.1331 28.2512 36.0454 28.3895 35.9577 28.5235L35.8867 28.6367C35.7865 28.7833 35.6779 28.93 35.5652 29.0557C35.5529 29.0788 35.5375 29.0999 35.5192 29.1186C35.3884 29.2743 35.249 29.4226 35.1017 29.5627C34.5048 30.1735 33.7937 30.66 33.009 30.9944C32.2244 31.3287 31.3817 31.5044 30.5292 31.5112H30.4666C28.7702 31.4681 27.1578 30.7615 25.9732 29.5423C24.7886 28.3231 24.1256 26.6877 24.1256 24.9848C24.1256 23.282 24.7886 21.6466 25.9732 20.4274C27.1578 19.2081 28.7702 18.5016 30.4666 18.4585H30.5334C32.2456 18.4725 33.8824 19.1671 35.085 20.3902L35.11 20.4195C35.2472 20.5518 35.3768 20.6917 35.4984 20.8386C35.5136 20.8557 35.5275 20.8739 35.5401 20.893C35.657 21.0397 35.7656 21.1863 35.8658 21.3372C35.8863 21.3635 35.9045 21.3915 35.9201 21.421C36.0245 21.5886 36.1122 21.7269 36.1915 21.8694C36.2124 21.9113 36.2291 21.949 36.2458 21.9909L36.2709 22.0412C36.346 22.192 36.4087 22.3135 36.463 22.4392C36.463 22.4895 36.5047 22.5482 36.5214 22.6027L36.5757 22.7493C36.6133 22.8457 36.6467 22.9379 36.6801 23.0343C36.7135 23.1306 36.7177 23.1809 36.7386 23.2563L36.7761 23.4198C36.8012 23.5008 36.8221 23.5804 36.8388 23.6586C36.8388 23.7592 36.8722 23.8639 36.8847 23.9687L36.9098 24.1237C36.9098 24.1824 36.9306 24.2453 36.9348 24.3039C36.9557 24.5218 36.9682 24.7481 36.9682 24.9702C36.9682 25.1923 36.9557 25.4521 36.9557 25.67Z"
              fill="white"/>
    </g>
    <circle cx="31" cy="31" r="29.5" stroke="white" stroke-width="3"/>
    <defs>
        <clipPath id="clip0_84_123">
            <rect width="23" height="34" fill="white" transform="translate(19 14)"/>
        </clipPath>
    </defs>
</svg>
