<svg width="62" height="62" viewBox="0 0 62 62" fill="none" xmlns="http://www.w3.org/2000/svg">
    <g clip-path="url(#clip0_84_127)">
        <path d="M18.0537 38.535L29.8746 31.5481L18 24.5496V38.1236C18.0016 38.2624 18.0196 38.4005 18.0537 38.535Z"
              fill="white"/>
        <path d="M30.4004 31.8708L18.2533 39.0462C18.4146 39.3348 18.6496 39.5752 18.9342 39.7428C19.2188 39.9104 19.5428 39.9991 19.8729 39.9999H43.1309C43.487 40.0004 43.8359 39.899 44.1364 39.7076C44.437 39.5161 44.6767 39.2427 44.8273 38.9193L32.9296 31.8901L31.6631 32.6399L30.4004 31.8708Z"
              fill="white"/>
        <path d="M45 38.1235V24.7417L33.4554 31.5633L44.9693 38.3734C44.9853 38.2909 44.9955 38.2074 45 38.1235Z"
              fill="white"/>
        <path d="M19.8729 22C19.6271 21.9995 19.3837 22.0476 19.1565 22.1414C18.9293 22.2353 18.7228 22.3732 18.5488 22.5471C18.3748 22.7211 18.2368 22.9277 18.1426 23.1551C18.0485 23.3826 18 23.6264 18 23.8727V23.9227L31.6631 31.9979L45 24.1226V23.8727C45 23.376 44.8031 22.8997 44.4526 22.5485C44.102 22.1973 43.6266 22 43.1309 22H19.8729Z"
              fill="white"/>
    </g>
    <circle cx="31" cy="31" r="29.5" stroke="white" stroke-width="3"/>
    <defs>
        <clipPath id="clip0_84_127">
            <rect width="27" height="18" fill="white" transform="translate(18 22)"/>
        </clipPath>
    </defs>
</svg>
