<svg width="62" height="62" viewBox="0 0 62 62" fill="none" xmlns="http://www.w3.org/2000/svg">
    <g clip-path="url(#clip0_84_125)">
        <path d="M30.4981 16C28.2073 16.0002 25.9795 16.7566 24.1543 18.1539C22.3292 19.5512 21.007 21.5128 20.3894 23.7393C19.7718 25.9658 19.8927 28.3351 20.7337 30.4858C21.5747 32.6365 23.0896 34.4505 25.0474 35.6511L25.3595 43.4809C25.383 43.9169 25.5531 44.3319 25.8416 44.6574C26.1302 44.9828 26.52 45.1993 26.9468 45.2712C27.2703 46.2585 28.7396 47 30.4981 47C32.2567 47 33.707 46.2701 34.0457 45.2942C34.5112 45.2638 34.9493 45.0619 35.277 44.7269C35.6047 44.3919 35.7991 43.9471 35.8233 43.477L36.0898 35.5628C38.019 34.3403 39.5018 32.5175 40.3142 30.3695C41.1266 28.2216 41.2245 25.8651 40.5931 23.656C39.9617 21.447 38.6353 19.5053 36.8141 18.1241C34.993 16.743 32.7761 15.9974 30.4981 16ZM34.1104 43.8689C34.1079 43.8766 34.1034 43.8835 34.0974 43.8889C34.0914 43.8943 34.0841 43.898 34.0762 43.8996H27.1181C27.1088 43.8978 27.1001 43.8937 27.0928 43.8877C27.0855 43.8816 27.0798 43.8739 27.0762 43.865V43.8228L34.1561 42.4436L34.1104 43.8689ZM34.179 41.7559L27.0495 43.1428L27.0115 42.1554L34.2132 40.7531L34.179 41.7559ZM34.2361 40.0616L27.0039 41.4716L26.9696 40.4842L34.2703 39.0512L34.2361 40.0616ZM35.9489 27.71L32.7858 33.4267L32.6069 38.2482H34.297V38.3712L26.9239 39.8196L26.8516 38.2482H28.3742L28.1953 33.4267L25.0512 27.71C25.0136 27.6387 24.9993 27.5572 25.0102 27.4772C25.0212 27.3972 25.0568 27.3227 25.1121 27.2644C25.1347 27.2395 25.1602 27.2175 25.1882 27.199C25.2462 27.1612 25.3133 27.1399 25.3823 27.1376H35.515C35.5455 27.1346 35.5762 27.1359 35.6064 27.1414C35.6699 27.1389 35.733 27.1534 35.7891 27.1837C35.8343 27.2071 35.8744 27.2395 35.907 27.2788C35.9397 27.3182 35.9641 27.3637 35.979 27.4128C35.9939 27.4619 35.999 27.5134 35.9938 27.5645C35.9886 27.6155 35.9734 27.665 35.9489 27.71Z"
              fill="white"/>
        <path d="M32.0397 33.3077C32.0418 33.2486 32.0574 33.1907 32.0854 33.1387L34.1484 29.4121L34.3844 28.9894L34.9973 27.8792H26.0027L26.6194 28.9933L26.8477 29.4005L28.9146 33.1387C28.9443 33.19 28.9601 33.2483 28.9603 33.3077L29.1354 38.2483H31.8494L32.0397 33.3077Z"
              fill="white"/>
    </g>
    <circle cx="31" cy="31" r="29.5" stroke="white" stroke-width="3"/>
    <defs>
        <clipPath id="clip0_84_125">
            <rect width="21" height="31" fill="white" transform="translate(20 16)"/>
        </clipPath>
    </defs>
</svg>
