<svg width="62" height="62" viewBox="0 0 62 62" fill="none" xmlns="http://www.w3.org/2000/svg">
    <g clip-path="url(#clip0_84_129)">
        <path d="M25.827 29.1267L26.6825 28.192C27.3796 27.4264 27.7417 26.418 27.6893 25.3882C27.6368 24.3583 27.1741 23.3912 26.4026 22.699L24.9634 21.4079C24.1916 20.7157 23.1738 20.3557 22.1339 20.4069C21.0941 20.4582 20.1173 20.9165 19.4186 21.6811L18.5631 22.6158C18.4507 22.741 18.3465 22.8733 18.2513 23.0118L18.2113 23.0514C17.3998 23.7326 16.7202 25.396 17.1159 27.4316C18.0302 32.0593 20.4327 36.2693 23.9639 39.4313C27.4951 42.5932 31.9651 44.5372 36.7047 44.9722C37.8756 45.1014 39.0576 44.8573 40.0788 44.2752C40.4366 44.0695 40.7602 43.8103 41.0383 43.5069L41.8938 42.5722C42.59 41.8061 42.9514 40.798 42.8989 39.7684C42.8465 38.7389 42.3844 37.7719 41.6139 37.0792L40.1708 35.7881C39.7889 35.4452 39.3425 35.1804 38.8571 35.0087C38.3718 34.8371 37.857 34.762 37.3423 34.7877C36.8276 34.8135 36.323 34.9396 35.8576 35.1588C35.3922 35.378 34.975 35.6861 34.6299 36.0653L33.7624 37C33.406 37.3976 33.1341 37.8623 32.9629 38.3663L32.8869 38.592L32.663 38.5049C28.8538 37.0213 25.7356 34.1905 23.912 30.5604L23.7921 30.3188L24.052 30.2396C24.7352 30.0363 25.3491 29.6514 25.827 29.1267Z"
              fill="white"/>
        <path d="M30.6202 17.9069C30.6213 18.1471 30.7181 18.3772 30.8895 18.5471C31.061 18.7169 31.2932 18.8128 31.5357 18.8139C34.6201 18.817 37.5772 20.0322 39.7582 22.1929C41.9392 24.3535 43.1659 27.283 43.169 30.3386C43.169 30.5791 43.2655 30.8098 43.4372 30.9799C43.6089 31.15 43.8417 31.2455 44.0845 31.2455C44.3273 31.2455 44.5602 31.15 44.7319 30.9799C44.9035 30.8098 45 30.5791 45 30.3386C44.9958 26.8023 43.5758 23.412 41.0517 20.9114C38.5276 18.4109 35.1053 17.0042 31.5357 17C31.2932 17.001 31.061 17.0969 30.8895 17.2668C30.7181 17.4366 30.6213 17.6667 30.6202 17.9069Z"
              fill="white"/>
        <path d="M30.4723 22.3425C30.4734 22.5834 30.5707 22.814 30.743 22.984C30.9153 23.154 31.1486 23.2494 31.3918 23.2494C33.3279 23.2515 35.184 24.0146 36.5526 25.3712C37.9213 26.7278 38.6905 28.567 38.6916 30.4851C38.6916 30.7256 38.7881 30.9563 38.9597 31.1263C39.1314 31.2964 39.3643 31.392 39.6071 31.392C39.8499 31.392 40.0827 31.2964 40.2544 31.1263C40.4261 30.9563 40.5226 30.7256 40.5226 30.4851C40.5194 28.0866 39.5565 25.7873 37.845 24.091C36.1334 22.3946 33.8128 21.4397 31.3918 21.4355C31.1486 21.4355 30.9153 21.531 30.743 21.7009C30.5707 21.8709 30.4734 22.1016 30.4723 22.3425Z"
              fill="white"/>
    </g>
    <circle cx="31" cy="31" r="29.5" stroke="white" stroke-width="3"/>
    <defs>
        <clipPath id="clip0_84_129">
            <rect width="28" height="28" fill="white" transform="translate(17 17)"/>
        </clipPath>
    </defs>
</svg>
